<svg xmlns="http://www.w3.org/2000/svg" width="417" height="542" viewBox="0 0 417 542">
<path d="M0 0 L417 0 L417 542 L0 542 L0 0 Z" fill="#F2ECE0" fill-opacity="1"/>
<path d="M306.5 195 C306.5 177 306.5 159 306.5 141" fill="none" stroke="#8C8478" stroke-opacity="1" stroke-width="1.4" stroke-linecap="round" stroke-linejoin="round"/>
<path d="M230.917 379 C230.917 361 306.5 343 306.5 325" fill="none" stroke="#8C8478" stroke-opacity="1" stroke-width="1.4" stroke-linecap="round" stroke-linejoin="round"/>
<path d="M175.583 379 C175.583 361 100 343 100 325" fill="none" stroke="#8C8478" stroke-opacity="1" stroke-width="1.4" stroke-linecap="round" stroke-linejoin="round"/>
<path d="M217 24 L217 128 C217 133.523 221.477 138 227 138 L386 138 C391.523 138 396 133.523 396 128 L396 24 C396 18.477 391.523 14 386 14 L227 14 C221.477 14 217 18.477 217 24 Z" fill="#B1512D" fill-opacity="0.004"/>
<path d="M219 25 L219 127 C219 131.971 223.029 136 228 136 L385 136 C389.971 136 394 131.971 394 127 L394 25 C394 20.029 389.971 16 385 16 L228 16 C223.029 16 219 20.029 219 25 Z" fill="#B1512D" fill-opacity="0.012"/>
<path d="M221 26 L221 126 C221 130.418 224.582 134 229 134 L384 134 C388.418 134 392 130.418 392 126 L392 26 C392 21.582 388.418 18 384 18 L229 18 C224.582 18 221 21.582 221 26 Z" fill="#B1512D" fill-opacity="0.02"/>
<path d="M223 27 L223 125 C223 128.866 226.134 132 230 132 L383 132 C386.866 132 390 128.866 390 125 L390 27 C390 23.134 386.866 20 383 20 L230 20 C226.134 20 223 23.134 223 27 Z" fill="#B1512D" fill-opacity="0.024"/>
<path d="M225 28 L225 124 C225 127.314 227.686 130 231 130 L382 130 C385.314 130 388 127.314 388 124 L388 28 C388 24.686 385.314 22 382 22 L231 22 C227.686 22 225 24.686 225 28 Z" fill="#B1512D" fill-opacity="0.031"/>
<path d="M221 28 L221 128 C221 132.418 224.582 136 229 136 L384 136 C388.418 136 392 132.418 392 128 L392 28 C392 23.582 388.418 20 384 20 L229 20 C224.582 20 221 23.582 221 28 Z" fill="#000000" fill-opacity="0.024"/>
<path d="M222 28.5 L222 127.5 C222 131.642 225.358 135 229.5 135 L383.5 135 C387.642 135 391 131.642 391 127.5 L391 28.5 C391 24.358 387.642 21 383.5 21 L229.5 21 C225.358 21 222 24.358 222 28.5 Z" fill="#000000" fill-opacity="0.024"/>
<path d="M223 29 L223 127 C223 130.866 226.134 134 230 134 L383 134 C386.866 134 390 130.866 390 127 L390 29 C390 25.134 386.866 22 383 22 L230 22 C226.134 22 223 25.134 223 29 Z" fill="#000000" fill-opacity="0.024"/>
<path d="M224 29.5 L224 126.5 C224 130.09 226.91 133 230.5 133 L382.5 133 C386.09 133 389 130.09 389 126.5 L389 29.5 C389 25.91 386.09 23 382.5 23 L230.5 23 C226.91 23 224 25.91 224 29.5 Z" fill="#000000" fill-opacity="0.024"/>
<path d="M225 30 L225 126 C225 129.314 227.686 132 231 132 L382 132 C385.314 132 388 129.314 388 126 L388 30 C388 26.686 385.314 24 382 24 L231 24 C227.686 24 225 26.686 225 30 Z" fill="#000000" fill-opacity="0.024"/>
<path d="M226 30.5 L226 125.5 C226 128.538 228.462 131 231.5 131 L381.5 131 C384.538 131 387 128.538 387 125.5 L387 30.5 C387 27.462 384.538 25 381.5 25 L231.5 25 C228.462 25 226 27.462 226 30.5 Z" fill="#000000" fill-opacity="0.024"/>
<path d="M227 29 L227 123 C227 125.761 229.239 128 232 128 L381 128 C383.761 128 386 125.761 386 123 L386 29 C386 26.239 383.761 24 381 24 L232 24 C229.239 24 227 26.239 227 29 Z" fill="#FBF7F0" fill-opacity="1"/>
<path d="M227 29 L227 49 C227 51.761 229.239 54 232 54 L381 54 C383.761 54 386 51.761 386 49 L386 29 C386 26.239 383.761 24 381 24 L232 24 C229.239 24 227 26.239 227 29 Z" fill="#B1512D" fill-opacity="1"/>
<path d="M227 44 L386 44 L386 54 L227 54 L227 44 Z" fill="#B1512D" fill-opacity="1"/>
<path d="M247.316 44.848 Q246.148 45.159 245.151 45.159 Q243.482 45.159 242.514 44.178 Q241.546 43.197 241.546 41.509 Q241.546 39.801 242.542 38.836 Q243.539 37.872 245.297 37.872 Q246.148 37.872 247.259 38.145 L247.259 39.503 Q246.104 39.128 245.412 39.128 Q244.567 39.128 244.053 39.776 Q243.539 40.423 243.539 41.496 Q243.539 42.594 244.094 43.254 Q244.65 43.915 245.577 43.915 Q246.421 43.915 247.316 43.546 Z M253.403 45 L253.403 43.686 Q252.489 45.159 251.029 45.159 Q250.096 45.159 249.557 44.568 Q249.017 43.978 249.017 42.956 L249.017 38.03 L250.896 38.03 L250.896 42.493 Q250.896 43.68 251.689 43.68 Q252.578 43.68 253.403 42.417 L253.403 38.03 L255.282 38.03 L255.282 45 Z M257.447 44.778 L257.447 43.4 Q258.843 43.984 259.833 43.984 Q260.989 43.984 260.989 43.197 Q260.989 42.689 260.037 42.309 L259.402 42.055 Q258.367 41.636 257.923 41.153 Q257.479 40.671 257.479 39.96 Q257.479 38.97 258.234 38.421 Q258.989 37.872 260.348 37.872 Q261.198 37.872 262.373 38.119 L262.373 39.439 Q261.243 39.046 260.5 39.046 Q259.332 39.046 259.332 39.77 Q259.332 40.246 260.195 40.576 L260.741 40.785 Q261.966 41.249 262.446 41.725 Q262.925 42.201 262.925 42.95 Q262.925 43.934 262.109 44.546 Q261.293 45.159 259.986 45.159 Q258.729 45.159 257.447 44.778 Z M268.574 44.962 Q267.901 45.159 267.514 45.159 Q265.07 45.159 265.07 42.874 L265.07 39.205 L264.29 39.205 L264.29 38.03 L265.07 38.03 L265.07 36.856 L266.949 36.64 L266.949 38.03 L268.441 38.03 L268.441 39.205 L266.949 39.205 L266.949 42.626 Q266.949 43.908 267.997 43.908 Q268.238 43.908 268.574 43.819 Z M273.176 45.159 Q271.545 45.159 270.583 44.172 Q269.622 43.185 269.622 41.515 Q269.622 39.827 270.59 38.849 Q271.558 37.872 273.221 37.872 Q274.89 37.872 275.858 38.849 Q276.826 39.827 276.826 41.502 Q276.826 43.216 275.855 44.188 Q274.884 45.159 273.176 45.159 Z M273.208 43.984 Q274.827 43.984 274.827 41.502 Q274.827 40.366 274.398 39.706 Q273.97 39.046 273.221 39.046 Q272.478 39.046 272.05 39.706 Q271.621 40.366 271.621 41.515 Q271.621 42.651 272.046 43.318 Q272.472 43.984 273.208 43.984 Z M278.553 45 L278.553 38.03 L280.355 38.03 L280.355 39.344 Q281.181 37.872 282.704 37.872 Q283.491 37.872 283.999 38.259 Q284.507 38.646 284.621 39.344 Q285.599 37.872 286.982 37.872 Q288.893 37.872 288.893 39.979 L288.893 45 L287.09 45 L287.09 40.595 Q287.09 39.357 286.265 39.357 Q285.421 39.357 284.621 40.576 L284.621 45 L282.818 45 L282.818 40.595 Q282.818 39.351 281.987 39.351 Q281.155 39.351 280.355 40.576 L280.355 45 Z M296.834 44.765 Q295.495 45.159 294.295 45.159 Q292.549 45.159 291.54 44.168 Q290.531 43.178 290.531 41.464 Q290.531 39.846 291.454 38.859 Q292.378 37.872 293.895 37.872 Q295.425 37.872 296.129 38.836 Q296.834 39.801 296.834 41.89 L292.511 41.89 Q292.702 43.883 294.701 43.883 Q295.647 43.883 296.834 43.445 Z M292.486 40.83 L294.987 40.83 Q294.987 39.046 293.838 39.046 Q292.67 39.046 292.486 40.83 Z M298.776 45 L298.776 38.03 L300.655 38.03 L300.655 39.344 Q301.385 37.872 302.877 37.872 Q303.055 37.872 303.226 37.91 L303.226 39.585 Q302.826 39.439 302.483 39.439 Q301.36 39.439 300.655 40.576 L300.655 45 Z M304.502 44.778 L304.502 43.4 Q305.898 43.984 306.889 43.984 Q308.044 43.984 308.044 43.197 Q308.044 42.689 307.092 42.309 L306.457 42.055 Q305.422 41.636 304.978 41.153 Q304.534 40.671 304.534 39.96 Q304.534 38.97 305.289 38.421 Q306.044 37.872 307.403 37.872 Q308.253 37.872 309.428 38.119 L309.428 39.439 Q308.298 39.046 307.555 39.046 Q306.387 39.046 306.387 39.77 Q306.387 40.246 307.25 40.576 L307.796 40.785 Q309.021 41.249 309.501 41.725 Q309.98 42.201 309.98 42.95 Q309.98 43.934 309.164 44.546 Q308.349 45.159 307.041 45.159 Q305.784 45.159 304.502 44.778 Z" fill="#FFFFFF" fill-opacity="1"/>
<path d="M362 34 L374 34 L374 44 L362 44 L362 34 Z" fill="none" stroke="#FFFFFF" stroke-opacity="1" stroke-width="1.3" stroke-linecap="square" stroke-linejoin="miter"/>
<path d="M362 38 L374 38" fill="none" stroke="#FFFFFF" stroke-opacity="1" stroke-width="1.3" stroke-linecap="square" stroke-linejoin="miter"/>
<path d="M368 38 L368 44" fill="none" stroke="#FFFFFF" stroke-opacity="1" stroke-width="1.3" stroke-linecap="square" stroke-linejoin="miter"/>
<path d="M245 65 C245 66.657 243.657 68 242 68 C240.343 68 239 66.657 239 65 C239 63.343 240.343 62 242 62 C243.657 62 245 63.343 245 65 Z" fill="#B1512D" fill-opacity="1"/>
<path d="M245 65 L251 65" fill="none" stroke="#B1512D" stroke-opacity="1" stroke-width="1.3" stroke-linecap="square" stroke-linejoin="miter"/>
<path d="M251 65 L251 68" fill="none" stroke="#B1512D" stroke-opacity="1" stroke-width="1.3" stroke-linecap="square" stroke-linejoin="miter"/>
<path d="M248 65 L248 68" fill="none" stroke="#B1512D" stroke-opacity="1" stroke-width="1.3" stroke-linecap="square" stroke-linejoin="miter"/>
<path d="M258.852 62.461 L261.611 62.461 L261.611 68.162 L263.75 68.162 L263.75 69 L258.395 69 L258.395 68.162 L260.533 68.162 L260.533 63.299 L258.852 63.299 Z M260.533 59.912 L261.611 59.912 L261.611 61.271 L260.533 61.271 Z M269.252 63.275 L269.252 59.883 L270.33 59.883 L270.33 69 L269.252 69 L269.252 68.174 Q268.982 68.66 268.534 68.915 Q268.086 69.17 267.5 69.17 Q266.311 69.17 265.628 68.247 Q264.945 67.324 264.945 65.701 Q264.945 64.102 265.631 63.19 Q266.316 62.279 267.5 62.279 Q268.092 62.279 268.543 62.534 Q268.994 62.789 269.252 63.275 Z M266.082 65.725 Q266.082 66.979 266.48 67.617 Q266.879 68.256 267.658 68.256 Q268.438 68.256 268.845 67.611 Q269.252 66.967 269.252 65.725 Q269.252 64.477 268.845 63.835 Q268.438 63.193 267.658 63.193 Q266.879 63.193 266.48 63.832 Q266.082 64.471 266.082 65.725 Z" fill="#B1512D" fill-opacity="1"/>
<path d="M345.143 66.516 L345.143 62.449 L346.221 62.449 L346.221 66.516 Q346.221 67.4 346.534 67.816 Q346.848 68.232 347.504 68.232 Q348.266 68.232 348.67 67.696 Q349.074 67.16 349.074 66.158 L349.074 62.449 L350.158 62.449 L350.158 69 L349.074 69 L349.074 68.016 Q348.787 68.584 348.292 68.877 Q347.797 69.17 347.135 69.17 Q346.127 69.17 345.635 68.511 Q345.143 67.852 345.143 66.516 Z M352.367 66.516 L352.367 62.449 L353.445 62.449 L353.445 66.516 Q353.445 67.4 353.759 67.816 Q354.072 68.232 354.729 68.232 Q355.49 68.232 355.895 67.696 Q356.299 67.16 356.299 66.158 L356.299 62.449 L357.383 62.449 L357.383 69 L356.299 69 L356.299 68.016 Q356.012 68.584 355.517 68.877 Q355.021 69.17 354.359 69.17 Q353.352 69.17 352.859 68.511 Q352.367 67.852 352.367 66.516 Z M360.301 62.461 L363.061 62.461 L363.061 68.162 L365.199 68.162 L365.199 69 L359.844 69 L359.844 68.162 L361.982 68.162 L361.982 63.299 L360.301 63.299 Z M361.982 59.912 L363.061 59.912 L363.061 61.271 L361.982 61.271 Z M370.701 63.275 L370.701 59.883 L371.779 59.883 L371.779 69 L370.701 69 L370.701 68.174 Q370.432 68.66 369.983 68.915 Q369.535 69.17 368.949 69.17 Q367.76 69.17 367.077 68.247 Q366.395 67.324 366.395 65.701 Q366.395 64.102 367.08 63.19 Q367.766 62.279 368.949 62.279 Q369.541 62.279 369.992 62.534 Q370.443 62.789 370.701 63.275 Z M367.531 65.725 Q367.531 66.979 367.93 67.617 Q368.328 68.256 369.107 68.256 Q369.887 68.256 370.294 67.611 Q370.701 66.967 370.701 65.725 Q370.701 64.477 370.294 63.835 Q369.887 63.193 369.107 63.193 Q368.328 63.193 367.93 63.832 Q367.531 64.471 367.531 65.725 Z" fill="#8C8478" fill-opacity="1"/>
<path d="M263.563 87.18 L263.563 87.707 L258.893 87.707 L258.893 87.742 Q258.846 89.084 259.405 89.67 Q259.965 90.256 260.984 90.256 Q261.5 90.256 262.063 90.092 Q262.625 89.928 263.264 89.594 L263.264 90.666 Q262.648 90.918 262.077 91.044 Q261.506 91.17 260.973 91.17 Q259.443 91.17 258.582 90.253 Q257.721 89.336 257.721 87.725 Q257.721 86.154 258.564 85.217 Q259.408 84.279 260.814 84.279 Q262.068 84.279 262.792 85.129 Q263.516 85.979 263.563 87.18 Z M262.484 86.863 Q262.414 86.184 261.989 85.688 Q261.564 85.193 260.768 85.193 Q259.988 85.193 259.484 85.709 Q258.98 86.225 258.934 86.869 Z M268.186 85.105 Q268.385 84.684 268.692 84.481 Q269 84.279 269.434 84.279 Q270.225 84.279 270.55 84.892 Q270.875 85.504 270.875 87.197 L270.875 91 L269.891 91 L269.891 87.244 Q269.891 85.855 269.735 85.519 Q269.58 85.182 269.17 85.182 Q268.701 85.182 268.528 85.542 Q268.355 85.902 268.355 87.244 L268.355 91 L267.371 91 L267.371 87.244 Q267.371 85.838 267.204 85.51 Q267.037 85.182 266.604 85.182 Q266.176 85.182 266.009 85.542 Q265.842 85.902 265.842 87.244 L265.842 91 L264.863 91 L264.863 84.438 L265.842 84.438 L265.842 85 Q266.035 84.648 266.325 84.464 Q266.615 84.279 266.984 84.279 Q267.43 84.279 267.726 84.484 Q268.021 84.689 268.186 85.105 Z M275.563 87.701 L275.205 87.701 Q274.262 87.701 273.784 88.032 Q273.307 88.363 273.307 89.02 Q273.307 89.611 273.664 89.939 Q274.021 90.268 274.654 90.268 Q275.545 90.268 276.055 89.649 Q276.564 89.031 276.57 87.941 L276.57 87.701 Z M277.654 87.256 L277.654 91 L276.57 91 L276.57 90.027 Q276.225 90.613 275.7 90.892 Q275.176 91.17 274.426 91.17 Q273.424 91.17 272.826 90.604 Q272.229 90.039 272.229 89.09 Q272.229 87.994 272.964 87.426 Q273.699 86.857 275.123 86.857 L276.57 86.857 L276.57 86.688 Q276.564 85.902 276.172 85.548 Q275.779 85.193 274.918 85.193 Q274.367 85.193 273.805 85.352 Q273.242 85.51 272.709 85.814 L272.709 84.736 Q273.307 84.508 273.854 84.394 Q274.402 84.279 274.918 84.279 Q275.732 84.279 276.31 84.52 Q276.887 84.76 277.244 85.24 Q277.467 85.533 277.561 85.964 Q277.654 86.395 277.654 87.256 Z M280.525 84.461 L283.285 84.461 L283.285 90.162 L285.424 90.162 L285.424 91 L280.068 91 L280.068 90.162 L282.207 90.162 L282.207 85.299 L280.525 85.299 Z M282.207 81.912 L283.285 81.912 L283.285 83.271 L282.207 83.271 Z M290.111 88.627 Q290.111 89.354 290.378 89.723 Q290.645 90.092 291.166 90.092 L292.426 90.092 L292.426 91 L291.061 91 Q290.094 91 289.563 90.382 Q289.033 89.764 289.033 88.627 L289.033 82.691 L287.305 82.691 L287.305 81.848 L290.111 81.848 Z" fill="#2B2620" fill-opacity="1"/>
<path d="M347.598 82.574 L347.598 84.438 L350.047 84.438 L350.047 85.275 L347.598 85.275 L347.598 88.838 Q347.598 89.564 347.873 89.852 Q348.148 90.139 348.834 90.139 L350.047 90.139 L350.047 91 L348.729 91 Q347.516 91 347.018 90.514 Q346.52 90.027 346.52 88.838 L346.52 85.275 L344.768 85.275 L344.768 84.438 L346.52 84.438 L346.52 82.574 Z M357.787 87.18 L357.787 87.707 L353.117 87.707 L353.117 87.742 Q353.07 89.084 353.63 89.67 Q354.189 90.256 355.209 90.256 Q355.725 90.256 356.287 90.092 Q356.85 89.928 357.488 89.594 L357.488 90.666 Q356.873 90.918 356.302 91.044 Q355.73 91.17 355.197 91.17 Q353.668 91.17 352.807 90.253 Q351.945 89.336 351.945 87.725 Q351.945 86.154 352.789 85.217 Q353.633 84.279 355.039 84.279 Q356.293 84.279 357.017 85.129 Q357.74 85.979 357.787 87.18 Z M356.709 86.863 Q356.639 86.184 356.214 85.688 Q355.789 85.193 354.992 85.193 Q354.213 85.193 353.709 85.709 Q353.205 86.225 353.158 86.869 Z M365 84.438 L362.65 87.578 L365.229 91 L363.98 91 L362.059 88.369 L360.143 91 L358.895 91 L361.473 87.578 L359.123 84.438 L360.318 84.438 L362.059 86.811 L363.787 84.438 Z M369.271 82.574 L369.271 84.438 L371.721 84.438 L371.721 85.275 L369.271 85.275 L369.271 88.838 Q369.271 89.564 369.547 89.852 Q369.822 90.139 370.508 90.139 L371.721 90.139 L371.721 91 L370.402 91 Q369.189 91 368.691 90.514 Q368.193 90.027 368.193 88.838 L368.193 85.275 L366.441 85.275 L366.441 84.438 L368.193 84.438 L368.193 82.574 Z" fill="#8C8478" fill-opacity="1"/>
<path d="M263.229 103.883 L263.229 104.779 L262.004 104.779 Q261.424 104.779 261.198 105.017 Q260.973 105.254 260.973 105.857 L260.973 106.438 L263.229 106.438 L263.229 107.275 L260.973 107.275 L260.973 113 L259.895 113 L259.895 107.275 L258.143 107.275 L258.143 106.438 L259.895 106.438 L259.895 105.98 Q259.895 104.902 260.39 104.393 Q260.885 103.883 261.934 103.883 Z M265.367 110.516 L265.367 106.449 L266.445 106.449 L266.445 110.516 Q266.445 111.4 266.759 111.816 Q267.072 112.232 267.729 112.232 Q268.49 112.232 268.895 111.696 Q269.299 111.16 269.299 110.158 L269.299 106.449 L270.383 106.449 L270.383 113 L269.299 113 L269.299 112.016 Q269.012 112.584 268.517 112.877 Q268.021 113.17 267.359 113.17 Q266.352 113.17 265.859 112.511 Q265.367 111.852 265.367 110.516 Z M275.662 110.627 Q275.662 111.354 275.929 111.723 Q276.195 112.092 276.717 112.092 L277.977 112.092 L277.977 113 L276.611 113 Q275.645 113 275.114 112.382 Q274.584 111.764 274.584 110.627 L274.584 104.691 L272.855 104.691 L272.855 103.848 L275.662 103.848 Z M282.887 110.627 Q282.887 111.354 283.153 111.723 Q283.42 112.092 283.941 112.092 L285.201 112.092 L285.201 113 L283.836 113 Q282.869 113 282.339 112.382 Q281.809 111.764 281.809 110.627 L281.809 104.691 L280.08 104.691 L280.08 103.848 L282.887 103.848 Z M293.07 114.113 L293.07 115.109 L285.898 115.109 L285.898 114.113 Z M299.281 108.934 L299.281 113 L298.197 113 L298.197 108.934 Q298.197 108.049 297.887 107.633 Q297.576 107.217 296.914 107.217 Q296.158 107.217 295.751 107.753 Q295.344 108.289 295.344 109.291 L295.344 113 L294.266 113 L294.266 106.438 L295.344 106.438 L295.344 107.422 Q295.631 106.859 296.123 106.569 Q296.615 106.279 297.289 106.279 Q298.291 106.279 298.786 106.938 Q299.281 107.598 299.281 108.934 Z M304.461 109.701 L304.104 109.701 Q303.16 109.701 302.683 110.032 Q302.205 110.363 302.205 111.02 Q302.205 111.611 302.563 111.939 Q302.92 112.268 303.553 112.268 Q304.443 112.268 304.953 111.649 Q305.463 111.031 305.469 109.941 L305.469 109.701 Z M306.553 109.256 L306.553 113 L305.469 113 L305.469 112.027 Q305.123 112.613 304.599 112.892 Q304.074 113.17 303.324 113.17 Q302.322 113.17 301.725 112.604 Q301.127 112.039 301.127 111.09 Q301.127 109.994 301.862 109.426 Q302.598 108.857 304.021 108.857 L305.469 108.857 L305.469 108.688 Q305.463 107.902 305.07 107.548 Q304.678 107.193 303.816 107.193 Q303.266 107.193 302.703 107.352 Q302.141 107.51 301.607 107.814 L301.607 106.736 Q302.205 106.508 302.753 106.394 Q303.301 106.279 303.816 106.279 Q304.631 106.279 305.208 106.52 Q305.785 106.76 306.143 107.24 Q306.365 107.533 306.459 107.964 Q306.553 108.395 306.553 109.256 Z M311.533 107.105 Q311.732 106.684 312.04 106.481 Q312.348 106.279 312.781 106.279 Q313.572 106.279 313.897 106.892 Q314.223 107.504 314.223 109.197 L314.223 113 L313.238 113 L313.238 109.244 Q313.238 107.855 313.083 107.519 Q312.928 107.182 312.518 107.182 Q312.049 107.182 311.876 107.542 Q311.703 107.902 311.703 109.244 L311.703 113 L310.719 113 L310.719 109.244 Q310.719 107.838 310.552 107.51 Q310.385 107.182 309.951 107.182 Q309.523 107.182 309.356 107.542 Q309.189 107.902 309.189 109.244 L309.189 113 L308.211 113 L308.211 106.438 L309.189 106.438 L309.189 107 Q309.383 106.648 309.673 106.464 Q309.963 106.279 310.332 106.279 Q310.777 106.279 311.073 106.484 Q311.369 106.689 311.533 107.105 Z M321.359 109.18 L321.359 109.707 L316.689 109.707 L316.689 109.742 Q316.643 111.084 317.202 111.67 Q317.762 112.256 318.781 112.256 Q319.297 112.256 319.859 112.092 Q320.422 111.928 321.061 111.594 L321.061 112.666 Q320.445 112.918 319.874 113.044 Q319.303 113.17 318.77 113.17 Q317.24 113.17 316.379 112.253 Q315.518 111.336 315.518 109.725 Q315.518 108.154 316.361 107.217 Q317.205 106.279 318.611 106.279 Q319.865 106.279 320.589 107.129 Q321.313 107.979 321.359 109.18 Z M320.281 108.863 Q320.211 108.184 319.786 107.688 Q319.361 107.193 318.564 107.193 Q317.785 107.193 317.281 107.709 Q316.777 108.225 316.73 108.869 Z" fill="#2B2620" fill-opacity="1"/>
<path d="M347.598 104.574 L347.598 106.438 L350.047 106.438 L350.047 107.275 L347.598 107.275 L347.598 110.838 Q347.598 111.564 347.873 111.852 Q348.148 112.139 348.834 112.139 L350.047 112.139 L350.047 113 L348.729 113 Q347.516 113 347.018 112.514 Q346.52 112.027 346.52 110.838 L346.52 107.275 L344.768 107.275 L344.768 106.438 L346.52 106.438 L346.52 104.574 Z M357.787 109.18 L357.787 109.707 L353.117 109.707 L353.117 109.742 Q353.07 111.084 353.63 111.67 Q354.189 112.256 355.209 112.256 Q355.725 112.256 356.287 112.092 Q356.85 111.928 357.488 111.594 L357.488 112.666 Q356.873 112.918 356.302 113.044 Q355.73 113.17 355.197 113.17 Q353.668 113.17 352.807 112.253 Q351.945 111.336 351.945 109.725 Q351.945 108.154 352.789 107.217 Q353.633 106.279 355.039 106.279 Q356.293 106.279 357.017 107.129 Q357.74 107.979 357.787 109.18 Z M356.709 108.863 Q356.639 108.184 356.214 107.688 Q355.789 107.193 354.992 107.193 Q354.213 107.193 353.709 107.709 Q353.205 108.225 353.158 108.869 Z M365 106.438 L362.65 109.578 L365.229 113 L363.98 113 L362.059 110.369 L360.143 113 L358.895 113 L361.473 109.578 L359.123 106.438 L360.318 106.438 L362.059 108.811 L363.787 106.438 Z M369.271 104.574 L369.271 106.438 L371.721 106.438 L371.721 107.275 L369.271 107.275 L369.271 110.838 Q369.271 111.564 369.547 111.852 Q369.822 112.139 370.508 112.139 L371.721 112.139 L371.721 113 L370.402 113 Q369.189 113 368.691 112.514 Q368.193 112.027 368.193 110.838 L368.193 107.275 L366.441 107.275 L366.441 106.438 L368.193 106.438 L368.193 104.574 Z" fill="#8C8478" fill-opacity="1"/>
<path d="M227 29 L227 123 C227 125.761 229.239 128 232 128 L381 128 C383.761 128 386 125.761 386 123 L386 29 C386 26.239 383.761 24 381 24 L232 24 C229.239 24 227 26.239 227 29 Z" fill="none" stroke="#E6DFD2" stroke-opacity="1" stroke-width="1" stroke-linecap="square" stroke-linejoin="miter"/>
<path d="M14 208 L14 312 C14 317.523 18.477 322 24 322 L176 322 C181.523 322 186 317.523 186 312 L186 208 C186 202.477 181.523 198 176 198 L24 198 C18.477 198 14 202.477 14 208 Z" fill="#B1512D" fill-opacity="0.004"/>
<path d="M16 209 L16 311 C16 315.971 20.029 320 25 320 L175 320 C179.971 320 184 315.971 184 311 L184 209 C184 204.029 179.971 200 175 200 L25 200 C20.029 200 16 204.029 16 209 Z" fill="#B1512D" fill-opacity="0.012"/>
<path d="M18 210 L18 310 C18 314.418 21.582 318 26 318 L174 318 C178.418 318 182 314.418 182 310 L182 210 C182 205.582 178.418 202 174 202 L26 202 C21.582 202 18 205.582 18 210 Z" fill="#B1512D" fill-opacity="0.02"/>
<path d="M20 211 L20 309 C20 312.866 23.134 316 27 316 L173 316 C176.866 316 180 312.866 180 309 L180 211 C180 207.134 176.866 204 173 204 L27 204 C23.134 204 20 207.134 20 211 Z" fill="#B1512D" fill-opacity="0.024"/>
<path d="M22 212 L22 308 C22 311.314 24.686 314 28 314 L172 314 C175.314 314 178 311.314 178 308 L178 212 C178 208.686 175.314 206 172 206 L28 206 C24.686 206 22 208.686 22 212 Z" fill="#B1512D" fill-opacity="0.031"/>
<path d="M18 212 L18 312 C18 316.418 21.582 320 26 320 L174 320 C178.418 320 182 316.418 182 312 L182 212 C182 207.582 178.418 204 174 204 L26 204 C21.582 204 18 207.582 18 212 Z" fill="#000000" fill-opacity="0.024"/>
<path d="M19 212.5 L19 311.5 C19 315.642 22.358 319 26.5 319 L173.5 319 C177.642 319 181 315.642 181 311.5 L181 212.5 C181 208.358 177.642 205 173.5 205 L26.5 205 C22.358 205 19 208.358 19 212.5 Z" fill="#000000" fill-opacity="0.024"/>
<path d="M20 213 L20 311 C20 314.866 23.134 318 27 318 L173 318 C176.866 318 180 314.866 180 311 L180 213 C180 209.134 176.866 206 173 206 L27 206 C23.134 206 20 209.134 20 213 Z" fill="#000000" fill-opacity="0.024"/>
<path d="M21 213.5 L21 310.5 C21 314.09 23.91 317 27.5 317 L172.5 317 C176.09 317 179 314.09 179 310.5 L179 213.5 C179 209.91 176.09 207 172.5 207 L27.5 207 C23.91 207 21 209.91 21 213.5 Z" fill="#000000" fill-opacity="0.024"/>
<path d="M22 214 L22 310 C22 313.314 24.686 316 28 316 L172 316 C175.314 316 178 313.314 178 310 L178 214 C178 210.686 175.314 208 172 208 L28 208 C24.686 208 22 210.686 22 214 Z" fill="#000000" fill-opacity="0.024"/>
<path d="M23 214.5 L23 309.5 C23 312.538 25.462 315 28.5 315 L171.5 315 C174.538 315 177 312.538 177 309.5 L177 214.5 C177 211.462 174.538 209 171.5 209 L28.5 209 C25.462 209 23 211.462 23 214.5 Z" fill="#000000" fill-opacity="0.024"/>
<path d="M24 213 L24 307 C24 309.761 26.239 312 29 312 L171 312 C173.761 312 176 309.761 176 307 L176 213 C176 210.239 173.761 208 171 208 L29 208 C26.239 208 24 210.239 24 213 Z" fill="#FBF7F0" fill-opacity="1"/>
<path d="M24 213 L24 233 C24 235.761 26.239 238 29 238 L171 238 C173.761 238 176 235.761 176 233 L176 213 C176 210.239 173.761 208 171 208 L29 208 C26.239 208 24 210.239 24 213 Z" fill="#B1512D" fill-opacity="1"/>
<path d="M24 228 L176 228 L176 238 L24 238 L24 228 Z" fill="#B1512D" fill-opacity="1"/>
<path d="M39.174 231.507 L39.174 222.03 L41.053 222.03 L41.053 223.344 Q41.777 221.872 43.332 221.872 Q44.589 221.872 45.309 222.792 Q46.03 223.712 46.03 225.325 Q46.03 227.077 45.217 228.118 Q44.405 229.159 43.04 229.159 Q41.942 229.159 41.053 228.295 L41.053 231.507 Z M41.053 227.178 Q41.739 227.94 42.513 227.94 Q43.205 227.94 43.618 227.27 Q44.03 226.601 44.03 225.483 Q44.03 223.344 42.653 223.344 Q41.821 223.344 41.053 224.417 Z M47.788 229 L47.788 222.03 L49.667 222.03 L49.667 223.344 Q50.397 221.872 51.889 221.872 Q52.066 221.872 52.238 221.91 L52.238 223.585 Q51.838 223.439 51.495 223.439 Q50.372 223.439 49.667 224.576 L49.667 229 Z M56.624 229.159 Q54.993 229.159 54.031 228.172 Q53.069 227.185 53.069 225.515 Q53.069 223.827 54.037 222.849 Q55.005 221.872 56.668 221.872 Q58.338 221.872 59.306 222.849 Q60.274 223.827 60.274 225.502 Q60.274 227.216 59.303 228.188 Q58.332 229.159 56.624 229.159 Z M56.656 227.984 Q58.274 227.984 58.274 225.502 Q58.274 224.366 57.846 223.706 Q57.417 223.046 56.668 223.046 Q55.926 223.046 55.497 223.706 Q55.069 224.366 55.069 225.515 Q55.069 226.651 55.494 227.318 Q55.919 227.984 56.656 227.984 Z M66.387 229 L66.387 227.686 Q65.663 229.159 64.108 229.159 Q62.851 229.159 62.134 228.238 Q61.417 227.318 61.417 225.706 Q61.417 223.954 62.226 222.913 Q63.035 221.872 64.4 221.872 Q65.492 221.872 66.387 222.735 L66.387 218.977 L68.272 218.977 L68.272 229 Z M66.387 223.852 Q65.708 223.09 64.933 223.09 Q64.241 223.09 63.829 223.757 Q63.416 224.423 63.416 225.547 Q63.416 227.686 64.787 227.686 Q65.625 227.686 66.387 226.613 Z M74.924 229 L74.924 227.686 Q74.01 229.159 72.55 229.159 Q71.617 229.159 71.078 228.568 Q70.538 227.978 70.538 226.956 L70.538 222.03 L72.417 222.03 L72.417 226.493 Q72.417 227.68 73.21 227.68 Q74.099 227.68 74.924 226.417 L74.924 222.03 L76.803 222.03 L76.803 229 Z M84.293 228.848 Q83.125 229.159 82.129 229.159 Q80.459 229.159 79.491 228.178 Q78.523 227.197 78.523 225.509 Q78.523 223.801 79.52 222.836 Q80.517 221.872 82.275 221.872 Q83.125 221.872 84.236 222.145 L84.236 223.503 Q83.081 223.128 82.389 223.128 Q81.545 223.128 81.031 223.776 Q80.517 224.423 80.517 225.496 Q80.517 226.594 81.072 227.254 Q81.627 227.915 82.554 227.915 Q83.398 227.915 84.293 227.546 Z M89.664 228.962 Q88.991 229.159 88.604 229.159 Q86.16 229.159 86.16 226.874 L86.16 223.205 L85.379 223.205 L85.379 222.03 L86.16 222.03 L86.16 220.856 L88.039 220.64 L88.039 222.03 L89.53 222.03 L89.53 223.205 L88.039 223.205 L88.039 226.626 Q88.039 227.908 89.086 227.908 Q89.327 227.908 89.664 227.819 Z M91.155 228.778 L91.155 227.4 Q92.552 227.984 93.542 227.984 Q94.697 227.984 94.697 227.197 Q94.697 226.689 93.745 226.309 L93.11 226.055 Q92.076 225.636 91.631 225.153 Q91.187 224.671 91.187 223.96 Q91.187 222.97 91.942 222.421 Q92.698 221.872 94.056 221.872 Q94.907 221.872 96.081 222.119 L96.081 223.439 Q94.951 223.046 94.208 223.046 Q93.041 223.046 93.041 223.77 Q93.041 224.246 93.904 224.576 L94.45 224.785 Q95.675 225.249 96.154 225.725 Q96.633 226.201 96.633 226.95 Q96.633 227.934 95.818 228.546 Q95.002 229.159 93.694 229.159 Q92.438 229.159 91.155 228.778 Z" fill="#FFFFFF" fill-opacity="1"/>
<path d="M152 218 L164 218 L164 228 L152 228 L152 218 Z" fill="none" stroke="#FFFFFF" stroke-opacity="1" stroke-width="1.3" stroke-linecap="square" stroke-linejoin="miter"/>
<path d="M152 222 L164 222" fill="none" stroke="#FFFFFF" stroke-opacity="1" stroke-width="1.3" stroke-linecap="square" stroke-linejoin="miter"/>
<path d="M158 222 L158 228" fill="none" stroke="#FFFFFF" stroke-opacity="1" stroke-width="1.3" stroke-linecap="square" stroke-linejoin="miter"/>
<path d="M42 249 C42 250.657 40.657 252 39 252 C37.343 252 36 250.657 36 249 C36 247.343 37.343 246 39 246 C40.657 246 42 247.343 42 249 Z" fill="#B1512D" fill-opacity="1"/>
<path d="M42 249 L48 249" fill="none" stroke="#B1512D" stroke-opacity="1" stroke-width="1.3" stroke-linecap="square" stroke-linejoin="miter"/>
<path d="M48 249 L48 252" fill="none" stroke="#B1512D" stroke-opacity="1" stroke-width="1.3" stroke-linecap="square" stroke-linejoin="miter"/>
<path d="M45 249 L45 252" fill="none" stroke="#B1512D" stroke-opacity="1" stroke-width="1.3" stroke-linecap="square" stroke-linejoin="miter"/>
<path d="M55.852 246.461 L58.611 246.461 L58.611 252.162 L60.75 252.162 L60.75 253 L55.395 253 L55.395 252.162 L57.533 252.162 L57.533 247.299 L55.852 247.299 Z M57.533 243.912 L58.611 243.912 L58.611 245.271 L57.533 245.271 Z M66.252 247.275 L66.252 243.883 L67.33 243.883 L67.33 253 L66.252 253 L66.252 252.174 Q65.982 252.66 65.534 252.915 Q65.086 253.17 64.5 253.17 Q63.311 253.17 62.628 252.247 Q61.945 251.324 61.945 249.701 Q61.945 248.102 62.631 247.19 Q63.316 246.279 64.5 246.279 Q65.092 246.279 65.543 246.534 Q65.994 246.789 66.252 247.275 Z M63.082 249.725 Q63.082 250.979 63.48 251.617 Q63.879 252.256 64.658 252.256 Q65.438 252.256 65.845 251.611 Q66.252 250.967 66.252 249.725 Q66.252 248.477 65.845 247.835 Q65.438 247.193 64.658 247.193 Q63.879 247.193 63.48 247.832 Q63.082 248.471 63.082 249.725 Z" fill="#B1512D" fill-opacity="1"/>
<path d="M135.143 250.516 L135.143 246.449 L136.221 246.449 L136.221 250.516 Q136.221 251.4 136.534 251.816 Q136.848 252.232 137.504 252.232 Q138.266 252.232 138.67 251.696 Q139.074 251.16 139.074 250.158 L139.074 246.449 L140.158 246.449 L140.158 253 L139.074 253 L139.074 252.016 Q138.787 252.584 138.292 252.877 Q137.797 253.17 137.135 253.17 Q136.127 253.17 135.635 252.511 Q135.143 251.852 135.143 250.516 Z M142.367 250.516 L142.367 246.449 L143.445 246.449 L143.445 250.516 Q143.445 251.4 143.759 251.816 Q144.072 252.232 144.729 252.232 Q145.49 252.232 145.895 251.696 Q146.299 251.16 146.299 250.158 L146.299 246.449 L147.383 246.449 L147.383 253 L146.299 253 L146.299 252.016 Q146.012 252.584 145.517 252.877 Q145.021 253.17 144.359 253.17 Q143.352 253.17 142.859 252.511 Q142.367 251.852 142.367 250.516 Z M150.301 246.461 L153.061 246.461 L153.061 252.162 L155.199 252.162 L155.199 253 L149.844 253 L149.844 252.162 L151.982 252.162 L151.982 247.299 L150.301 247.299 Z M151.982 243.912 L153.061 243.912 L153.061 245.271 L151.982 245.271 Z M160.701 247.275 L160.701 243.883 L161.779 243.883 L161.779 253 L160.701 253 L160.701 252.174 Q160.432 252.66 159.983 252.915 Q159.535 253.17 158.949 253.17 Q157.76 253.17 157.077 252.247 Q156.395 251.324 156.395 249.701 Q156.395 248.102 157.08 247.19 Q157.766 246.279 158.949 246.279 Q159.541 246.279 159.992 246.534 Q160.443 246.789 160.701 247.275 Z M157.531 249.725 Q157.531 250.979 157.93 251.617 Q158.328 252.256 159.107 252.256 Q159.887 252.256 160.294 251.611 Q160.701 250.967 160.701 249.725 Q160.701 248.477 160.294 247.835 Q159.887 247.193 159.107 247.193 Q158.328 247.193 157.93 247.832 Q157.531 248.471 157.531 249.725 Z" fill="#8C8478" fill-opacity="1"/>
<path d="M60.158 270.934 L60.158 275 L59.074 275 L59.074 270.934 Q59.074 270.049 58.764 269.633 Q58.453 269.217 57.791 269.217 Q57.035 269.217 56.628 269.753 Q56.221 270.289 56.221 271.291 L56.221 275 L55.143 275 L55.143 268.438 L56.221 268.438 L56.221 269.422 Q56.508 268.859 57 268.569 Q57.492 268.279 58.166 268.279 Q59.168 268.279 59.663 268.938 Q60.158 269.598 60.158 270.934 Z M65.338 271.701 L64.98 271.701 Q64.037 271.701 63.56 272.032 Q63.082 272.363 63.082 273.02 Q63.082 273.611 63.439 273.939 Q63.797 274.268 64.43 274.268 Q65.32 274.268 65.83 273.649 Q66.34 273.031 66.346 271.941 L66.346 271.701 Z M67.43 271.256 L67.43 275 L66.346 275 L66.346 274.027 Q66 274.613 65.476 274.892 Q64.951 275.17 64.201 275.17 Q63.199 275.17 62.602 274.604 Q62.004 274.039 62.004 273.09 Q62.004 271.994 62.739 271.426 Q63.475 270.857 64.898 270.857 L66.346 270.857 L66.346 270.688 Q66.34 269.902 65.947 269.548 Q65.555 269.193 64.693 269.193 Q64.143 269.193 63.58 269.352 Q63.018 269.51 62.484 269.814 L62.484 268.736 Q63.082 268.508 63.63 268.394 Q64.178 268.279 64.693 268.279 Q65.508 268.279 66.085 268.52 Q66.662 268.76 67.02 269.24 Q67.242 269.533 67.336 269.964 Q67.43 270.395 67.43 271.256 Z M72.41 269.105 Q72.609 268.684 72.917 268.481 Q73.225 268.279 73.658 268.279 Q74.449 268.279 74.774 268.892 Q75.1 269.504 75.1 271.197 L75.1 275 L74.115 275 L74.115 271.244 Q74.115 269.855 73.96 269.519 Q73.805 269.182 73.395 269.182 Q72.926 269.182 72.753 269.542 Q72.58 269.902 72.58 271.244 L72.58 275 L71.596 275 L71.596 271.244 Q71.596 269.838 71.429 269.51 Q71.262 269.182 70.828 269.182 Q70.4 269.182 70.233 269.542 Q70.066 269.902 70.066 271.244 L70.066 275 L69.088 275 L69.088 268.438 L70.066 268.438 L70.066 269 Q70.26 268.648 70.55 268.464 Q70.84 268.279 71.209 268.279 Q71.654 268.279 71.95 268.484 Q72.246 268.689 72.41 269.105 Z M82.236 271.18 L82.236 271.707 L77.566 271.707 L77.566 271.742 Q77.52 273.084 78.079 273.67 Q78.639 274.256 79.658 274.256 Q80.174 274.256 80.736 274.092 Q81.299 273.928 81.938 273.594 L81.938 274.666 Q81.322 274.918 80.751 275.044 Q80.18 275.17 79.646 275.17 Q78.117 275.17 77.256 274.253 Q76.395 273.336 76.395 271.725 Q76.395 270.154 77.238 269.217 Q78.082 268.279 79.488 268.279 Q80.742 268.279 81.466 269.129 Q82.189 269.979 82.236 271.18 Z M81.158 270.863 Q81.088 270.184 80.663 269.688 Q80.238 269.193 79.441 269.193 Q78.662 269.193 78.158 269.709 Q77.654 270.225 77.607 270.869 Z" fill="#2B2620" fill-opacity="1"/>
<path d="M137.598 266.574 L137.598 268.438 L140.047 268.438 L140.047 269.275 L137.598 269.275 L137.598 272.838 Q137.598 273.564 137.873 273.852 Q138.148 274.139 138.834 274.139 L140.047 274.139 L140.047 275 L138.729 275 Q137.516 275 137.018 274.514 Q136.52 274.027 136.52 272.838 L136.52 269.275 L134.768 269.275 L134.768 268.438 L136.52 268.438 L136.52 266.574 Z M147.787 271.18 L147.787 271.707 L143.117 271.707 L143.117 271.742 Q143.07 273.084 143.63 273.67 Q144.189 274.256 145.209 274.256 Q145.725 274.256 146.287 274.092 Q146.85 273.928 147.488 273.594 L147.488 274.666 Q146.873 274.918 146.302 275.044 Q145.73 275.17 145.197 275.17 Q143.668 275.17 142.807 274.253 Q141.945 273.336 141.945 271.725 Q141.945 270.154 142.789 269.217 Q143.633 268.279 145.039 268.279 Q146.293 268.279 147.017 269.129 Q147.74 269.979 147.787 271.18 Z M146.709 270.863 Q146.639 270.184 146.214 269.688 Q145.789 269.193 144.992 269.193 Q144.213 269.193 143.709 269.709 Q143.205 270.225 143.158 270.869 Z M155 268.438 L152.65 271.578 L155.229 275 L153.98 275 L152.059 272.369 L150.143 275 L148.895 275 L151.473 271.578 L149.123 268.438 L150.318 268.438 L152.059 270.811 L153.787 268.438 Z M159.271 266.574 L159.271 268.438 L161.721 268.438 L161.721 269.275 L159.271 269.275 L159.271 272.838 Q159.271 273.564 159.547 273.852 Q159.822 274.139 160.508 274.139 L161.721 274.139 L161.721 275 L160.402 275 Q159.189 275 158.691 274.514 Q158.193 274.027 158.193 272.838 L158.193 269.275 L156.441 269.275 L156.441 268.438 L158.193 268.438 L158.193 266.574 Z" fill="#8C8478" fill-opacity="1"/>
<path d="M56.197 296.174 L56.197 299.496 L55.113 299.496 L55.113 290.438 L56.197 290.438 L56.197 291.275 Q56.467 290.789 56.915 290.534 Q57.363 290.279 57.949 290.279 Q59.139 290.279 59.815 291.199 Q60.492 292.119 60.492 293.748 Q60.492 295.348 59.813 296.259 Q59.133 297.17 57.949 297.17 Q57.352 297.17 56.903 296.915 Q56.455 296.66 56.197 296.174 Z M59.361 293.725 Q59.361 292.471 58.966 291.832 Q58.57 291.193 57.791 291.193 Q57.006 291.193 56.602 291.835 Q56.197 292.477 56.197 293.725 Q56.197 294.967 56.602 295.611 Q57.006 296.256 57.791 296.256 Q58.57 296.256 58.966 295.617 Q59.361 294.979 59.361 293.725 Z M67.992 291.791 Q67.646 291.521 67.289 291.398 Q66.932 291.275 66.504 291.275 Q65.496 291.275 64.963 291.908 Q64.43 292.541 64.43 293.736 L64.43 297 L63.346 297 L63.346 290.438 L64.43 290.438 L64.43 291.721 Q64.699 291.023 65.259 290.651 Q65.818 290.279 66.586 290.279 Q66.984 290.279 67.33 290.379 Q67.676 290.479 67.992 290.689 Z M70.301 290.461 L73.061 290.461 L73.061 296.162 L75.199 296.162 L75.199 297 L69.844 297 L69.844 296.162 L71.982 296.162 L71.982 291.299 L70.301 291.299 Z M71.982 287.912 L73.061 287.912 L73.061 289.271 L71.982 289.271 Z M81.891 296.666 Q81.457 296.918 80.997 297.044 Q80.537 297.17 80.057 297.17 Q78.533 297.17 77.675 296.256 Q76.816 295.342 76.816 293.725 Q76.816 292.107 77.675 291.193 Q78.533 290.279 80.057 290.279 Q80.531 290.279 80.982 290.402 Q81.434 290.525 81.891 290.783 L81.891 291.914 Q81.463 291.533 81.032 291.363 Q80.602 291.193 80.057 291.193 Q79.043 291.193 78.498 291.85 Q77.953 292.506 77.953 293.725 Q77.953 294.938 78.501 295.597 Q79.049 296.256 80.057 296.256 Q80.619 296.256 81.064 296.083 Q81.51 295.91 81.891 295.547 Z M89.461 293.18 L89.461 293.707 L84.791 293.707 L84.791 293.742 Q84.744 295.084 85.304 295.67 Q85.863 296.256 86.883 296.256 Q87.398 296.256 87.961 296.092 Q88.523 295.928 89.162 295.594 L89.162 296.666 Q88.547 296.918 87.976 297.044 Q87.404 297.17 86.871 297.17 Q85.342 297.17 84.48 296.253 Q83.619 295.336 83.619 293.725 Q83.619 292.154 84.463 291.217 Q85.307 290.279 86.713 290.279 Q87.967 290.279 88.69 291.129 Q89.414 291.979 89.461 293.18 Z M88.383 292.863 Q88.313 292.184 87.888 291.688 Q87.463 291.193 86.666 291.193 Q85.887 291.193 85.383 291.709 Q84.879 292.225 84.832 292.869 Z" fill="#2B2620" fill-opacity="1"/>
<path d="M118.027 291.275 L118.027 287.883 L119.105 287.883 L119.105 297 L118.027 297 L118.027 296.174 Q117.758 296.66 117.31 296.915 Q116.861 297.17 116.275 297.17 Q115.086 297.17 114.403 296.247 Q113.721 295.324 113.721 293.701 Q113.721 292.102 114.406 291.19 Q115.092 290.279 116.275 290.279 Q116.867 290.279 117.318 290.534 Q117.77 290.789 118.027 291.275 Z M114.857 293.725 Q114.857 294.979 115.256 295.617 Q115.654 296.256 116.434 296.256 Q117.213 296.256 117.62 295.611 Q118.027 294.967 118.027 293.725 Q118.027 292.477 117.62 291.835 Q117.213 291.193 116.434 291.193 Q115.654 291.193 115.256 291.832 Q114.857 292.471 114.857 293.725 Z M126.787 293.18 L126.787 293.707 L122.117 293.707 L122.117 293.742 Q122.07 295.084 122.63 295.67 Q123.189 296.256 124.209 296.256 Q124.725 296.256 125.287 296.092 Q125.85 295.928 126.488 295.594 L126.488 296.666 Q125.873 296.918 125.302 297.044 Q124.73 297.17 124.197 297.17 Q122.668 297.17 121.807 296.253 Q120.945 295.336 120.945 293.725 Q120.945 292.154 121.789 291.217 Q122.633 290.279 124.039 290.279 Q125.293 290.279 126.017 291.129 Q126.74 291.979 126.787 293.18 Z M125.709 292.863 Q125.639 292.184 125.214 291.688 Q124.789 291.193 123.992 291.193 Q123.213 291.193 122.709 291.709 Q122.205 292.225 122.158 292.869 Z M133.666 296.666 Q133.232 296.918 132.772 297.044 Q132.313 297.17 131.832 297.17 Q130.309 297.17 129.45 296.256 Q128.592 295.342 128.592 293.725 Q128.592 292.107 129.45 291.193 Q130.309 290.279 131.832 290.279 Q132.307 290.279 132.758 290.402 Q133.209 290.525 133.666 290.783 L133.666 291.914 Q133.238 291.533 132.808 291.363 Q132.377 291.193 131.832 291.193 Q130.818 291.193 130.273 291.85 Q129.729 292.506 129.729 293.725 Q129.729 294.938 130.276 295.597 Q130.824 296.256 131.832 296.256 Q132.395 296.256 132.84 296.083 Q133.285 295.91 133.666 295.547 Z M136.525 290.461 L139.285 290.461 L139.285 296.162 L141.424 296.162 L141.424 297 L136.068 297 L136.068 296.162 L138.207 296.162 L138.207 291.299 L136.525 291.299 Z M138.207 287.912 L139.285 287.912 L139.285 289.271 L138.207 289.271 Z M145.859 291.105 Q146.059 290.684 146.366 290.481 Q146.674 290.279 147.107 290.279 Q147.898 290.279 148.224 290.892 Q148.549 291.504 148.549 293.197 L148.549 297 L147.564 297 L147.564 293.244 Q147.564 291.855 147.409 291.519 Q147.254 291.182 146.844 291.182 Q146.375 291.182 146.202 291.542 Q146.029 291.902 146.029 293.244 L146.029 297 L145.045 297 L145.045 293.244 Q145.045 291.838 144.878 291.51 Q144.711 291.182 144.277 291.182 Q143.85 291.182 143.683 291.542 Q143.516 291.902 143.516 293.244 L143.516 297 L142.537 297 L142.537 290.438 L143.516 290.438 L143.516 291 Q143.709 290.648 143.999 290.464 Q144.289 290.279 144.658 290.279 Q145.104 290.279 145.399 290.484 Q145.695 290.689 145.859 291.105 Z M153.236 293.701 L152.879 293.701 Q151.936 293.701 151.458 294.032 Q150.98 294.363 150.98 295.02 Q150.98 295.611 151.338 295.939 Q151.695 296.268 152.328 296.268 Q153.219 296.268 153.729 295.649 Q154.238 295.031 154.244 293.941 L154.244 293.701 Z M155.328 293.256 L155.328 297 L154.244 297 L154.244 296.027 Q153.898 296.613 153.374 296.892 Q152.85 297.17 152.1 297.17 Q151.098 297.17 150.5 296.604 Q149.902 296.039 149.902 295.09 Q149.902 293.994 150.638 293.426 Q151.373 292.857 152.797 292.857 L154.244 292.857 L154.244 292.688 Q154.238 291.902 153.846 291.548 Q153.453 291.193 152.592 291.193 Q152.041 291.193 151.479 291.352 Q150.916 291.51 150.383 291.814 L150.383 290.736 Q150.98 290.508 151.528 290.394 Q152.076 290.279 152.592 290.279 Q153.406 290.279 153.983 290.52 Q154.561 290.76 154.918 291.24 Q155.141 291.533 155.234 291.964 Q155.328 292.395 155.328 293.256 Z M160.561 294.627 Q160.561 295.354 160.827 295.723 Q161.094 296.092 161.615 296.092 L162.875 296.092 L162.875 297 L161.51 297 Q160.543 297 160.013 296.382 Q159.482 295.764 159.482 294.627 L159.482 288.691 L157.754 288.691 L157.754 287.848 L160.561 287.848 Z" fill="#8C8478" fill-opacity="1"/>
<path d="M24 213 L24 307 C24 309.761 26.239 312 29 312 L171 312 C173.761 312 176 309.761 176 307 L176 213 C176 210.239 173.761 208 171 208 L29 208 C26.239 208 24 210.239 24 213 Z" fill="none" stroke="#E6DFD2" stroke-opacity="1" stroke-width="1" stroke-linecap="square" stroke-linejoin="miter"/>
<path d="M198 202 L198 318 C198 326.837 205.163 334 214 334 L399 334 C407.837 334 415 326.837 415 318 L415 202 C415 193.163 407.837 186 399 186 L214 186 C205.163 186 198 193.163 198 202 Z" fill="#B1512D" fill-opacity="0.024"/>
<path d="M203 204.5 L203 315.5 C203 322.956 209.044 329 216.5 329 L396.5 329 C403.956 329 410 322.956 410 315.5 L410 204.5 C410 197.044 403.956 191 396.5 191 L216.5 191 C209.044 191 203 197.044 203 204.5 Z" fill="#B1512D" fill-opacity="0.047"/>
<path d="M207 206.5 L207 313.5 C207 319.851 212.149 325 218.5 325 L394.5 325 C400.851 325 406 319.851 406 313.5 L406 206.5 C406 200.149 400.851 195 394.5 195 L218.5 195 C212.149 195 207 200.149 207 206.5 Z" fill="#B1512D" fill-opacity="0.071"/>
<path d="M212 209 L212 311 C212 315.971 216.029 320 221 320 L392 320 C396.971 320 401 315.971 401 311 L401 209 C401 204.029 396.971 200 392 200 L221 200 C216.029 200 212 204.029 212 209 Z" fill="#B1512D" fill-opacity="0.094"/>
<path d="M216 211 L216 309 C216 312.866 219.134 316 223 316 L390 316 C393.866 316 397 312.866 397 309 L397 211 C397 207.134 393.866 204 390 204 L223 204 C219.134 204 216 207.134 216 211 Z" fill="#B1512D" fill-opacity="0.118"/>
<path d="M214 212 L214 312 C214 316.418 217.582 320 222 320 L391 320 C395.418 320 399 316.418 399 312 L399 212 C399 207.582 395.418 204 391 204 L222 204 C217.582 204 214 207.582 214 212 Z" fill="#000000" fill-opacity="0.024"/>
<path d="M215 212.5 L215 311.5 C215 315.642 218.358 319 222.5 319 L390.5 319 C394.642 319 398 315.642 398 311.5 L398 212.5 C398 208.358 394.642 205 390.5 205 L222.5 205 C218.358 205 215 208.358 215 212.5 Z" fill="#000000" fill-opacity="0.024"/>
<path d="M216 213 L216 311 C216 314.866 219.134 318 223 318 L390 318 C393.866 318 397 314.866 397 311 L397 213 C397 209.134 393.866 206 390 206 L223 206 C219.134 206 216 209.134 216 213 Z" fill="#000000" fill-opacity="0.024"/>
<path d="M217 213.5 L217 310.5 C217 314.09 219.91 317 223.5 317 L389.5 317 C393.09 317 396 314.09 396 310.5 L396 213.5 C396 209.91 393.09 207 389.5 207 L223.5 207 C219.91 207 217 209.91 217 213.5 Z" fill="#000000" fill-opacity="0.024"/>
<path d="M218 214 L218 310 C218 313.314 220.686 316 224 316 L389 316 C392.314 316 395 313.314 395 310 L395 214 C395 210.686 392.314 208 389 208 L224 208 C220.686 208 218 210.686 218 214 Z" fill="#000000" fill-opacity="0.024"/>
<path d="M219 214.5 L219 309.5 C219 312.538 221.462 315 224.5 315 L388.5 315 C391.538 315 394 312.538 394 309.5 L394 214.5 C394 211.462 391.538 209 388.5 209 L224.5 209 C221.462 209 219 211.462 219 214.5 Z" fill="#000000" fill-opacity="0.024"/>
<path d="M220 213 L220 307 C220 309.761 222.239 312 225 312 L388 312 C390.761 312 393 309.761 393 307 L393 213 C393 210.239 390.761 208 388 208 L225 208 C222.239 208 220 210.239 220 213 Z" fill="#FBF7F0" fill-opacity="1"/>
<path d="M220 213 L220 233 C220 235.761 222.239 238 225 238 L388 238 C390.761 238 393 235.761 393 233 L393 213 C393 210.239 390.761 208 388 208 L225 208 C222.239 208 220 210.239 220 213 Z" fill="#B1512D" fill-opacity="1"/>
<path d="M220 228 L393 228 L393 238 L220 238 L220 228 Z" fill="#B1512D" fill-opacity="1"/>
<path d="M238.101 229.159 Q236.469 229.159 235.508 228.172 Q234.546 227.185 234.546 225.515 Q234.546 223.827 235.514 222.849 Q236.482 221.872 238.145 221.872 Q239.814 221.872 240.782 222.849 Q241.75 223.827 241.75 225.502 Q241.75 227.216 240.779 228.188 Q239.808 229.159 238.101 229.159 Z M238.132 227.984 Q239.751 227.984 239.751 225.502 Q239.751 224.366 239.323 223.706 Q238.894 223.046 238.145 223.046 Q237.402 223.046 236.974 223.706 Q236.545 224.366 236.545 225.515 Q236.545 226.651 236.971 227.318 Q237.396 227.984 238.132 227.984 Z M243.477 229 L243.477 222.03 L245.356 222.03 L245.356 223.344 Q246.086 221.872 247.578 221.872 Q247.755 221.872 247.927 221.91 L247.927 223.585 Q247.527 223.439 247.184 223.439 Q246.061 223.439 245.356 224.576 L245.356 229 Z M253.773 229 L253.773 227.686 Q253.049 229.159 251.494 229.159 Q250.237 229.159 249.52 228.238 Q248.803 227.318 248.803 225.706 Q248.803 223.954 249.612 222.913 Q250.421 221.872 251.786 221.872 Q252.878 221.872 253.773 222.735 L253.773 218.977 L255.658 218.977 L255.658 229 Z M253.773 223.852 Q253.094 223.09 252.319 223.09 Q251.627 223.09 251.215 223.757 Q250.802 224.423 250.802 225.547 Q250.802 227.686 252.173 227.686 Q253.011 227.686 253.773 226.613 Z M263.675 228.765 Q262.336 229.159 261.136 229.159 Q259.391 229.159 258.381 228.168 Q257.372 227.178 257.372 225.464 Q257.372 223.846 258.296 222.859 Q259.219 221.872 260.736 221.872 Q262.266 221.872 262.971 222.836 Q263.675 223.801 263.675 225.89 L259.353 225.89 Q259.543 227.883 261.542 227.883 Q262.488 227.883 263.675 227.445 Z M259.327 224.83 L261.828 224.83 Q261.828 223.046 260.679 223.046 Q259.511 223.046 259.327 224.83 Z M265.618 229 L265.618 222.03 L267.497 222.03 L267.497 223.344 Q268.227 221.872 269.718 221.872 Q269.896 221.872 270.067 221.91 L270.067 223.585 Q269.667 223.439 269.325 223.439 Q268.201 223.439 267.497 224.576 L267.497 229 Z M271.343 228.778 L271.343 227.4 Q272.74 227.984 273.73 227.984 Q274.885 227.984 274.885 227.197 Q274.885 226.689 273.933 226.309 L273.298 226.055 Q272.264 225.636 271.819 225.153 Q271.375 224.671 271.375 223.96 Q271.375 222.97 272.13 222.421 Q272.886 221.872 274.244 221.872 Q275.095 221.872 276.269 222.119 L276.269 223.439 Q275.139 223.046 274.396 223.046 Q273.229 223.046 273.229 223.77 Q273.229 224.246 274.092 224.576 L274.638 224.785 Q275.863 225.249 276.342 225.725 Q276.821 226.201 276.821 226.95 Q276.821 227.934 276.006 228.546 Q275.19 229.159 273.882 229.159 Q272.625 229.159 271.343 228.778 Z" fill="#FFFFFF" fill-opacity="1"/>
<path d="M369 218 L381 218 L381 228 L369 228 L369 218 Z" fill="none" stroke="#FFFFFF" stroke-opacity="1" stroke-width="1.3" stroke-linecap="square" stroke-linejoin="miter"/>
<path d="M369 222 L381 222" fill="none" stroke="#FFFFFF" stroke-opacity="1" stroke-width="1.3" stroke-linecap="square" stroke-linejoin="miter"/>
<path d="M375 222 L375 228" fill="none" stroke="#FFFFFF" stroke-opacity="1" stroke-width="1.3" stroke-linecap="square" stroke-linejoin="miter"/>
<path d="M238 249 C238 250.657 236.657 252 235 252 C233.343 252 232 250.657 232 249 C232 247.343 233.343 246 235 246 C236.657 246 238 247.343 238 249 Z" fill="#B1512D" fill-opacity="1"/>
<path d="M238 249 L244 249" fill="none" stroke="#B1512D" stroke-opacity="1" stroke-width="1.3" stroke-linecap="square" stroke-linejoin="miter"/>
<path d="M244 249 L244 252" fill="none" stroke="#B1512D" stroke-opacity="1" stroke-width="1.3" stroke-linecap="square" stroke-linejoin="miter"/>
<path d="M241 249 L241 252" fill="none" stroke="#B1512D" stroke-opacity="1" stroke-width="1.3" stroke-linecap="square" stroke-linejoin="miter"/>
<path d="M251.852 246.461 L254.611 246.461 L254.611 252.162 L256.75 252.162 L256.75 253 L251.395 253 L251.395 252.162 L253.533 252.162 L253.533 247.299 L251.852 247.299 Z M253.533 243.912 L254.611 243.912 L254.611 245.271 L253.533 245.271 Z M262.252 247.275 L262.252 243.883 L263.33 243.883 L263.33 253 L262.252 253 L262.252 252.174 Q261.982 252.66 261.534 252.915 Q261.086 253.17 260.5 253.17 Q259.311 253.17 258.628 252.247 Q257.945 251.324 257.945 249.701 Q257.945 248.102 258.631 247.19 Q259.316 246.279 260.5 246.279 Q261.092 246.279 261.543 246.534 Q261.994 246.789 262.252 247.275 Z M259.082 249.725 Q259.082 250.979 259.48 251.617 Q259.879 252.256 260.658 252.256 Q261.438 252.256 261.845 251.611 Q262.252 250.967 262.252 249.725 Q262.252 248.477 261.845 247.835 Q261.438 247.193 260.658 247.193 Q259.879 247.193 259.48 247.832 Q259.082 248.471 259.082 249.725 Z" fill="#B1512D" fill-opacity="1"/>
<path d="M352.143 250.516 L352.143 246.449 L353.221 246.449 L353.221 250.516 Q353.221 251.4 353.534 251.816 Q353.848 252.232 354.504 252.232 Q355.266 252.232 355.67 251.696 Q356.074 251.16 356.074 250.158 L356.074 246.449 L357.158 246.449 L357.158 253 L356.074 253 L356.074 252.016 Q355.787 252.584 355.292 252.877 Q354.797 253.17 354.135 253.17 Q353.127 253.17 352.635 252.511 Q352.143 251.852 352.143 250.516 Z M359.367 250.516 L359.367 246.449 L360.445 246.449 L360.445 250.516 Q360.445 251.4 360.759 251.816 Q361.072 252.232 361.729 252.232 Q362.49 252.232 362.895 251.696 Q363.299 251.16 363.299 250.158 L363.299 246.449 L364.383 246.449 L364.383 253 L363.299 253 L363.299 252.016 Q363.012 252.584 362.517 252.877 Q362.021 253.17 361.359 253.17 Q360.352 253.17 359.859 252.511 Q359.367 251.852 359.367 250.516 Z M367.301 246.461 L370.061 246.461 L370.061 252.162 L372.199 252.162 L372.199 253 L366.844 253 L366.844 252.162 L368.982 252.162 L368.982 247.299 L367.301 247.299 Z M368.982 243.912 L370.061 243.912 L370.061 245.271 L368.982 245.271 Z M377.701 247.275 L377.701 243.883 L378.779 243.883 L378.779 253 L377.701 253 L377.701 252.174 Q377.432 252.66 376.983 252.915 Q376.535 253.17 375.949 253.17 Q374.76 253.17 374.077 252.247 Q373.395 251.324 373.395 249.701 Q373.395 248.102 374.08 247.19 Q374.766 246.279 375.949 246.279 Q376.541 246.279 376.992 246.534 Q377.443 246.789 377.701 247.275 Z M374.531 249.725 Q374.531 250.979 374.93 251.617 Q375.328 252.256 376.107 252.256 Q376.887 252.256 377.294 251.611 Q377.701 250.967 377.701 249.725 Q377.701 248.477 377.294 247.835 Q376.887 247.193 376.107 247.193 Q375.328 247.193 374.93 247.832 Q374.531 248.471 374.531 249.725 Z" fill="#8C8478" fill-opacity="1"/>
<path d="M238 271 C238 272.657 236.657 274 235 274 C233.343 274 232 272.657 232 271 C232 269.343 233.343 268 235 268 C236.657 268 238 269.343 238 271 Z" fill="none" stroke="#DAAC98" stroke-opacity="1" stroke-width="1.3" stroke-linecap="square" stroke-linejoin="miter"/>
<path d="M238 271 L244 271" fill="none" stroke="#DAAC98" stroke-opacity="1" stroke-width="1.3" stroke-linecap="square" stroke-linejoin="miter"/>
<path d="M244 271 L244 274" fill="none" stroke="#DAAC98" stroke-opacity="1" stroke-width="1.3" stroke-linecap="square" stroke-linejoin="miter"/>
<path d="M241 271 L241 274" fill="none" stroke="#DAAC98" stroke-opacity="1" stroke-width="1.3" stroke-linecap="square" stroke-linejoin="miter"/>
<path d="M256.217 274.666 Q255.783 274.918 255.323 275.044 Q254.863 275.17 254.383 275.17 Q252.859 275.17 252.001 274.256 Q251.143 273.342 251.143 271.725 Q251.143 270.107 252.001 269.193 Q252.859 268.279 254.383 268.279 Q254.857 268.279 255.309 268.402 Q255.76 268.525 256.217 268.783 L256.217 269.914 Q255.789 269.533 255.358 269.363 Q254.928 269.193 254.383 269.193 Q253.369 269.193 252.824 269.85 Q252.279 270.506 252.279 271.725 Q252.279 272.938 252.827 273.597 Q253.375 274.256 254.383 274.256 Q254.945 274.256 255.391 274.083 Q255.836 273.91 256.217 273.547 Z M258.367 272.516 L258.367 268.449 L259.445 268.449 L259.445 272.516 Q259.445 273.4 259.759 273.816 Q260.072 274.232 260.729 274.232 Q261.49 274.232 261.895 273.696 Q262.299 273.16 262.299 272.158 L262.299 268.449 L263.383 268.449 L263.383 275 L262.299 275 L262.299 274.016 Q262.012 274.584 261.517 274.877 Q261.021 275.17 260.359 275.17 Q259.352 275.17 258.859 274.511 Q258.367 273.852 258.367 272.516 Z M270.15 268.666 L270.15 269.721 Q269.688 269.451 269.219 269.316 Q268.75 269.182 268.264 269.182 Q267.531 269.182 267.171 269.419 Q266.811 269.656 266.811 270.143 Q266.811 270.582 267.08 270.799 Q267.35 271.016 268.422 271.221 L268.855 271.303 Q269.658 271.455 270.071 271.912 Q270.484 272.369 270.484 273.102 Q270.484 274.074 269.793 274.622 Q269.102 275.17 267.871 275.17 Q267.385 275.17 266.852 275.067 Q266.318 274.965 265.697 274.76 L265.697 273.646 Q266.301 273.957 266.852 274.112 Q267.402 274.268 267.895 274.268 Q268.609 274.268 269.002 273.978 Q269.395 273.688 269.395 273.166 Q269.395 272.416 267.959 272.129 L267.912 272.117 L267.508 272.035 Q266.576 271.854 266.148 271.423 Q265.721 270.992 265.721 270.248 Q265.721 269.305 266.359 268.792 Q266.998 268.279 268.182 268.279 Q268.709 268.279 269.195 268.376 Q269.682 268.473 270.15 268.666 Z M275.271 266.574 L275.271 268.438 L277.721 268.438 L277.721 269.275 L275.271 269.275 L275.271 272.838 Q275.271 273.564 275.547 273.852 Q275.822 274.139 276.508 274.139 L277.721 274.139 L277.721 275 L276.402 275 Q275.189 275 274.691 274.514 Q274.193 274.027 274.193 272.838 L274.193 269.275 L272.441 269.275 L272.441 268.438 L274.193 268.438 L274.193 266.574 Z M282.508 269.193 Q281.688 269.193 281.266 269.832 Q280.844 270.471 280.844 271.725 Q280.844 272.973 281.266 273.614 Q281.688 274.256 282.508 274.256 Q283.334 274.256 283.756 273.614 Q284.178 272.973 284.178 271.725 Q284.178 270.471 283.756 269.832 Q283.334 269.193 282.508 269.193 Z M282.508 268.279 Q283.873 268.279 284.597 269.164 Q285.32 270.049 285.32 271.725 Q285.32 273.406 284.6 274.288 Q283.879 275.17 282.508 275.17 Q281.143 275.17 280.422 274.288 Q279.701 273.406 279.701 271.725 Q279.701 270.049 280.422 269.164 Q281.143 268.279 282.508 268.279 Z M290.084 269.105 Q290.283 268.684 290.591 268.481 Q290.898 268.279 291.332 268.279 Q292.123 268.279 292.448 268.892 Q292.773 269.504 292.773 271.197 L292.773 275 L291.789 275 L291.789 271.244 Q291.789 269.855 291.634 269.519 Q291.479 269.182 291.068 269.182 Q290.6 269.182 290.427 269.542 Q290.254 269.902 290.254 271.244 L290.254 275 L289.27 275 L289.27 271.244 Q289.27 269.838 289.103 269.51 Q288.936 269.182 288.502 269.182 Q288.074 269.182 287.907 269.542 Q287.74 269.902 287.74 271.244 L287.74 275 L286.762 275 L286.762 268.438 L287.74 268.438 L287.74 269 Q287.934 268.648 288.224 268.464 Q288.514 268.279 288.883 268.279 Q289.328 268.279 289.624 268.484 Q289.92 268.689 290.084 269.105 Z M299.91 271.18 L299.91 271.707 L295.24 271.707 L295.24 271.742 Q295.193 273.084 295.753 273.67 Q296.313 274.256 297.332 274.256 Q297.848 274.256 298.41 274.092 Q298.973 273.928 299.611 273.594 L299.611 274.666 Q298.996 274.918 298.425 275.044 Q297.854 275.17 297.32 275.17 Q295.791 275.17 294.93 274.253 Q294.068 273.336 294.068 271.725 Q294.068 270.154 294.912 269.217 Q295.756 268.279 297.162 268.279 Q298.416 268.279 299.14 269.129 Q299.863 269.979 299.91 271.18 Z M298.832 270.863 Q298.762 270.184 298.337 269.688 Q297.912 269.193 297.115 269.193 Q296.336 269.193 295.832 269.709 Q295.328 270.225 295.281 270.869 Z M307.34 269.791 Q306.994 269.521 306.637 269.398 Q306.279 269.275 305.852 269.275 Q304.844 269.275 304.311 269.908 Q303.777 270.541 303.777 271.736 L303.777 275 L302.693 275 L302.693 268.438 L303.777 268.438 L303.777 269.721 Q304.047 269.023 304.606 268.651 Q305.166 268.279 305.934 268.279 Q306.332 268.279 306.678 268.379 Q307.023 268.479 307.34 268.689 Z M314.969 276.113 L314.969 277.109 L307.797 277.109 L307.797 276.113 Z M316.873 268.461 L319.633 268.461 L319.633 274.162 L321.771 274.162 L321.771 275 L316.416 275 L316.416 274.162 L318.555 274.162 L318.555 269.299 L316.873 269.299 Z M318.555 265.912 L319.633 265.912 L319.633 267.271 L318.555 267.271 Z M327.273 269.275 L327.273 265.883 L328.352 265.883 L328.352 275 L327.273 275 L327.273 274.174 Q327.004 274.66 326.556 274.915 Q326.107 275.17 325.521 275.17 Q324.332 275.17 323.649 274.247 Q322.967 273.324 322.967 271.701 Q322.967 270.102 323.652 269.19 Q324.338 268.279 325.521 268.279 Q326.113 268.279 326.564 268.534 Q327.016 268.789 327.273 269.275 Z M324.104 271.725 Q324.104 272.979 324.502 273.617 Q324.9 274.256 325.68 274.256 Q326.459 274.256 326.866 273.611 Q327.273 272.967 327.273 271.725 Q327.273 270.477 326.866 269.835 Q326.459 269.193 325.68 269.193 Q324.9 269.193 324.502 269.832 Q324.104 270.471 324.104 271.725 Z" fill="#2B2620" fill-opacity="1"/>
<path d="M352.143 272.516 L352.143 268.449 L353.221 268.449 L353.221 272.516 Q353.221 273.4 353.534 273.816 Q353.848 274.232 354.504 274.232 Q355.266 274.232 355.67 273.696 Q356.074 273.16 356.074 272.158 L356.074 268.449 L357.158 268.449 L357.158 275 L356.074 275 L356.074 274.016 Q355.787 274.584 355.292 274.877 Q354.797 275.17 354.135 275.17 Q353.127 275.17 352.635 274.511 Q352.143 273.852 352.143 272.516 Z M359.367 272.516 L359.367 268.449 L360.445 268.449 L360.445 272.516 Q360.445 273.4 360.759 273.816 Q361.072 274.232 361.729 274.232 Q362.49 274.232 362.895 273.696 Q363.299 273.16 363.299 272.158 L363.299 268.449 L364.383 268.449 L364.383 275 L363.299 275 L363.299 274.016 Q363.012 274.584 362.517 274.877 Q362.021 275.17 361.359 275.17 Q360.352 275.17 359.859 274.511 Q359.367 273.852 359.367 272.516 Z M367.301 268.461 L370.061 268.461 L370.061 274.162 L372.199 274.162 L372.199 275 L366.844 275 L366.844 274.162 L368.982 274.162 L368.982 269.299 L367.301 269.299 Z M368.982 265.912 L370.061 265.912 L370.061 267.271 L368.982 267.271 Z M377.701 269.275 L377.701 265.883 L378.779 265.883 L378.779 275 L377.701 275 L377.701 274.174 Q377.432 274.66 376.983 274.915 Q376.535 275.17 375.949 275.17 Q374.76 275.17 374.077 274.247 Q373.395 273.324 373.395 271.701 Q373.395 270.102 374.08 269.19 Q374.766 268.279 375.949 268.279 Q376.541 268.279 376.992 268.534 Q377.443 268.789 377.701 269.275 Z M374.531 271.725 Q374.531 272.979 374.93 273.617 Q375.328 274.256 376.107 274.256 Q376.887 274.256 377.294 273.611 Q377.701 272.967 377.701 271.725 Q377.701 270.477 377.294 269.835 Q376.887 269.193 376.107 269.193 Q375.328 269.193 374.93 269.832 Q374.531 270.471 374.531 271.725 Z" fill="#8C8478" fill-opacity="1"/>
<path d="M253.598 288.574 L253.598 290.438 L256.047 290.438 L256.047 291.275 L253.598 291.275 L253.598 294.838 Q253.598 295.564 253.873 295.852 Q254.148 296.139 254.834 296.139 L256.047 296.139 L256.047 297 L254.729 297 Q253.516 297 253.018 296.514 Q252.52 296.027 252.52 294.838 L252.52 291.275 L250.768 291.275 L250.768 290.438 L252.52 290.438 L252.52 288.574 Z M260.834 291.193 Q260.014 291.193 259.592 291.832 Q259.17 292.471 259.17 293.725 Q259.17 294.973 259.592 295.614 Q260.014 296.256 260.834 296.256 Q261.66 296.256 262.082 295.614 Q262.504 294.973 262.504 293.725 Q262.504 292.471 262.082 291.832 Q261.66 291.193 260.834 291.193 Z M260.834 290.279 Q262.199 290.279 262.923 291.164 Q263.646 292.049 263.646 293.725 Q263.646 295.406 262.926 296.288 Q262.205 297.17 260.834 297.17 Q259.469 297.17 258.748 296.288 Q258.027 295.406 258.027 293.725 Q258.027 292.049 258.748 291.164 Q259.469 290.279 260.834 290.279 Z M268.047 288.574 L268.047 290.438 L270.496 290.438 L270.496 291.275 L268.047 291.275 L268.047 294.838 Q268.047 295.564 268.322 295.852 Q268.598 296.139 269.283 296.139 L270.496 296.139 L270.496 297 L269.178 297 Q267.965 297 267.467 296.514 Q266.969 296.027 266.969 294.838 L266.969 291.275 L265.217 291.275 L265.217 290.438 L266.969 290.438 L266.969 288.574 Z M275.787 293.701 L275.43 293.701 Q274.486 293.701 274.009 294.032 Q273.531 294.363 273.531 295.02 Q273.531 295.611 273.889 295.939 Q274.246 296.268 274.879 296.268 Q275.77 296.268 276.279 295.649 Q276.789 295.031 276.795 293.941 L276.795 293.701 Z M277.879 293.256 L277.879 297 L276.795 297 L276.795 296.027 Q276.449 296.613 275.925 296.892 Q275.4 297.17 274.65 297.17 Q273.648 297.17 273.051 296.604 Q272.453 296.039 272.453 295.09 Q272.453 293.994 273.188 293.426 Q273.924 292.857 275.348 292.857 L276.795 292.857 L276.795 292.688 Q276.789 291.902 276.396 291.548 Q276.004 291.193 275.143 291.193 Q274.592 291.193 274.029 291.352 Q273.467 291.51 272.934 291.814 L272.934 290.736 Q273.531 290.508 274.079 290.394 Q274.627 290.279 275.143 290.279 Q275.957 290.279 276.534 290.52 Q277.111 290.76 277.469 291.24 Q277.691 291.533 277.785 291.964 Q277.879 292.395 277.879 293.256 Z M283.111 294.627 Q283.111 295.354 283.378 295.723 Q283.645 296.092 284.166 296.092 L285.426 296.092 L285.426 297 L284.061 297 Q283.094 297 282.563 296.382 Q282.033 295.764 282.033 294.627 L282.033 288.691 L280.305 288.691 L280.305 287.848 L283.111 287.848 Z" fill="#2B2620" fill-opacity="1"/>
<path d="M335.027 291.275 L335.027 287.883 L336.105 287.883 L336.105 297 L335.027 297 L335.027 296.174 Q334.758 296.66 334.31 296.915 Q333.861 297.17 333.275 297.17 Q332.086 297.17 331.403 296.247 Q330.721 295.324 330.721 293.701 Q330.721 292.102 331.406 291.19 Q332.092 290.279 333.275 290.279 Q333.867 290.279 334.318 290.534 Q334.77 290.789 335.027 291.275 Z M331.857 293.725 Q331.857 294.979 332.256 295.617 Q332.654 296.256 333.434 296.256 Q334.213 296.256 334.62 295.611 Q335.027 294.967 335.027 293.725 Q335.027 292.477 334.62 291.835 Q334.213 291.193 333.434 291.193 Q332.654 291.193 332.256 291.832 Q331.857 292.471 331.857 293.725 Z M343.787 293.18 L343.787 293.707 L339.117 293.707 L339.117 293.742 Q339.07 295.084 339.63 295.67 Q340.189 296.256 341.209 296.256 Q341.725 296.256 342.287 296.092 Q342.85 295.928 343.488 295.594 L343.488 296.666 Q342.873 296.918 342.302 297.044 Q341.73 297.17 341.197 297.17 Q339.668 297.17 338.807 296.253 Q337.945 295.336 337.945 293.725 Q337.945 292.154 338.789 291.217 Q339.633 290.279 341.039 290.279 Q342.293 290.279 343.017 291.129 Q343.74 291.979 343.787 293.18 Z M342.709 292.863 Q342.639 292.184 342.214 291.688 Q341.789 291.193 340.992 291.193 Q340.213 291.193 339.709 291.709 Q339.205 292.225 339.158 292.869 Z M350.666 296.666 Q350.232 296.918 349.772 297.044 Q349.313 297.17 348.832 297.17 Q347.309 297.17 346.45 296.256 Q345.592 295.342 345.592 293.725 Q345.592 292.107 346.45 291.193 Q347.309 290.279 348.832 290.279 Q349.307 290.279 349.758 290.402 Q350.209 290.525 350.666 290.783 L350.666 291.914 Q350.238 291.533 349.808 291.363 Q349.377 291.193 348.832 291.193 Q347.818 291.193 347.273 291.85 Q346.729 292.506 346.729 293.725 Q346.729 294.938 347.276 295.597 Q347.824 296.256 348.832 296.256 Q349.395 296.256 349.84 296.083 Q350.285 295.91 350.666 295.547 Z M353.525 290.461 L356.285 290.461 L356.285 296.162 L358.424 296.162 L358.424 297 L353.068 297 L353.068 296.162 L355.207 296.162 L355.207 291.299 L353.525 291.299 Z M355.207 287.912 L356.285 287.912 L356.285 289.271 L355.207 289.271 Z M362.859 291.105 Q363.059 290.684 363.366 290.481 Q363.674 290.279 364.107 290.279 Q364.898 290.279 365.224 290.892 Q365.549 291.504 365.549 293.197 L365.549 297 L364.564 297 L364.564 293.244 Q364.564 291.855 364.409 291.519 Q364.254 291.182 363.844 291.182 Q363.375 291.182 363.202 291.542 Q363.029 291.902 363.029 293.244 L363.029 297 L362.045 297 L362.045 293.244 Q362.045 291.838 361.878 291.51 Q361.711 291.182 361.277 291.182 Q360.85 291.182 360.683 291.542 Q360.516 291.902 360.516 293.244 L360.516 297 L359.537 297 L359.537 290.438 L360.516 290.438 L360.516 291 Q360.709 290.648 360.999 290.464 Q361.289 290.279 361.658 290.279 Q362.104 290.279 362.399 290.484 Q362.695 290.689 362.859 291.105 Z M370.236 293.701 L369.879 293.701 Q368.936 293.701 368.458 294.032 Q367.98 294.363 367.98 295.02 Q367.98 295.611 368.338 295.939 Q368.695 296.268 369.328 296.268 Q370.219 296.268 370.729 295.649 Q371.238 295.031 371.244 293.941 L371.244 293.701 Z M372.328 293.256 L372.328 297 L371.244 297 L371.244 296.027 Q370.898 296.613 370.374 296.892 Q369.85 297.17 369.1 297.17 Q368.098 297.17 367.5 296.604 Q366.902 296.039 366.902 295.09 Q366.902 293.994 367.638 293.426 Q368.373 292.857 369.797 292.857 L371.244 292.857 L371.244 292.688 Q371.238 291.902 370.846 291.548 Q370.453 291.193 369.592 291.193 Q369.041 291.193 368.479 291.352 Q367.916 291.51 367.383 291.814 L367.383 290.736 Q367.98 290.508 368.528 290.394 Q369.076 290.279 369.592 290.279 Q370.406 290.279 370.983 290.52 Q371.561 290.76 371.918 291.24 Q372.141 291.533 372.234 291.964 Q372.328 292.395 372.328 293.256 Z M377.561 294.627 Q377.561 295.354 377.827 295.723 Q378.094 296.092 378.615 296.092 L379.875 296.092 L379.875 297 L378.51 297 Q377.543 297 377.013 296.382 Q376.482 295.764 376.482 294.627 L376.482 288.691 L374.754 288.691 L374.754 287.848 L377.561 287.848 Z" fill="#8C8478" fill-opacity="1"/>
<path d="M220 213 L220 307 C220 309.761 222.239 312 225 312 L388 312 C390.761 312 393 309.761 393 307 L393 213 C393 210.239 390.761 208 388 208 L225 208 C222.239 208 220 210.239 220 213 Z" fill="none" stroke="#E6DFD2" stroke-opacity="1" stroke-width="1" stroke-linecap="square" stroke-linejoin="miter"/>
<path d="M98 386 L98 524 C98 532.837 105.163 540 114 540 L292 540 C300.837 540 308 532.837 308 524 L308 386 C308 377.163 300.837 370 292 370 L114 370 C105.163 370 98 377.163 98 386 Z" fill="#B1512D" fill-opacity="0.024"/>
<path d="M103 388.5 L103 521.5 C103 528.956 109.044 535 116.5 535 L289.5 535 C296.956 535 303 528.956 303 521.5 L303 388.5 C303 381.044 296.956 375 289.5 375 L116.5 375 C109.044 375 103 381.044 103 388.5 Z" fill="#B1512D" fill-opacity="0.047"/>
<path d="M107 390.5 L107 519.5 C107 525.851 112.149 531 118.5 531 L287.5 531 C293.851 531 299 525.851 299 519.5 L299 390.5 C299 384.149 293.851 379 287.5 379 L118.5 379 C112.149 379 107 384.149 107 390.5 Z" fill="#B1512D" fill-opacity="0.071"/>
<path d="M112 393 L112 517 C112 521.971 116.029 526 121 526 L285 526 C289.971 526 294 521.971 294 517 L294 393 C294 388.029 289.971 384 285 384 L121 384 C116.029 384 112 388.029 112 393 Z" fill="#B1512D" fill-opacity="0.094"/>
<path d="M116 395 L116 515 C116 518.866 119.134 522 123 522 L283 522 C286.866 522 290 518.866 290 515 L290 395 C290 391.134 286.866 388 283 388 L123 388 C119.134 388 116 391.134 116 395 Z" fill="#B1512D" fill-opacity="0.118"/>
<path d="M114 396 L114 518 C114 522.418 117.582 526 122 526 L284 526 C288.418 526 292 522.418 292 518 L292 396 C292 391.582 288.418 388 284 388 L122 388 C117.582 388 114 391.582 114 396 Z" fill="#000000" fill-opacity="0.024"/>
<path d="M115 396.5 L115 517.5 C115 521.642 118.358 525 122.5 525 L283.5 525 C287.642 525 291 521.642 291 517.5 L291 396.5 C291 392.358 287.642 389 283.5 389 L122.5 389 C118.358 389 115 392.358 115 396.5 Z" fill="#000000" fill-opacity="0.024"/>
<path d="M116 397 L116 517 C116 520.866 119.134 524 123 524 L283 524 C286.866 524 290 520.866 290 517 L290 397 C290 393.134 286.866 390 283 390 L123 390 C119.134 390 116 393.134 116 397 Z" fill="#000000" fill-opacity="0.024"/>
<path d="M117 397.5 L117 516.5 C117 520.09 119.91 523 123.5 523 L282.5 523 C286.09 523 289 520.09 289 516.5 L289 397.5 C289 393.91 286.09 391 282.5 391 L123.5 391 C119.91 391 117 393.91 117 397.5 Z" fill="#000000" fill-opacity="0.024"/>
<path d="M118 398 L118 516 C118 519.314 120.686 522 124 522 L282 522 C285.314 522 288 519.314 288 516 L288 398 C288 394.686 285.314 392 282 392 L124 392 C120.686 392 118 394.686 118 398 Z" fill="#000000" fill-opacity="0.024"/>
<path d="M119 398.5 L119 515.5 C119 518.538 121.462 521 124.5 521 L281.5 521 C284.538 521 287 518.538 287 515.5 L287 398.5 C287 395.462 284.538 393 281.5 393 L124.5 393 C121.462 393 119 395.462 119 398.5 Z" fill="#000000" fill-opacity="0.024"/>
<path d="M120 397 L120 513 C120 515.761 122.239 518 125 518 L281 518 C283.761 518 286 515.761 286 513 L286 397 C286 394.239 283.761 392 281 392 L125 392 C122.239 392 120 394.239 120 397 Z" fill="#FBF7F0" fill-opacity="1"/>
<path d="M120 397 L120 417 C120 419.761 122.239 422 125 422 L281 422 C283.761 422 286 419.761 286 417 L286 397 C286 394.239 283.761 392 281 392 L125 392 C122.239 392 120 394.239 120 397 Z" fill="#B1512D" fill-opacity="1"/>
<path d="M120 412 L286 412 L286 422 L120 422 L120 412 Z" fill="#B1512D" fill-opacity="1"/>
<path d="M138.101 413.159 Q136.469 413.159 135.508 412.172 Q134.546 411.185 134.546 409.515 Q134.546 407.827 135.514 406.849 Q136.482 405.872 138.145 405.872 Q139.814 405.872 140.782 406.849 Q141.75 407.827 141.75 409.502 Q141.75 411.216 140.779 412.188 Q139.808 413.159 138.101 413.159 Z M138.132 411.984 Q139.751 411.984 139.751 409.502 Q139.751 408.366 139.323 407.706 Q138.894 407.046 138.145 407.046 Q137.402 407.046 136.974 407.706 Q136.545 408.366 136.545 409.515 Q136.545 410.651 136.971 411.318 Q137.396 411.984 138.132 411.984 Z M143.477 413 L143.477 406.03 L145.356 406.03 L145.356 407.344 Q146.086 405.872 147.578 405.872 Q147.755 405.872 147.927 405.91 L147.927 407.585 Q147.527 407.439 147.184 407.439 Q146.061 407.439 145.356 408.576 L145.356 413 Z M153.773 413 L153.773 411.686 Q153.049 413.159 151.494 413.159 Q150.237 413.159 149.52 412.238 Q148.803 411.318 148.803 409.706 Q148.803 407.954 149.612 406.913 Q150.421 405.872 151.786 405.872 Q152.878 405.872 153.773 406.735 L153.773 402.977 L155.658 402.977 L155.658 413 Z M153.773 407.852 Q153.094 407.09 152.319 407.09 Q151.627 407.09 151.215 407.757 Q150.802 408.423 150.802 409.547 Q150.802 411.686 152.173 411.686 Q153.011 411.686 153.773 410.613 Z M163.675 412.765 Q162.336 413.159 161.136 413.159 Q159.391 413.159 158.381 412.168 Q157.372 411.178 157.372 409.464 Q157.372 407.846 158.296 406.859 Q159.219 405.872 160.736 405.872 Q162.266 405.872 162.971 406.836 Q163.675 407.801 163.675 409.89 L159.353 409.89 Q159.543 411.883 161.542 411.883 Q162.488 411.883 163.675 411.445 Z M159.327 408.83 L161.828 408.83 Q161.828 407.046 160.679 407.046 Q159.511 407.046 159.327 408.83 Z M165.618 413 L165.618 406.03 L167.497 406.03 L167.497 407.344 Q168.227 405.872 169.718 405.872 Q169.896 405.872 170.067 405.91 L170.067 407.585 Q169.667 407.439 169.325 407.439 Q168.201 407.439 167.497 408.576 L167.497 413 Z M170.353 415.272 L170.353 414.25 L176.853 414.25 L176.853 415.272 Z M178.027 413 L178.027 406.03 L179.906 406.03 L179.906 413 Z M178.027 404.856 L178.027 403.288 L179.906 403.288 L179.906 404.856 Z M185.848 412.962 Q185.175 413.159 184.788 413.159 Q182.344 413.159 182.344 410.874 L182.344 407.205 L181.563 407.205 L181.563 406.03 L182.344 406.03 L182.344 404.856 L184.223 404.64 L184.223 406.03 L185.714 406.03 L185.714 407.205 L184.223 407.205 L184.223 410.626 Q184.223 411.908 185.27 411.908 Q185.511 411.908 185.848 411.819 Z M193.198 412.765 Q191.859 413.159 190.659 413.159 Q188.914 413.159 187.904 412.168 Q186.895 411.178 186.895 409.464 Q186.895 407.846 187.819 406.859 Q188.742 405.872 190.259 405.872 Q191.789 405.872 192.494 406.836 Q193.198 407.801 193.198 409.89 L188.875 409.89 Q189.066 411.883 191.065 411.883 Q192.011 411.883 193.198 411.445 Z M188.85 408.83 L191.351 408.83 Q191.351 407.046 190.202 407.046 Q189.034 407.046 188.85 408.83 Z M195.141 413 L195.141 406.03 L196.943 406.03 L196.943 407.344 Q197.769 405.872 199.292 405.872 Q200.079 405.872 200.587 406.259 Q201.095 406.646 201.209 407.344 Q202.187 405.872 203.57 405.872 Q205.481 405.872 205.481 407.979 L205.481 413 L203.678 413 L203.678 408.595 Q203.678 407.357 202.853 407.357 Q202.009 407.357 201.209 408.576 L201.209 413 L199.406 413 L199.406 408.595 Q199.406 407.351 198.575 407.351 Q197.743 407.351 196.943 408.576 L196.943 413 Z M207.563 412.778 L207.563 411.4 Q208.959 411.984 209.95 411.984 Q211.105 411.984 211.105 411.197 Q211.105 410.689 210.153 410.309 L209.518 410.055 Q208.483 409.636 208.039 409.153 Q207.595 408.671 207.595 407.96 Q207.595 406.97 208.35 406.421 Q209.105 405.872 210.464 405.872 Q211.314 405.872 212.489 406.119 L212.489 407.439 Q211.359 407.046 210.616 407.046 Q209.448 407.046 209.448 407.77 Q209.448 408.246 210.312 408.576 L210.857 408.785 Q212.083 409.249 212.562 409.725 Q213.041 410.201 213.041 410.95 Q213.041 411.934 212.225 412.546 Q211.41 413.159 210.102 413.159 Q208.845 413.159 207.563 412.778 Z" fill="#FFFFFF" fill-opacity="1"/>
<path d="M262 402 L274 402 L274 412 L262 412 L262 402 Z" fill="none" stroke="#FFFFFF" stroke-opacity="1" stroke-width="1.3" stroke-linecap="square" stroke-linejoin="miter"/>
<path d="M262 406 L274 406" fill="none" stroke="#FFFFFF" stroke-opacity="1" stroke-width="1.3" stroke-linecap="square" stroke-linejoin="miter"/>
<path d="M268 406 L268 412" fill="none" stroke="#FFFFFF" stroke-opacity="1" stroke-width="1.3" stroke-linecap="square" stroke-linejoin="miter"/>
<path d="M138 433 C138 434.657 136.657 436 135 436 C133.343 436 132 434.657 132 433 C132 431.343 133.343 430 135 430 C136.657 430 138 431.343 138 433 Z" fill="#B1512D" fill-opacity="1"/>
<path d="M138 433 L144 433" fill="none" stroke="#B1512D" stroke-opacity="1" stroke-width="1.3" stroke-linecap="square" stroke-linejoin="miter"/>
<path d="M144 433 L144 436" fill="none" stroke="#B1512D" stroke-opacity="1" stroke-width="1.3" stroke-linecap="square" stroke-linejoin="miter"/>
<path d="M141 433 L141 436" fill="none" stroke="#B1512D" stroke-opacity="1" stroke-width="1.3" stroke-linecap="square" stroke-linejoin="miter"/>
<path d="M151.852 430.461 L154.611 430.461 L154.611 436.162 L156.75 436.162 L156.75 437 L151.395 437 L151.395 436.162 L153.533 436.162 L153.533 431.299 L151.852 431.299 Z M153.533 427.912 L154.611 427.912 L154.611 429.271 L153.533 429.271 Z M162.252 431.275 L162.252 427.883 L163.33 427.883 L163.33 437 L162.252 437 L162.252 436.174 Q161.982 436.66 161.534 436.915 Q161.086 437.17 160.5 437.17 Q159.311 437.17 158.628 436.247 Q157.945 435.324 157.945 433.701 Q157.945 432.102 158.631 431.19 Q159.316 430.279 160.5 430.279 Q161.092 430.279 161.543 430.534 Q161.994 430.789 162.252 431.275 Z M159.082 433.725 Q159.082 434.979 159.48 435.617 Q159.879 436.256 160.658 436.256 Q161.438 436.256 161.845 435.611 Q162.252 434.967 162.252 433.725 Q162.252 432.477 161.845 431.835 Q161.438 431.193 160.658 431.193 Q159.879 431.193 159.48 431.832 Q159.082 432.471 159.082 433.725 Z" fill="#B1512D" fill-opacity="1"/>
<path d="M245.143 434.516 L245.143 430.449 L246.221 430.449 L246.221 434.516 Q246.221 435.4 246.534 435.816 Q246.848 436.232 247.504 436.232 Q248.266 436.232 248.67 435.696 Q249.074 435.16 249.074 434.158 L249.074 430.449 L250.158 430.449 L250.158 437 L249.074 437 L249.074 436.016 Q248.787 436.584 248.292 436.877 Q247.797 437.17 247.135 437.17 Q246.127 437.17 245.635 436.511 Q245.143 435.852 245.143 434.516 Z M252.367 434.516 L252.367 430.449 L253.445 430.449 L253.445 434.516 Q253.445 435.4 253.759 435.816 Q254.072 436.232 254.729 436.232 Q255.49 436.232 255.895 435.696 Q256.299 435.16 256.299 434.158 L256.299 430.449 L257.383 430.449 L257.383 437 L256.299 437 L256.299 436.016 Q256.012 436.584 255.517 436.877 Q255.021 437.17 254.359 437.17 Q253.352 437.17 252.859 436.511 Q252.367 435.852 252.367 434.516 Z M260.301 430.461 L263.061 430.461 L263.061 436.162 L265.199 436.162 L265.199 437 L259.844 437 L259.844 436.162 L261.982 436.162 L261.982 431.299 L260.301 431.299 Z M261.982 427.912 L263.061 427.912 L263.061 429.271 L261.982 429.271 Z M270.701 431.275 L270.701 427.883 L271.779 427.883 L271.779 437 L270.701 437 L270.701 436.174 Q270.432 436.66 269.983 436.915 Q269.535 437.17 268.949 437.17 Q267.76 437.17 267.077 436.247 Q266.395 435.324 266.395 433.701 Q266.395 432.102 267.08 431.19 Q267.766 430.279 268.949 430.279 Q269.541 430.279 269.992 430.534 Q270.443 430.789 270.701 431.275 Z M267.531 433.725 Q267.531 434.979 267.93 435.617 Q268.328 436.256 269.107 436.256 Q269.887 436.256 270.294 435.611 Q270.701 434.967 270.701 433.725 Q270.701 432.477 270.294 431.835 Q269.887 431.193 269.107 431.193 Q268.328 431.193 267.93 431.832 Q267.531 432.471 267.531 433.725 Z" fill="#8C8478" fill-opacity="1"/>
<path d="M138 455 C138 456.657 136.657 458 135 458 C133.343 458 132 456.657 132 455 C132 453.343 133.343 452 135 452 C136.657 452 138 453.343 138 455 Z" fill="none" stroke="#DAAC98" stroke-opacity="1" stroke-width="1.3" stroke-linecap="square" stroke-linejoin="miter"/>
<path d="M138 455 L144 455" fill="none" stroke="#DAAC98" stroke-opacity="1" stroke-width="1.3" stroke-linecap="square" stroke-linejoin="miter"/>
<path d="M144 455 L144 458" fill="none" stroke="#DAAC98" stroke-opacity="1" stroke-width="1.3" stroke-linecap="square" stroke-linejoin="miter"/>
<path d="M141 455 L141 458" fill="none" stroke="#DAAC98" stroke-opacity="1" stroke-width="1.3" stroke-linecap="square" stroke-linejoin="miter"/>
<path d="M153.609 453.193 Q152.789 453.193 152.367 453.832 Q151.945 454.471 151.945 455.725 Q151.945 456.973 152.367 457.614 Q152.789 458.256 153.609 458.256 Q154.436 458.256 154.857 457.614 Q155.279 456.973 155.279 455.725 Q155.279 454.471 154.857 453.832 Q154.436 453.193 153.609 453.193 Z M153.609 452.279 Q154.975 452.279 155.698 453.164 Q156.422 454.049 156.422 455.725 Q156.422 457.406 155.701 458.288 Q154.98 459.17 153.609 459.17 Q152.244 459.17 151.523 458.288 Q150.803 457.406 150.803 455.725 Q150.803 454.049 151.523 453.164 Q152.244 452.279 153.609 452.279 Z M163.992 453.791 Q163.646 453.521 163.289 453.398 Q162.932 453.275 162.504 453.275 Q161.496 453.275 160.963 453.908 Q160.43 454.541 160.43 455.736 L160.43 459 L159.346 459 L159.346 452.438 L160.43 452.438 L160.43 453.721 Q160.699 453.023 161.259 452.651 Q161.818 452.279 162.586 452.279 Q162.984 452.279 163.33 452.379 Q163.676 452.479 163.992 452.689 Z M169.477 453.275 L169.477 449.883 L170.555 449.883 L170.555 459 L169.477 459 L169.477 458.174 Q169.207 458.66 168.759 458.915 Q168.311 459.17 167.725 459.17 Q166.535 459.17 165.853 458.247 Q165.17 457.324 165.17 455.701 Q165.17 454.102 165.855 453.19 Q166.541 452.279 167.725 452.279 Q168.316 452.279 168.768 452.534 Q169.219 452.789 169.477 453.275 Z M166.307 455.725 Q166.307 456.979 166.705 457.617 Q167.104 458.256 167.883 458.256 Q168.662 458.256 169.069 457.611 Q169.477 456.967 169.477 455.725 Q169.477 454.477 169.069 453.835 Q168.662 453.193 167.883 453.193 Q167.104 453.193 166.705 453.832 Q166.307 454.471 166.307 455.725 Z M178.236 455.18 L178.236 455.707 L173.566 455.707 L173.566 455.742 Q173.52 457.084 174.079 457.67 Q174.639 458.256 175.658 458.256 Q176.174 458.256 176.736 458.092 Q177.299 457.928 177.938 457.594 L177.938 458.666 Q177.322 458.918 176.751 459.044 Q176.18 459.17 175.646 459.17 Q174.117 459.17 173.256 458.253 Q172.395 457.336 172.395 455.725 Q172.395 454.154 173.238 453.217 Q174.082 452.279 175.488 452.279 Q176.742 452.279 177.466 453.129 Q178.189 453.979 178.236 455.18 Z M177.158 454.863 Q177.088 454.184 176.663 453.688 Q176.238 453.193 175.441 453.193 Q174.662 453.193 174.158 453.709 Q173.654 454.225 173.607 454.869 Z M185.666 453.791 Q185.32 453.521 184.963 453.398 Q184.605 453.275 184.178 453.275 Q183.17 453.275 182.637 453.908 Q182.104 454.541 182.104 455.736 L182.104 459 L181.02 459 L181.02 452.438 L182.104 452.438 L182.104 453.721 Q182.373 453.023 182.933 452.651 Q183.492 452.279 184.26 452.279 Q184.658 452.279 185.004 452.379 Q185.35 452.479 185.666 452.689 Z M193.295 460.113 L193.295 461.109 L186.123 461.109 L186.123 460.113 Z M195.199 452.461 L197.959 452.461 L197.959 458.162 L200.098 458.162 L200.098 459 L194.742 459 L194.742 458.162 L196.881 458.162 L196.881 453.299 L195.199 453.299 Z M196.881 449.912 L197.959 449.912 L197.959 451.271 L196.881 451.271 Z M205.6 453.275 L205.6 449.883 L206.678 449.883 L206.678 459 L205.6 459 L205.6 458.174 Q205.33 458.66 204.882 458.915 Q204.434 459.17 203.848 459.17 Q202.658 459.17 201.976 458.247 Q201.293 457.324 201.293 455.701 Q201.293 454.102 201.979 453.19 Q202.664 452.279 203.848 452.279 Q204.439 452.279 204.891 452.534 Q205.342 452.789 205.6 453.275 Z M202.43 455.725 Q202.43 456.979 202.828 457.617 Q203.227 458.256 204.006 458.256 Q204.785 458.256 205.192 457.611 Q205.6 456.967 205.6 455.725 Q205.6 454.477 205.192 453.835 Q204.785 453.193 204.006 453.193 Q203.227 453.193 202.828 453.832 Q202.43 454.471 202.43 455.725 Z" fill="#2B2620" fill-opacity="1"/>
<path d="M245.143 456.516 L245.143 452.449 L246.221 452.449 L246.221 456.516 Q246.221 457.4 246.534 457.816 Q246.848 458.232 247.504 458.232 Q248.266 458.232 248.67 457.696 Q249.074 457.16 249.074 456.158 L249.074 452.449 L250.158 452.449 L250.158 459 L249.074 459 L249.074 458.016 Q248.787 458.584 248.292 458.877 Q247.797 459.17 247.135 459.17 Q246.127 459.17 245.635 458.511 Q245.143 457.852 245.143 456.516 Z M252.367 456.516 L252.367 452.449 L253.445 452.449 L253.445 456.516 Q253.445 457.4 253.759 457.816 Q254.072 458.232 254.729 458.232 Q255.49 458.232 255.895 457.696 Q256.299 457.16 256.299 456.158 L256.299 452.449 L257.383 452.449 L257.383 459 L256.299 459 L256.299 458.016 Q256.012 458.584 255.517 458.877 Q255.021 459.17 254.359 459.17 Q253.352 459.17 252.859 458.511 Q252.367 457.852 252.367 456.516 Z M260.301 452.461 L263.061 452.461 L263.061 458.162 L265.199 458.162 L265.199 459 L259.844 459 L259.844 458.162 L261.982 458.162 L261.982 453.299 L260.301 453.299 Z M261.982 449.912 L263.061 449.912 L263.061 451.271 L261.982 451.271 Z M270.701 453.275 L270.701 449.883 L271.779 449.883 L271.779 459 L270.701 459 L270.701 458.174 Q270.432 458.66 269.983 458.915 Q269.535 459.17 268.949 459.17 Q267.76 459.17 267.077 458.247 Q266.395 457.324 266.395 455.701 Q266.395 454.102 267.08 453.19 Q267.766 452.279 268.949 452.279 Q269.541 452.279 269.992 452.534 Q270.443 452.789 270.701 453.275 Z M267.531 455.725 Q267.531 456.979 267.93 457.617 Q268.328 458.256 269.107 458.256 Q269.887 458.256 270.294 457.611 Q270.701 456.967 270.701 455.725 Q270.701 454.477 270.294 453.835 Q269.887 453.193 269.107 453.193 Q268.328 453.193 267.93 453.832 Q267.531 454.471 267.531 455.725 Z" fill="#8C8478" fill-opacity="1"/>
<path d="M138 477 C138 478.657 136.657 480 135 480 C133.343 480 132 478.657 132 477 C132 475.343 133.343 474 135 474 C136.657 474 138 475.343 138 477 Z" fill="none" stroke="#DAAC98" stroke-opacity="1" stroke-width="1.3" stroke-linecap="square" stroke-linejoin="miter"/>
<path d="M138 477 L144 477" fill="none" stroke="#DAAC98" stroke-opacity="1" stroke-width="1.3" stroke-linecap="square" stroke-linejoin="miter"/>
<path d="M144 477 L144 480" fill="none" stroke="#DAAC98" stroke-opacity="1" stroke-width="1.3" stroke-linecap="square" stroke-linejoin="miter"/>
<path d="M141 477 L141 480" fill="none" stroke="#DAAC98" stroke-opacity="1" stroke-width="1.3" stroke-linecap="square" stroke-linejoin="miter"/>
<path d="M152.197 480.174 L152.197 483.496 L151.113 483.496 L151.113 474.438 L152.197 474.438 L152.197 475.275 Q152.467 474.789 152.915 474.534 Q153.363 474.279 153.949 474.279 Q155.139 474.279 155.815 475.199 Q156.492 476.119 156.492 477.748 Q156.492 479.348 155.813 480.259 Q155.133 481.17 153.949 481.17 Q153.352 481.17 152.903 480.915 Q152.455 480.66 152.197 480.174 Z M155.361 477.725 Q155.361 476.471 154.966 475.832 Q154.57 475.193 153.791 475.193 Q153.006 475.193 152.602 475.835 Q152.197 476.477 152.197 477.725 Q152.197 478.967 152.602 479.611 Q153.006 480.256 153.791 480.256 Q154.57 480.256 154.966 479.617 Q155.361 478.979 155.361 477.725 Z M163.992 475.791 Q163.646 475.521 163.289 475.398 Q162.932 475.275 162.504 475.275 Q161.496 475.275 160.963 475.908 Q160.43 476.541 160.43 477.736 L160.43 481 L159.346 481 L159.346 474.438 L160.43 474.438 L160.43 475.721 Q160.699 475.023 161.259 474.651 Q161.818 474.279 162.586 474.279 Q162.984 474.279 163.33 474.379 Q163.676 474.479 163.992 474.689 Z M168.059 475.193 Q167.238 475.193 166.816 475.832 Q166.395 476.471 166.395 477.725 Q166.395 478.973 166.816 479.614 Q167.238 480.256 168.059 480.256 Q168.885 480.256 169.307 479.614 Q169.729 478.973 169.729 477.725 Q169.729 476.471 169.307 475.832 Q168.885 475.193 168.059 475.193 Z M168.059 474.279 Q169.424 474.279 170.147 475.164 Q170.871 476.049 170.871 477.725 Q170.871 479.406 170.15 480.288 Q169.43 481.17 168.059 481.17 Q166.693 481.17 165.973 480.288 Q165.252 479.406 165.252 477.725 Q165.252 476.049 165.973 475.164 Q166.693 474.279 168.059 474.279 Z M176.701 475.275 L176.701 471.883 L177.779 471.883 L177.779 481 L176.701 481 L176.701 480.174 Q176.432 480.66 175.983 480.915 Q175.535 481.17 174.949 481.17 Q173.76 481.17 173.077 480.247 Q172.395 479.324 172.395 477.701 Q172.395 476.102 173.08 475.19 Q173.766 474.279 174.949 474.279 Q175.541 474.279 175.992 474.534 Q176.443 474.789 176.701 475.275 Z M173.531 477.725 Q173.531 478.979 173.93 479.617 Q174.328 480.256 175.107 480.256 Q175.887 480.256 176.294 479.611 Q176.701 478.967 176.701 477.725 Q176.701 476.477 176.294 475.835 Q175.887 475.193 175.107 475.193 Q174.328 475.193 173.93 475.832 Q173.531 476.471 173.531 477.725 Z M180.041 478.516 L180.041 474.449 L181.119 474.449 L181.119 478.516 Q181.119 479.4 181.433 479.816 Q181.746 480.232 182.402 480.232 Q183.164 480.232 183.568 479.696 Q183.973 479.16 183.973 478.158 L183.973 474.449 L185.057 474.449 L185.057 481 L183.973 481 L183.973 480.016 Q183.686 480.584 183.19 480.877 Q182.695 481.17 182.033 481.17 Q181.025 481.17 180.533 480.511 Q180.041 479.852 180.041 478.516 Z M192.34 480.666 Q191.906 480.918 191.446 481.044 Q190.986 481.17 190.506 481.17 Q188.982 481.17 188.124 480.256 Q187.266 479.342 187.266 477.725 Q187.266 476.107 188.124 475.193 Q188.982 474.279 190.506 474.279 Q190.98 474.279 191.432 474.402 Q191.883 474.525 192.34 474.783 L192.34 475.914 Q191.912 475.533 191.481 475.363 Q191.051 475.193 190.506 475.193 Q189.492 475.193 188.947 475.85 Q188.402 476.506 188.402 477.725 Q188.402 478.938 188.95 479.597 Q189.498 480.256 190.506 480.256 Q191.068 480.256 191.514 480.083 Q191.959 479.91 192.34 479.547 Z M196.945 472.574 L196.945 474.438 L199.395 474.438 L199.395 475.275 L196.945 475.275 L196.945 478.838 Q196.945 479.564 197.221 479.852 Q197.496 480.139 198.182 480.139 L199.395 480.139 L199.395 481 L198.076 481 Q196.863 481 196.365 480.514 Q195.867 480.027 195.867 478.838 L195.867 475.275 L194.115 475.275 L194.115 474.438 L195.867 474.438 L195.867 472.574 Z M207.744 482.113 L207.744 483.109 L200.572 483.109 L200.572 482.113 Z M209.648 474.461 L212.408 474.461 L212.408 480.162 L214.547 480.162 L214.547 481 L209.191 481 L209.191 480.162 L211.33 480.162 L211.33 475.299 L209.648 475.299 Z M211.33 471.912 L212.408 471.912 L212.408 473.271 L211.33 473.271 Z M220.049 475.275 L220.049 471.883 L221.127 471.883 L221.127 481 L220.049 481 L220.049 480.174 Q219.779 480.66 219.331 480.915 Q218.883 481.17 218.297 481.17 Q217.107 481.17 216.425 480.247 Q215.742 479.324 215.742 477.701 Q215.742 476.102 216.428 475.19 Q217.113 474.279 218.297 474.279 Q218.889 474.279 219.34 474.534 Q219.791 474.789 220.049 475.275 Z M216.879 477.725 Q216.879 478.979 217.277 479.617 Q217.676 480.256 218.455 480.256 Q219.234 480.256 219.642 479.611 Q220.049 478.967 220.049 477.725 Q220.049 476.477 219.642 475.835 Q219.234 475.193 218.455 475.193 Q217.676 475.193 217.277 475.832 Q216.879 476.471 216.879 477.725 Z" fill="#2B2620" fill-opacity="1"/>
<path d="M245.143 478.516 L245.143 474.449 L246.221 474.449 L246.221 478.516 Q246.221 479.4 246.534 479.816 Q246.848 480.232 247.504 480.232 Q248.266 480.232 248.67 479.696 Q249.074 479.16 249.074 478.158 L249.074 474.449 L250.158 474.449 L250.158 481 L249.074 481 L249.074 480.016 Q248.787 480.584 248.292 480.877 Q247.797 481.17 247.135 481.17 Q246.127 481.17 245.635 480.511 Q245.143 479.852 245.143 478.516 Z M252.367 478.516 L252.367 474.449 L253.445 474.449 L253.445 478.516 Q253.445 479.4 253.759 479.816 Q254.072 480.232 254.729 480.232 Q255.49 480.232 255.895 479.696 Q256.299 479.16 256.299 478.158 L256.299 474.449 L257.383 474.449 L257.383 481 L256.299 481 L256.299 480.016 Q256.012 480.584 255.517 480.877 Q255.021 481.17 254.359 481.17 Q253.352 481.17 252.859 480.511 Q252.367 479.852 252.367 478.516 Z M260.301 474.461 L263.061 474.461 L263.061 480.162 L265.199 480.162 L265.199 481 L259.844 481 L259.844 480.162 L261.982 480.162 L261.982 475.299 L260.301 475.299 Z M261.982 471.912 L263.061 471.912 L263.061 473.271 L261.982 473.271 Z M270.701 475.275 L270.701 471.883 L271.779 471.883 L271.779 481 L270.701 481 L270.701 480.174 Q270.432 480.66 269.983 480.915 Q269.535 481.17 268.949 481.17 Q267.76 481.17 267.077 480.247 Q266.395 479.324 266.395 477.701 Q266.395 476.102 267.08 475.19 Q267.766 474.279 268.949 474.279 Q269.541 474.279 269.992 474.534 Q270.443 474.789 270.701 475.275 Z M267.531 477.725 Q267.531 478.979 267.93 479.617 Q268.328 480.256 269.107 480.256 Q269.887 480.256 270.294 479.611 Q270.701 478.967 270.701 477.725 Q270.701 476.477 270.294 475.835 Q269.887 475.193 269.107 475.193 Q268.328 475.193 267.93 475.832 Q267.531 476.471 267.531 477.725 Z" fill="#8C8478" fill-opacity="1"/>
<path d="M151.945 499.748 Q151.945 501.002 152.341 501.641 Q152.736 502.279 153.516 502.279 Q154.295 502.279 154.696 501.638 Q155.098 500.996 155.098 499.748 Q155.098 498.5 154.696 497.858 Q154.295 497.217 153.516 497.217 Q152.736 497.217 152.341 497.855 Q151.945 498.494 151.945 499.748 Z M155.098 502.186 Q154.834 502.672 154.386 502.933 Q153.938 503.193 153.346 503.193 Q152.168 503.193 151.485 502.282 Q150.803 501.371 150.803 499.771 Q150.803 498.143 151.482 497.223 Q152.162 496.303 153.346 496.303 Q153.932 496.303 154.38 496.558 Q154.828 496.813 155.098 497.299 L155.098 496.461 L156.182 496.461 L156.182 505.52 L155.098 505.52 Z M158.367 500.516 L158.367 496.449 L159.445 496.449 L159.445 500.516 Q159.445 501.4 159.759 501.816 Q160.072 502.232 160.729 502.232 Q161.49 502.232 161.895 501.696 Q162.299 501.16 162.299 500.158 L162.299 496.449 L163.383 496.449 L163.383 503 L162.299 503 L162.299 502.016 Q162.012 502.584 161.517 502.877 Q161.021 503.17 160.359 503.17 Q159.352 503.17 158.859 502.511 Q158.367 501.852 158.367 500.516 Z M168.563 499.701 L168.205 499.701 Q167.262 499.701 166.784 500.032 Q166.307 500.363 166.307 501.02 Q166.307 501.611 166.664 501.939 Q167.021 502.268 167.654 502.268 Q168.545 502.268 169.055 501.649 Q169.564 501.031 169.57 499.941 L169.57 499.701 Z M170.654 499.256 L170.654 503 L169.57 503 L169.57 502.027 Q169.225 502.613 168.7 502.892 Q168.176 503.17 167.426 503.17 Q166.424 503.17 165.826 502.604 Q165.229 502.039 165.229 501.09 Q165.229 499.994 165.964 499.426 Q166.699 498.857 168.123 498.857 L169.57 498.857 L169.57 498.688 Q169.564 497.902 169.172 497.548 Q168.779 497.193 167.918 497.193 Q167.367 497.193 166.805 497.352 Q166.242 497.51 165.709 497.814 L165.709 496.736 Q166.307 496.508 166.854 496.394 Q167.402 496.279 167.918 496.279 Q168.732 496.279 169.31 496.52 Q169.887 496.76 170.244 497.24 Q170.467 497.533 170.561 497.964 Q170.654 498.395 170.654 499.256 Z M177.832 498.934 L177.832 503 L176.748 503 L176.748 498.934 Q176.748 498.049 176.438 497.633 Q176.127 497.217 175.465 497.217 Q174.709 497.217 174.302 497.753 Q173.895 498.289 173.895 499.291 L173.895 503 L172.816 503 L172.816 496.438 L173.895 496.438 L173.895 497.422 Q174.182 496.859 174.674 496.569 Q175.166 496.279 175.84 496.279 Q176.842 496.279 177.337 496.938 Q177.832 497.598 177.832 498.934 Z M182.496 494.574 L182.496 496.438 L184.945 496.438 L184.945 497.275 L182.496 497.275 L182.496 500.838 Q182.496 501.564 182.771 501.852 Q183.047 502.139 183.732 502.139 L184.945 502.139 L184.945 503 L183.627 503 Q182.414 503 181.916 502.514 Q181.418 502.027 181.418 500.838 L181.418 497.275 L179.666 497.275 L179.666 496.438 L181.418 496.438 L181.418 494.574 Z M187.975 496.461 L190.734 496.461 L190.734 502.162 L192.873 502.162 L192.873 503 L187.518 503 L187.518 502.162 L189.656 502.162 L189.656 497.299 L187.975 497.299 Z M189.656 493.912 L190.734 493.912 L190.734 495.271 L189.656 495.271 Z M196.945 494.574 L196.945 496.438 L199.395 496.438 L199.395 497.275 L196.945 497.275 L196.945 500.838 Q196.945 501.564 197.221 501.852 Q197.496 502.139 198.182 502.139 L199.395 502.139 L199.395 503 L198.076 503 Q196.863 503 196.365 502.514 Q195.867 502.027 195.867 500.838 L195.867 497.275 L194.115 497.275 L194.115 496.438 L195.867 496.438 L195.867 494.574 Z M205.6 500.891 Q205.33 501.576 204.914 502.695 Q204.334 504.242 204.135 504.582 Q203.865 505.039 203.461 505.268 Q203.057 505.496 202.518 505.496 L201.65 505.496 L201.65 504.594 L202.289 504.594 Q202.764 504.594 203.033 504.318 Q203.303 504.043 203.719 502.895 L201.182 496.438 L202.324 496.438 L204.27 501.57 L206.186 496.438 L207.328 496.438 Z" fill="#2B2620" fill-opacity="1"/>
<path d="M252.852 496.461 L255.611 496.461 L255.611 502.162 L257.75 502.162 L257.75 503 L252.395 503 L252.395 502.162 L254.533 502.162 L254.533 497.299 L252.852 497.299 Z M254.533 493.912 L255.611 493.912 L255.611 495.271 L254.533 495.271 Z M264.383 498.934 L264.383 503 L263.299 503 L263.299 498.934 Q263.299 498.049 262.988 497.633 Q262.678 497.217 262.016 497.217 Q261.26 497.217 260.853 497.753 Q260.445 498.289 260.445 499.291 L260.445 503 L259.367 503 L259.367 496.438 L260.445 496.438 L260.445 497.422 Q260.732 496.859 261.225 496.569 Q261.717 496.279 262.391 496.279 Q263.393 496.279 263.888 496.938 Q264.383 497.598 264.383 498.934 Z M269.047 494.574 L269.047 496.438 L271.496 496.438 L271.496 497.275 L269.047 497.275 L269.047 500.838 Q269.047 501.564 269.322 501.852 Q269.598 502.139 270.283 502.139 L271.496 502.139 L271.496 503 L270.178 503 Q268.965 503 268.467 502.514 Q267.969 502.027 267.969 500.838 L267.969 497.275 L266.217 497.275 L266.217 496.438 L267.969 496.438 L267.969 494.574 Z" fill="#8C8478" fill-opacity="1"/>
<path d="M120 397 L120 513 C120 515.761 122.239 518 125 518 L281 518 C283.761 518 286 515.761 286 513 L286 397 C286 394.239 283.761 392 281 392 L125 392 C122.239 392 120 394.239 120 397 Z" fill="none" stroke="#E6DFD2" stroke-opacity="1" stroke-width="1" stroke-linecap="square" stroke-linejoin="miter"/>
<path d="M306 195 L306 208" fill="none" stroke="#8C8478" stroke-opacity="1" stroke-width="1.4" stroke-linecap="round" stroke-linejoin="round"/>
<path d="M306 195 L312 208" fill="none" stroke="#8C8478" stroke-opacity="1" stroke-width="1.4" stroke-linecap="round" stroke-linejoin="round"/>
<path d="M306 195 L300 208" fill="none" stroke="#8C8478" stroke-opacity="1" stroke-width="1.4" stroke-linecap="round" stroke-linejoin="round"/>
<path d="M306 141 L306 128" fill="none" stroke="#8C8478" stroke-opacity="1" stroke-width="1.4" stroke-linecap="round" stroke-linejoin="round"/>
<path d="M300 134 L312 134" fill="none" stroke="#8C8478" stroke-opacity="1" stroke-width="1.4" stroke-linecap="round" stroke-linejoin="round"/>
<path d="M230 379 L230 392" fill="none" stroke="#8C8478" stroke-opacity="1" stroke-width="1.4" stroke-linecap="round" stroke-linejoin="round"/>
<path d="M230 379 L236 392" fill="none" stroke="#8C8478" stroke-opacity="1" stroke-width="1.4" stroke-linecap="round" stroke-linejoin="round"/>
<path d="M230 379 L224 392" fill="none" stroke="#8C8478" stroke-opacity="1" stroke-width="1.4" stroke-linecap="round" stroke-linejoin="round"/>
<path d="M306 325 L306 312" fill="none" stroke="#8C8478" stroke-opacity="1" stroke-width="1.4" stroke-linecap="round" stroke-linejoin="round"/>
<path d="M300 318 L312 318" fill="none" stroke="#8C8478" stroke-opacity="1" stroke-width="1.4" stroke-linecap="round" stroke-linejoin="round"/>
<path d="M175 379 L175 392" fill="none" stroke="#8C8478" stroke-opacity="1" stroke-width="1.4" stroke-linecap="round" stroke-linejoin="round"/>
<path d="M175 379 L181 392" fill="none" stroke="#8C8478" stroke-opacity="1" stroke-width="1.4" stroke-linecap="round" stroke-linejoin="round"/>
<path d="M175 379 L169 392" fill="none" stroke="#8C8478" stroke-opacity="1" stroke-width="1.4" stroke-linecap="round" stroke-linejoin="round"/>
<path d="M100 325 L100 312" fill="none" stroke="#8C8478" stroke-opacity="1" stroke-width="1.4" stroke-linecap="round" stroke-linejoin="round"/>
<path d="M94 318 L106 318" fill="none" stroke="#8C8478" stroke-opacity="1" stroke-width="1.4" stroke-linecap="round" stroke-linejoin="round"/>
</svg>
