<svg xmlns="http://www.w3.org/2000/svg" width="900" height="620" viewBox="0 0 900 620" role="img">
<rect width="900" height="620" fill="#F2ECE0"/>
<g transform="translate(195.10 40) scale(0.56)">
<path d="M278.25 250 C278.25 213 435.25 176 435.25 139" fill="none" stroke="#8C8478" stroke-opacity="0.176" stroke-width="1.4" stroke-linecap="round" stroke-linejoin="round"/>
<path d="M911.25 45.667 C926.583 45.667 957.25 46.614 957.25 63 C957.25 79.386 926.583 80.333 911.25 80.333" fill="none" stroke="#8C8478" stroke-opacity="0.176" stroke-width="1.4" stroke-linecap="round" stroke-linejoin="round"/>
<path d="M822.25 239 C822.25 202 822.25 165 822.25 128" fill="none" stroke="#8C8478" stroke-opacity="0.176" stroke-width="1.4" stroke-linecap="round" stroke-linejoin="round"/>
<path d="M407.583 513 C407.583 450.667 403.334 387.145 415.75 326 C428.166 264.855 485.5 201.333 485.5 139" fill="none" stroke="#B1512D" stroke-opacity="1" stroke-width="2.2" stroke-linecap="round" stroke-linejoin="round"/>
<path d="M342.917 513 C342.917 476 278.25 439 278.25 402" fill="none" stroke="#B1512D" stroke-opacity="1" stroke-width="2.2" stroke-linecap="round" stroke-linejoin="round"/>
<path d="M715.75 896 C638.917 896 562.083 611 485.25 611" fill="none" stroke="#B1512D" stroke-opacity="1" stroke-width="2.2" stroke-linecap="round" stroke-linejoin="round"/>
<path d="M822.25 809 C822.25 743 817.672 676.841 822.25 611 C826.828 545.159 849.917 479 849.917 413" fill="none" stroke="#8C8478" stroke-opacity="0.176" stroke-width="1.4" stroke-linecap="round" stroke-linejoin="round"/>
<path d="M79.5 820 C79.5 783 326.75 746 326.75 709" fill="none" stroke="#B1512D" stroke-opacity="1" stroke-width="2.2" stroke-linecap="round" stroke-linejoin="round"/>
<path d="M303.5 820 C303.5 783 375.25 746 375.25 709" fill="none" stroke="#B1512D" stroke-opacity="1" stroke-width="2.2" stroke-linecap="round" stroke-linejoin="round"/>
<path d="M631.583 535 C631.583 494.333 794.583 453.667 794.583 413" fill="none" stroke="#8C8478" stroke-opacity="0.176" stroke-width="1.4" stroke-linecap="round" stroke-linejoin="round"/>
<path d="M573.917 535 C573.917 465.333 609.589 391.859 602.75 326 C595.911 260.141 535.75 201.333 535.75 139" fill="none" stroke="#8C8478" stroke-opacity="0.176" stroke-width="1.4" stroke-linecap="round" stroke-linejoin="round"/>
<path d="M530 842 C530 797.667 423.75 753.333 423.75 709" fill="none" stroke="#E0A116" stroke-opacity="1" stroke-width="2.2" stroke-linecap="butt" stroke-linejoin="round" stroke-dasharray="6,5"/>
<path d="M375 0 L375 126 C375 131.523 379.477 136 385 136 L586 136 C591.523 136 596 131.523 596 126 L596 0 C596 -5.523 591.523 -10 586 -10 L385 -10 C379.477 -10 375 -5.523 375 0 Z" fill="#B1512D" fill-opacity="0.004"/>
<path d="M377 1 L377 125 C377 129.971 381.029 134 386 134 L585 134 C589.971 134 594 129.971 594 125 L594 1 C594 -3.971 589.971 -8 585 -8 L386 -8 C381.029 -8 377 -3.971 377 1 Z" fill="#B1512D" fill-opacity="0.012"/>
<path d="M379 2 L379 124 C379 128.418 382.582 132 387 132 L584 132 C588.418 132 592 128.418 592 124 L592 2 C592 -2.418 588.418 -6 584 -6 L387 -6 C382.582 -6 379 -2.418 379 2 Z" fill="#B1512D" fill-opacity="0.02"/>
<path d="M381 3 L381 123 C381 126.866 384.134 130 388 130 L583 130 C586.866 130 590 126.866 590 123 L590 3 C590 -0.866 586.866 -4 583 -4 L388 -4 C384.134 -4 381 -0.866 381 3 Z" fill="#B1512D" fill-opacity="0.024"/>
<path d="M383 4 L383 122 C383 125.314 385.686 128 389 128 L582 128 C585.314 128 588 125.314 588 122 L588 4 C588 0.686 585.314 -2 582 -2 L389 -2 C385.686 -2 383 0.686 383 4 Z" fill="#B1512D" fill-opacity="0.031"/>
<path d="M379 4 L379 126 C379 130.418 382.582 134 387 134 L584 134 C588.418 134 592 130.418 592 126 L592 4 C592 -0.418 588.418 -4 584 -4 L387 -4 C382.582 -4 379 -0.418 379 4 Z" fill="#000000" fill-opacity="0.024"/>
<path d="M380 4.5 L380 125.5 C380 129.642 383.358 133 387.5 133 L583.5 133 C587.642 133 591 129.642 591 125.5 L591 4.5 C591 0.358 587.642 -3 583.5 -3 L387.5 -3 C383.358 -3 380 0.358 380 4.5 Z" fill="#000000" fill-opacity="0.024"/>
<path d="M381 5 L381 125 C381 128.866 384.134 132 388 132 L583 132 C586.866 132 590 128.866 590 125 L590 5 C590 1.134 586.866 -2 583 -2 L388 -2 C384.134 -2 381 1.134 381 5 Z" fill="#000000" fill-opacity="0.024"/>
<path d="M382 5.5 L382 124.5 C382 128.09 384.91 131 388.5 131 L582.5 131 C586.09 131 589 128.09 589 124.5 L589 5.5 C589 1.91 586.09 -1 582.5 -1 L388.5 -1 C384.91 -1 382 1.91 382 5.5 Z" fill="#000000" fill-opacity="0.024"/>
<path d="M383 6 L383 124 C383 127.314 385.686 130 389 130 L582 130 C585.314 130 588 127.314 588 124 L588 6 C588 2.686 585.314 0 582 0 L389 0 C385.686 0 383 2.686 383 6 Z" fill="#000000" fill-opacity="0.024"/>
<path d="M384 6.5 L384 123.5 C384 126.538 386.462 129 389.5 129 L581.5 129 C584.538 129 587 126.538 587 123.5 L587 6.5 C587 3.462 584.538 1 581.5 1 L389.5 1 C386.462 1 384 3.462 384 6.5 Z" fill="#000000" fill-opacity="0.024"/>
<path d="M385 5 L385 121 C385 123.761 387.239 126 390 126 L581 126 C583.761 126 586 123.761 586 121 L586 5 C586 2.239 583.761 0 581 0 L390 0 C387.239 0 385 2.239 385 5 Z" fill="#FBF7F0" fill-opacity="1"/>
<path d="M385 5 L385 25 C385 27.761 387.239 30 390 30 L581 30 C583.761 30 586 27.761 586 25 L586 5 C586 2.239 583.761 0 581 0 L390 0 C387.239 0 385 2.239 385 5 Z" fill="#B1512D" fill-opacity="1"/>
<path d="M385 20 L586 20 L586 30 L385 30 L385 20 Z" fill="#B1512D" fill-opacity="1"/>
<text x="399" y="21" font-family="sans-serif" font-size="13" font-weight="bold" fill="#FFFFFF" fill-opacity="1">customers</text>
<path d="M562 10 L574 10 L574 20 L562 20 L562 10 Z" fill="none" stroke="#FFFFFF" stroke-opacity="1" stroke-width="1.3" stroke-linecap="square" stroke-linejoin="miter"/>
<path d="M562 14 L574 14" fill="none" stroke="#FFFFFF" stroke-opacity="1" stroke-width="1.3" stroke-linecap="square" stroke-linejoin="miter"/>
<path d="M568 14 L568 20" fill="none" stroke="#FFFFFF" stroke-opacity="1" stroke-width="1.3" stroke-linecap="square" stroke-linejoin="miter"/>
<path d="M403 41 C403 42.657 401.657 44 400 44 C398.343 44 397 42.657 397 41 C397 39.343 398.343 38 400 38 C401.657 38 403 39.343 403 41 Z" fill="#B1512D" fill-opacity="1"/>
<path d="M403 41 L409 41" fill="none" stroke="#B1512D" stroke-opacity="1" stroke-width="1.3" stroke-linecap="square" stroke-linejoin="miter"/>
<path d="M409 41 L409 44" fill="none" stroke="#B1512D" stroke-opacity="1" stroke-width="1.3" stroke-linecap="square" stroke-linejoin="miter"/>
<path d="M406 41 L406 44" fill="none" stroke="#B1512D" stroke-opacity="1" stroke-width="1.3" stroke-linecap="square" stroke-linejoin="miter"/>
<text x="415" y="45" font-family="monospace" font-size="12" font-weight="normal" fill="#B1512D" fill-opacity="1">id</text>
<text x="544" y="45" font-family="monospace" font-size="12" font-weight="normal" fill="#8C8478" fill-opacity="1">uuid</text>
<text x="415" y="67" font-family="monospace" font-size="12" font-weight="normal" fill="#2B2620" fill-opacity="1">email</text>
<text x="544" y="67" font-family="monospace" font-size="12" font-weight="normal" fill="#8C8478" fill-opacity="1">text</text>
<text x="415" y="89" font-family="monospace" font-size="12" font-weight="normal" fill="#2B2620" fill-opacity="1">full_name</text>
<text x="544" y="89" font-family="monospace" font-size="12" font-weight="normal" fill="#8C8478" fill-opacity="1">text</text>
<text x="415" y="111" font-family="monospace" font-size="12" font-weight="normal" fill="#2B2620" fill-opacity="1">created_at</text>
<text x="509" y="111" font-family="monospace" font-size="12" font-weight="normal" fill="#8C8478" fill-opacity="1">timestamp</text>
<path d="M385 5 L385 121 C385 123.761 387.239 126 390 126 L581 126 C583.761 126 586 123.761 586 121 L586 5 C586 2.239 583.761 0 581 0 L390 0 C387.239 0 385 2.239 385 5 Z" fill="none" stroke="#E6DFD2" stroke-opacity="1" stroke-width="1" stroke-linecap="square" stroke-linejoin="miter"/>
<path d="M183 264 L183 388 C183 392.971 187.029 397 192 397 L363 397 C367.971 397 372 392.971 372 388 L372 264 C372 259.029 367.971 255 363 255 L192 255 C187.029 255 183 259.029 183 264 Z" fill="#B1512D" fill-opacity="0.004"/>
<path d="M185 265 L185 387 C185 391.418 188.582 395 193 395 L362 395 C366.418 395 370 391.418 370 387 L370 265 C370 260.582 366.418 257 362 257 L193 257 C188.582 257 185 260.582 185 265 Z" fill="#B1512D" fill-opacity="0.004"/>
<path d="M187 266 L187 386 C187 389.866 190.134 393 194 393 L361 393 C364.866 393 368 389.866 368 386 L368 266 C368 262.134 364.866 259 361 259 L194 259 C190.134 259 187 262.134 187 266 Z" fill="#B1512D" fill-opacity="0.008"/>
<path d="M188 266.5 L188 385.5 C188 389.09 190.91 392 194.5 392 L360.5 392 C364.09 392 367 389.09 367 385.5 L367 266.5 C367 262.91 364.09 260 360.5 260 L194.5 260 C190.91 260 188 262.91 188 266.5 Z" fill="#B1512D" fill-opacity="0.012"/>
<path d="M190 267.5 L190 384.5 C190 387.538 192.462 390 195.5 390 L359.5 390 C362.538 390 365 387.538 365 384.5 L365 267.5 C365 264.462 362.538 262 359.5 262 L195.5 262 C192.462 262 190 264.462 190 267.5 Z" fill="#B1512D" fill-opacity="0.012"/>
<path d="M185 267 L185 389 C185 393.418 188.582 397 193 397 L362 397 C366.418 397 370 393.418 370 389 L370 267 C370 262.582 366.418 259 362 259 L193 259 C188.582 259 185 262.582 185 267 Z" fill="#000000" fill-opacity="0.024"/>
<path d="M186 267.5 L186 388.5 C186 392.642 189.358 396 193.5 396 L361.5 396 C365.642 396 369 392.642 369 388.5 L369 267.5 C369 263.358 365.642 260 361.5 260 L193.5 260 C189.358 260 186 263.358 186 267.5 Z" fill="#000000" fill-opacity="0.024"/>
<path d="M187 268 L187 388 C187 391.866 190.134 395 194 395 L361 395 C364.866 395 368 391.866 368 388 L368 268 C368 264.134 364.866 261 361 261 L194 261 C190.134 261 187 264.134 187 268 Z" fill="#000000" fill-opacity="0.024"/>
<path d="M188 268.5 L188 387.5 C188 391.09 190.91 394 194.5 394 L360.5 394 C364.09 394 367 391.09 367 387.5 L367 268.5 C367 264.91 364.09 262 360.5 262 L194.5 262 C190.91 262 188 264.91 188 268.5 Z" fill="#000000" fill-opacity="0.024"/>
<path d="M189 269 L189 387 C189 390.314 191.686 393 195 393 L360 393 C363.314 393 366 390.314 366 387 L366 269 C366 265.686 363.314 263 360 263 L195 263 C191.686 263 189 265.686 189 269 Z" fill="#000000" fill-opacity="0.024"/>
<path d="M190 269.5 L190 386.5 C190 389.538 192.462 392 195.5 392 L359.5 392 C362.538 392 365 389.538 365 386.5 L365 269.5 C365 266.462 362.538 264 359.5 264 L195.5 264 C192.462 264 190 266.462 190 269.5 Z" fill="#000000" fill-opacity="0.024"/>
<path d="M191 268 L191 384 C191 386.761 193.239 389 196 389 L359 389 C361.761 389 364 386.761 364 384 L364 268 C364 265.239 361.761 263 359 263 L196 263 C193.239 263 191 265.239 191 268 Z" fill="#FBF7F0" fill-opacity="1"/>
<path d="M191 268 L191 288 C191 290.761 193.239 293 196 293 L359 293 C361.761 293 364 290.761 364 288 L364 268 C364 265.239 361.761 263 359 263 L196 263 C193.239 263 191 265.239 191 268 Z" fill="#B1512D" fill-opacity="1"/>
<path d="M191 283 L364 283 L364 293 L191 293 L191 283 Z" fill="#B1512D" fill-opacity="1"/>
<text x="205" y="284" font-family="sans-serif" font-size="13" font-weight="bold" fill="#FFFFFF" fill-opacity="1">addresses</text>
<path d="M340 273 L352 273 L352 283 L340 283 L340 273 Z" fill="none" stroke="#FFFFFF" stroke-opacity="1" stroke-width="1.3" stroke-linecap="square" stroke-linejoin="miter"/>
<path d="M340 277 L352 277" fill="none" stroke="#FFFFFF" stroke-opacity="1" stroke-width="1.3" stroke-linecap="square" stroke-linejoin="miter"/>
<path d="M346 277 L346 283" fill="none" stroke="#FFFFFF" stroke-opacity="1" stroke-width="1.3" stroke-linecap="square" stroke-linejoin="miter"/>
<path d="M209 304 C209 305.657 207.657 307 206 307 C204.343 307 203 305.657 203 304 C203 302.343 204.343 301 206 301 C207.657 301 209 302.343 209 304 Z" fill="#B1512D" fill-opacity="1"/>
<path d="M209 304 L215 304" fill="none" stroke="#B1512D" stroke-opacity="1" stroke-width="1.3" stroke-linecap="square" stroke-linejoin="miter"/>
<path d="M215 304 L215 307" fill="none" stroke="#B1512D" stroke-opacity="1" stroke-width="1.3" stroke-linecap="square" stroke-linejoin="miter"/>
<path d="M212 304 L212 307" fill="none" stroke="#B1512D" stroke-opacity="1" stroke-width="1.3" stroke-linecap="square" stroke-linejoin="miter"/>
<text x="221" y="308" font-family="monospace" font-size="12" font-weight="normal" fill="#B1512D" fill-opacity="1">id</text>
<text x="322" y="308" font-family="monospace" font-size="12" font-weight="normal" fill="#8C8478" fill-opacity="1">uuid</text>
<path d="M209 326 C209 327.657 207.657 329 206 329 C204.343 329 203 327.657 203 326 C203 324.343 204.343 323 206 323 C207.657 323 209 324.343 209 326 Z" fill="none" stroke="#DAAC98" stroke-opacity="1" stroke-width="1.3" stroke-linecap="square" stroke-linejoin="miter"/>
<path d="M209 326 L215 326" fill="none" stroke="#DAAC98" stroke-opacity="1" stroke-width="1.3" stroke-linecap="square" stroke-linejoin="miter"/>
<path d="M215 326 L215 329" fill="none" stroke="#DAAC98" stroke-opacity="1" stroke-width="1.3" stroke-linecap="square" stroke-linejoin="miter"/>
<path d="M212 326 L212 329" fill="none" stroke="#DAAC98" stroke-opacity="1" stroke-width="1.3" stroke-linecap="square" stroke-linejoin="miter"/>
<text x="221" y="330" font-family="monospace" font-size="12" font-weight="normal" fill="#2B2620" fill-opacity="1">customer_id</text>
<text x="322" y="330" font-family="monospace" font-size="12" font-weight="normal" fill="#8C8478" fill-opacity="1">uuid</text>
<text x="221" y="352" font-family="monospace" font-size="12" font-weight="normal" fill="#2B2620" fill-opacity="1">city</text>
<text x="322" y="352" font-family="monospace" font-size="12" font-weight="normal" fill="#8C8478" fill-opacity="1">text</text>
<text x="221" y="374" font-family="monospace" font-size="12" font-weight="normal" fill="#2B2620" fill-opacity="1">country</text>
<text x="322" y="374" font-family="monospace" font-size="12" font-weight="normal" fill="#8C8478" fill-opacity="1">text</text>
<path d="M191 268 L191 384 C191 386.761 193.239 389 196 389 L359 389 C361.761 389 364 386.761 364 384 L364 268 C364 265.239 361.761 263 359 263 L196 263 C193.239 263 191 265.239 191 268 Z" fill="none" stroke="#E6DFD2" stroke-opacity="1" stroke-width="1" stroke-linecap="square" stroke-linejoin="miter"/>
<path d="M738 12 L738 114 C738 118.971 742.029 123 747 123 L897 123 C901.971 123 906 118.971 906 114 L906 12 C906 7.029 901.971 3 897 3 L747 3 C742.029 3 738 7.029 738 12 Z" fill="#B1512D" fill-opacity="0.001"/>
<path d="M740 13 L740 113 C740 117.418 743.582 121 748 121 L896 121 C900.418 121 904 117.418 904 113 L904 13 C904 8.582 900.418 5 896 5 L748 5 C743.582 5 740 8.582 740 13 Z" fill="#B1512D" fill-opacity="0.001"/>
<path d="M742 14 L742 112 C742 115.866 745.134 119 749 119 L895 119 C898.866 119 902 115.866 902 112 L902 14 C902 10.134 898.866 7 895 7 L749 7 C745.134 7 742 10.134 742 14 Z" fill="#B1512D" fill-opacity="0.002"/>
<path d="M743 14.5 L743 111.5 C743 115.09 745.91 118 749.5 118 L894.5 118 C898.09 118 901 115.09 901 111.5 L901 14.5 C901 10.91 898.09 8 894.5 8 L749.5 8 C745.91 8 743 10.91 743 14.5 Z" fill="#B1512D" fill-opacity="0.003"/>
<path d="M745 15.5 L745 110.5 C745 113.538 747.462 116 750.5 116 L893.5 116 C896.538 116 899 113.538 899 110.5 L899 15.5 C899 12.462 896.538 10 893.5 10 L750.5 10 C747.462 10 745 12.462 745 15.5 Z" fill="#B1512D" fill-opacity="0.003"/>
<path d="M740 15 L740 115 C740 119.418 743.582 123 748 123 L896 123 C900.418 123 904 119.418 904 115 L904 15 C904 10.582 900.418 7 896 7 L748 7 C743.582 7 740 10.582 740 15 Z" fill="#000000" fill-opacity="0.005"/>
<path d="M741 15.5 L741 114.5 C741 118.642 744.358 122 748.5 122 L895.5 122 C899.642 122 903 118.642 903 114.5 L903 15.5 C903 11.358 899.642 8 895.5 8 L748.5 8 C744.358 8 741 11.358 741 15.5 Z" fill="#000000" fill-opacity="0.005"/>
<path d="M742 16 L742 114 C742 117.866 745.134 121 749 121 L895 121 C898.866 121 902 117.866 902 114 L902 16 C902 12.134 898.866 9 895 9 L749 9 C745.134 9 742 12.134 742 16 Z" fill="#000000" fill-opacity="0.005"/>
<path d="M743 16.5 L743 113.5 C743 117.09 745.91 120 749.5 120 L894.5 120 C898.09 120 901 117.09 901 113.5 L901 16.5 C901 12.91 898.09 10 894.5 10 L749.5 10 C745.91 10 743 12.91 743 16.5 Z" fill="#000000" fill-opacity="0.005"/>
<path d="M744 17 L744 113 C744 116.314 746.686 119 750 119 L894 119 C897.314 119 900 116.314 900 113 L900 17 C900 13.686 897.314 11 894 11 L750 11 C746.686 11 744 13.686 744 17 Z" fill="#000000" fill-opacity="0.005"/>
<path d="M745 17.5 L745 112.5 C745 115.538 747.462 118 750.5 118 L893.5 118 C896.538 118 899 115.538 899 112.5 L899 17.5 C899 14.462 896.538 12 893.5 12 L750.5 12 C747.462 12 745 14.462 745 17.5 Z" fill="#000000" fill-opacity="0.005"/>
<path d="M746 16 L746 110 C746 112.761 748.239 115 751 115 L893 115 C895.761 115 898 112.761 898 110 L898 16 C898 13.239 895.761 11 893 11 L751 11 C748.239 11 746 13.239 746 16 Z" fill="#FBF7F0" fill-opacity="0.22"/>
<path d="M746 16 L746 36 C746 38.761 748.239 41 751 41 L893 41 C895.761 41 898 38.761 898 36 L898 16 C898 13.239 895.761 11 893 11 L751 11 C748.239 11 746 13.239 746 16 Z" fill="#B1512D" fill-opacity="0.22"/>
<path d="M746 31 L898 31 L898 41 L746 41 L746 31 Z" fill="#B1512D" fill-opacity="0.22"/>
<text x="760" y="32" font-family="sans-serif" font-size="13" font-weight="bold" fill="#FFFFFF" fill-opacity="0.22">categories</text>
<path d="M874 21 L886 21 L886 31 L874 31 L874 21 Z" fill="none" stroke="#FFFFFF" stroke-opacity="0.22" stroke-width="1.3" stroke-linecap="square" stroke-linejoin="miter"/>
<path d="M874 25 L886 25" fill="none" stroke="#FFFFFF" stroke-opacity="0.22" stroke-width="1.3" stroke-linecap="square" stroke-linejoin="miter"/>
<path d="M880 25 L880 31" fill="none" stroke="#FFFFFF" stroke-opacity="0.22" stroke-width="1.3" stroke-linecap="square" stroke-linejoin="miter"/>
<path d="M764 52 C764 53.657 762.657 55 761 55 C759.343 55 758 53.657 758 52 C758 50.343 759.343 49 761 49 C762.657 49 764 50.343 764 52 Z" fill="#B1512D" fill-opacity="0.22"/>
<path d="M764 52 L770 52" fill="none" stroke="#B1512D" stroke-opacity="0.22" stroke-width="1.3" stroke-linecap="square" stroke-linejoin="miter"/>
<path d="M770 52 L770 55" fill="none" stroke="#B1512D" stroke-opacity="0.22" stroke-width="1.3" stroke-linecap="square" stroke-linejoin="miter"/>
<path d="M767 52 L767 55" fill="none" stroke="#B1512D" stroke-opacity="0.22" stroke-width="1.3" stroke-linecap="square" stroke-linejoin="miter"/>
<text x="776" y="56" font-family="monospace" font-size="12" font-weight="normal" fill="#B1512D" fill-opacity="0.22">id</text>
<text x="863" y="56" font-family="monospace" font-size="12" font-weight="normal" fill="#8C8478" fill-opacity="0.22">int</text>
<path d="M764 74 C764 75.657 762.657 77 761 77 C759.343 77 758 75.657 758 74 C758 72.343 759.343 71 761 71 C762.657 71 764 72.343 764 74 Z" fill="none" stroke="#DAAC98" stroke-opacity="0.22" stroke-width="1.3" stroke-linecap="square" stroke-linejoin="miter"/>
<path d="M764 74 L770 74" fill="none" stroke="#DAAC98" stroke-opacity="0.22" stroke-width="1.3" stroke-linecap="square" stroke-linejoin="miter"/>
<path d="M770 74 L770 77" fill="none" stroke="#DAAC98" stroke-opacity="0.22" stroke-width="1.3" stroke-linecap="square" stroke-linejoin="miter"/>
<path d="M767 74 L767 77" fill="none" stroke="#DAAC98" stroke-opacity="0.22" stroke-width="1.3" stroke-linecap="square" stroke-linejoin="miter"/>
<text x="776" y="78" font-family="monospace" font-size="12" font-weight="normal" fill="#2B2620" fill-opacity="0.22">parent_id</text>
<text x="863" y="78" font-family="monospace" font-size="12" font-weight="normal" fill="#8C8478" fill-opacity="0.22">int</text>
<text x="776" y="100" font-family="monospace" font-size="12" font-weight="normal" fill="#2B2620" fill-opacity="0.22">name</text>
<text x="856" y="100" font-family="monospace" font-size="12" font-weight="normal" fill="#8C8478" fill-opacity="0.22">text</text>
<path d="M746 16 L746 110 C746 112.761 748.239 115 751 115 L893 115 C895.761 115 898 112.761 898 110 L898 16 C898 13.239 895.761 11 893 11 L751 11 C748.239 11 746 13.239 746 16 Z" fill="none" stroke="#E6DFD2" stroke-opacity="0.22" stroke-width="1" stroke-linecap="square" stroke-linejoin="miter"/>
<path d="M729 252 L729 400 C729 405.523 733.477 410 739 410 L905 410 C910.523 410 915 405.523 915 400 L915 252 C915 246.477 910.523 242 905 242 L739 242 C733.477 242 729 246.477 729 252 Z" fill="#B1512D" fill-opacity="0.001"/>
<path d="M731 253 L731 399 C731 403.971 735.029 408 740 408 L904 408 C908.971 408 913 403.971 913 399 L913 253 C913 248.029 908.971 244 904 244 L740 244 C735.029 244 731 248.029 731 253 Z" fill="#B1512D" fill-opacity="0.003"/>
<path d="M733 254 L733 398 C733 402.418 736.582 406 741 406 L903 406 C907.418 406 911 402.418 911 398 L911 254 C911 249.582 907.418 246 903 246 L741 246 C736.582 246 733 249.582 733 254 Z" fill="#B1512D" fill-opacity="0.004"/>
<path d="M735 255 L735 397 C735 400.866 738.134 404 742 404 L902 404 C905.866 404 909 400.866 909 397 L909 255 C909 251.134 905.866 248 902 248 L742 248 C738.134 248 735 251.134 735 255 Z" fill="#B1512D" fill-opacity="0.005"/>
<path d="M737 256 L737 396 C737 399.314 739.686 402 743 402 L901 402 C904.314 402 907 399.314 907 396 L907 256 C907 252.686 904.314 250 901 250 L743 250 C739.686 250 737 252.686 737 256 Z" fill="#B1512D" fill-opacity="0.007"/>
<path d="M733 256 L733 400 C733 404.418 736.582 408 741 408 L903 408 C907.418 408 911 404.418 911 400 L911 256 C911 251.582 907.418 248 903 248 L741 248 C736.582 248 733 251.582 733 256 Z" fill="#000000" fill-opacity="0.005"/>
<path d="M734 256.5 L734 399.5 C734 403.642 737.358 407 741.5 407 L902.5 407 C906.642 407 910 403.642 910 399.5 L910 256.5 C910 252.358 906.642 249 902.5 249 L741.5 249 C737.358 249 734 252.358 734 256.5 Z" fill="#000000" fill-opacity="0.005"/>
<path d="M735 257 L735 399 C735 402.866 738.134 406 742 406 L902 406 C905.866 406 909 402.866 909 399 L909 257 C909 253.134 905.866 250 902 250 L742 250 C738.134 250 735 253.134 735 257 Z" fill="#000000" fill-opacity="0.005"/>
<path d="M736 257.5 L736 398.5 C736 402.09 738.91 405 742.5 405 L901.5 405 C905.09 405 908 402.09 908 398.5 L908 257.5 C908 253.91 905.09 251 901.5 251 L742.5 251 C738.91 251 736 253.91 736 257.5 Z" fill="#000000" fill-opacity="0.005"/>
<path d="M737 258 L737 398 C737 401.314 739.686 404 743 404 L901 404 C904.314 404 907 401.314 907 398 L907 258 C907 254.686 904.314 252 901 252 L743 252 C739.686 252 737 254.686 737 258 Z" fill="#000000" fill-opacity="0.005"/>
<path d="M738 258.5 L738 397.5 C738 400.538 740.462 403 743.5 403 L900.5 403 C903.538 403 906 400.538 906 397.5 L906 258.5 C906 255.462 903.538 253 900.5 253 L743.5 253 C740.462 253 738 255.462 738 258.5 Z" fill="#000000" fill-opacity="0.005"/>
<path d="M739 257 L739 395 C739 397.761 741.239 400 744 400 L900 400 C902.761 400 905 397.761 905 395 L905 257 C905 254.239 902.761 252 900 252 L744 252 C741.239 252 739 254.239 739 257 Z" fill="#FBF7F0" fill-opacity="0.22"/>
<path d="M739 257 L739 277 C739 279.761 741.239 282 744 282 L900 282 C902.761 282 905 279.761 905 277 L905 257 C905 254.239 902.761 252 900 252 L744 252 C741.239 252 739 254.239 739 257 Z" fill="#B1512D" fill-opacity="0.22"/>
<path d="M739 272 L905 272 L905 282 L739 282 L739 272 Z" fill="#B1512D" fill-opacity="0.22"/>
<text x="753" y="273" font-family="sans-serif" font-size="13" font-weight="bold" fill="#FFFFFF" fill-opacity="0.22">products</text>
<path d="M881 262 L893 262 L893 272 L881 272 L881 262 Z" fill="none" stroke="#FFFFFF" stroke-opacity="0.22" stroke-width="1.3" stroke-linecap="square" stroke-linejoin="miter"/>
<path d="M881 266 L893 266" fill="none" stroke="#FFFFFF" stroke-opacity="0.22" stroke-width="1.3" stroke-linecap="square" stroke-linejoin="miter"/>
<path d="M887 266 L887 272" fill="none" stroke="#FFFFFF" stroke-opacity="0.22" stroke-width="1.3" stroke-linecap="square" stroke-linejoin="miter"/>
<path d="M757 293 C757 294.657 755.657 296 754 296 C752.343 296 751 294.657 751 293 C751 291.343 752.343 290 754 290 C755.657 290 757 291.343 757 293 Z" fill="#B1512D" fill-opacity="0.22"/>
<path d="M757 293 L763 293" fill="none" stroke="#B1512D" stroke-opacity="0.22" stroke-width="1.3" stroke-linecap="square" stroke-linejoin="miter"/>
<path d="M763 293 L763 296" fill="none" stroke="#B1512D" stroke-opacity="0.22" stroke-width="1.3" stroke-linecap="square" stroke-linejoin="miter"/>
<path d="M760 293 L760 296" fill="none" stroke="#B1512D" stroke-opacity="0.22" stroke-width="1.3" stroke-linecap="square" stroke-linejoin="miter"/>
<text x="769" y="297" font-family="monospace" font-size="12" font-weight="normal" fill="#B1512D" fill-opacity="0.22">id</text>
<text x="863" y="297" font-family="monospace" font-size="12" font-weight="normal" fill="#8C8478" fill-opacity="0.22">uuid</text>
<path d="M757 315 C757 316.657 755.657 318 754 318 C752.343 318 751 316.657 751 315 C751 313.343 752.343 312 754 312 C755.657 312 757 313.343 757 315 Z" fill="none" stroke="#DAAC98" stroke-opacity="0.22" stroke-width="1.3" stroke-linecap="square" stroke-linejoin="miter"/>
<path d="M757 315 L763 315" fill="none" stroke="#DAAC98" stroke-opacity="0.22" stroke-width="1.3" stroke-linecap="square" stroke-linejoin="miter"/>
<path d="M763 315 L763 318" fill="none" stroke="#DAAC98" stroke-opacity="0.22" stroke-width="1.3" stroke-linecap="square" stroke-linejoin="miter"/>
<path d="M760 315 L760 318" fill="none" stroke="#DAAC98" stroke-opacity="0.22" stroke-width="1.3" stroke-linecap="square" stroke-linejoin="miter"/>
<text x="769" y="319" font-family="monospace" font-size="12" font-weight="normal" fill="#2B2620" fill-opacity="0.22">category_id</text>
<text x="870" y="319" font-family="monospace" font-size="12" font-weight="normal" fill="#8C8478" fill-opacity="0.22">int</text>
<text x="769" y="341" font-family="monospace" font-size="12" font-weight="normal" fill="#2B2620" fill-opacity="0.22">sku</text>
<text x="863" y="341" font-family="monospace" font-size="12" font-weight="normal" fill="#8C8478" fill-opacity="0.22">text</text>
<text x="769" y="363" font-family="monospace" font-size="12" font-weight="normal" fill="#2B2620" fill-opacity="0.22">name</text>
<text x="863" y="363" font-family="monospace" font-size="12" font-weight="normal" fill="#8C8478" fill-opacity="0.22">text</text>
<text x="769" y="385" font-family="monospace" font-size="12" font-weight="normal" fill="#2B2620" fill-opacity="0.22">price</text>
<text x="842" y="385" font-family="monospace" font-size="12" font-weight="normal" fill="#8C8478" fill-opacity="0.22">decimal</text>
<path d="M739 257 L739 395 C739 397.761 741.239 400 744 400 L900 400 C902.761 400 905 397.761 905 395 L905 257 C905 254.239 902.761 252 900 252 L744 252 C741.239 252 739 254.239 739 257 Z" fill="none" stroke="#E6DFD2" stroke-opacity="0.22" stroke-width="1" stroke-linecap="square" stroke-linejoin="miter"/>
<path d="M256 520 L256 702 C256 710.837 263.163 718 272 718 L478 718 C486.837 718 494 710.837 494 702 L494 520 C494 511.163 486.837 504 478 504 L272 504 C263.163 504 256 511.163 256 520 Z" fill="#B1512D" fill-opacity="0.024"/>
<path d="M261 522.5 L261 699.5 C261 706.956 267.044 713 274.5 713 L475.5 713 C482.956 713 489 706.956 489 699.5 L489 522.5 C489 515.044 482.956 509 475.5 509 L274.5 509 C267.044 509 261 515.044 261 522.5 Z" fill="#B1512D" fill-opacity="0.047"/>
<path d="M265 524.5 L265 697.5 C265 703.851 270.149 709 276.5 709 L473.5 709 C479.851 709 485 703.851 485 697.5 L485 524.5 C485 518.149 479.851 513 473.5 513 L276.5 513 C270.149 513 265 518.149 265 524.5 Z" fill="#B1512D" fill-opacity="0.071"/>
<path d="M270 527 L270 695 C270 699.971 274.029 704 279 704 L471 704 C475.971 704 480 699.971 480 695 L480 527 C480 522.029 475.971 518 471 518 L279 518 C274.029 518 270 522.029 270 527 Z" fill="#B1512D" fill-opacity="0.094"/>
<path d="M274 529 L274 693 C274 696.866 277.134 700 281 700 L469 700 C472.866 700 476 696.866 476 693 L476 529 C476 525.134 472.866 522 469 522 L281 522 C277.134 522 274 525.134 274 529 Z" fill="#B1512D" fill-opacity="0.118"/>
<path d="M272 530 L272 696 C272 700.418 275.582 704 280 704 L470 704 C474.418 704 478 700.418 478 696 L478 530 C478 525.582 474.418 522 470 522 L280 522 C275.582 522 272 525.582 272 530 Z" fill="#000000" fill-opacity="0.024"/>
<path d="M273 530.5 L273 695.5 C273 699.642 276.358 703 280.5 703 L469.5 703 C473.642 703 477 699.642 477 695.5 L477 530.5 C477 526.358 473.642 523 469.5 523 L280.5 523 C276.358 523 273 526.358 273 530.5 Z" fill="#000000" fill-opacity="0.024"/>
<path d="M274 531 L274 695 C274 698.866 277.134 702 281 702 L469 702 C472.866 702 476 698.866 476 695 L476 531 C476 527.134 472.866 524 469 524 L281 524 C277.134 524 274 527.134 274 531 Z" fill="#000000" fill-opacity="0.024"/>
<path d="M275 531.5 L275 694.5 C275 698.09 277.91 701 281.5 701 L468.5 701 C472.09 701 475 698.09 475 694.5 L475 531.5 C475 527.91 472.09 525 468.5 525 L281.5 525 C277.91 525 275 527.91 275 531.5 Z" fill="#000000" fill-opacity="0.024"/>
<path d="M276 532 L276 694 C276 697.314 278.686 700 282 700 L468 700 C471.314 700 474 697.314 474 694 L474 532 C474 528.686 471.314 526 468 526 L282 526 C278.686 526 276 528.686 276 532 Z" fill="#000000" fill-opacity="0.024"/>
<path d="M277 532.5 L277 693.5 C277 696.538 279.462 699 282.5 699 L467.5 699 C470.538 699 473 696.538 473 693.5 L473 532.5 C473 529.462 470.538 527 467.5 527 L282.5 527 C279.462 527 277 529.462 277 532.5 Z" fill="#000000" fill-opacity="0.024"/>
<path d="M278 531 L278 691 C278 693.761 280.239 696 283 696 L467 696 C469.761 696 472 693.761 472 691 L472 531 C472 528.239 469.761 526 467 526 L283 526 C280.239 526 278 528.239 278 531 Z" fill="#FBF7F0" fill-opacity="1"/>
<path d="M278 531 L278 551 C278 553.761 280.239 556 283 556 L467 556 C469.761 556 472 553.761 472 551 L472 531 C472 528.239 469.761 526 467 526 L283 526 C280.239 526 278 528.239 278 531 Z" fill="#B1512D" fill-opacity="1"/>
<path d="M278 546 L472 546 L472 556 L278 556 L278 546 Z" fill="#B1512D" fill-opacity="1"/>
<text x="292" y="547" font-family="sans-serif" font-size="13" font-weight="bold" fill="#FFFFFF" fill-opacity="1">orders</text>
<path d="M448 536 L460 536 L460 546 L448 546 L448 536 Z" fill="none" stroke="#FFFFFF" stroke-opacity="1" stroke-width="1.3" stroke-linecap="square" stroke-linejoin="miter"/>
<path d="M448 540 L460 540" fill="none" stroke="#FFFFFF" stroke-opacity="1" stroke-width="1.3" stroke-linecap="square" stroke-linejoin="miter"/>
<path d="M454 540 L454 546" fill="none" stroke="#FFFFFF" stroke-opacity="1" stroke-width="1.3" stroke-linecap="square" stroke-linejoin="miter"/>
<path d="M296 567 C296 568.657 294.657 570 293 570 C291.343 570 290 568.657 290 567 C290 565.343 291.343 564 293 564 C294.657 564 296 565.343 296 567 Z" fill="#B1512D" fill-opacity="1"/>
<path d="M296 567 L302 567" fill="none" stroke="#B1512D" stroke-opacity="1" stroke-width="1.3" stroke-linecap="square" stroke-linejoin="miter"/>
<path d="M302 567 L302 570" fill="none" stroke="#B1512D" stroke-opacity="1" stroke-width="1.3" stroke-linecap="square" stroke-linejoin="miter"/>
<path d="M299 567 L299 570" fill="none" stroke="#B1512D" stroke-opacity="1" stroke-width="1.3" stroke-linecap="square" stroke-linejoin="miter"/>
<text x="308" y="571" font-family="monospace" font-size="12" font-weight="normal" fill="#B1512D" fill-opacity="1">id</text>
<text x="430" y="571" font-family="monospace" font-size="12" font-weight="normal" fill="#8C8478" fill-opacity="1">uuid</text>
<path d="M296 589 C296 590.657 294.657 592 293 592 C291.343 592 290 590.657 290 589 C290 587.343 291.343 586 293 586 C294.657 586 296 587.343 296 589 Z" fill="none" stroke="#DAAC98" stroke-opacity="1" stroke-width="1.3" stroke-linecap="square" stroke-linejoin="miter"/>
<path d="M296 589 L302 589" fill="none" stroke="#DAAC98" stroke-opacity="1" stroke-width="1.3" stroke-linecap="square" stroke-linejoin="miter"/>
<path d="M302 589 L302 592" fill="none" stroke="#DAAC98" stroke-opacity="1" stroke-width="1.3" stroke-linecap="square" stroke-linejoin="miter"/>
<path d="M299 589 L299 592" fill="none" stroke="#DAAC98" stroke-opacity="1" stroke-width="1.3" stroke-linecap="square" stroke-linejoin="miter"/>
<text x="308" y="593" font-family="monospace" font-size="12" font-weight="normal" fill="#2B2620" fill-opacity="1">customer_id</text>
<text x="430" y="593" font-family="monospace" font-size="12" font-weight="normal" fill="#8C8478" fill-opacity="1">uuid</text>
<path d="M296 611 C296 612.657 294.657 614 293 614 C291.343 614 290 612.657 290 611 C290 609.343 291.343 608 293 608 C294.657 608 296 609.343 296 611 Z" fill="none" stroke="#DAAC98" stroke-opacity="1" stroke-width="1.3" stroke-linecap="square" stroke-linejoin="miter"/>
<path d="M296 611 L302 611" fill="none" stroke="#DAAC98" stroke-opacity="1" stroke-width="1.3" stroke-linecap="square" stroke-linejoin="miter"/>
<path d="M302 611 L302 614" fill="none" stroke="#DAAC98" stroke-opacity="1" stroke-width="1.3" stroke-linecap="square" stroke-linejoin="miter"/>
<path d="M299 611 L299 614" fill="none" stroke="#DAAC98" stroke-opacity="1" stroke-width="1.3" stroke-linecap="square" stroke-linejoin="miter"/>
<text x="308" y="615" font-family="monospace" font-size="12" font-weight="normal" fill="#2B2620" fill-opacity="1">address_id</text>
<text x="430" y="615" font-family="monospace" font-size="12" font-weight="normal" fill="#8C8478" fill-opacity="1">uuid</text>
<text x="308" y="637" font-family="monospace" font-size="12" font-weight="normal" fill="#2B2620" fill-opacity="1">status</text>
<text x="430" y="637" font-family="monospace" font-size="12" font-weight="normal" fill="#8C8478" fill-opacity="1">text</text>
<text x="308" y="659" font-family="monospace" font-size="12" font-weight="normal" fill="#2B2620" fill-opacity="1">total</text>
<text x="409" y="659" font-family="monospace" font-size="12" font-weight="normal" fill="#8C8478" fill-opacity="1">decimal</text>
<text x="308" y="681" font-family="monospace" font-size="12" font-weight="normal" fill="#2B2620" fill-opacity="1">placed_at</text>
<text x="395" y="681" font-family="monospace" font-size="12" font-weight="normal" fill="#8C8478" fill-opacity="1">timestamp</text>
<path d="M278 531 L278 691 C278 693.761 280.239 696 283 696 L467 696 C469.761 696 472 693.761 472 691 L472 531 C472 528.239 469.761 526 467 526 L283 526 C280.239 526 278 528.239 278 531 Z" fill="none" stroke="#B1512D" stroke-opacity="1" stroke-width="2" stroke-linecap="square" stroke-linejoin="miter"/>
<path d="M720 823 L720 969 C720 973.971 724.029 978 729 978 L914 978 C918.971 978 923 973.971 923 969 L923 823 C923 818.029 918.971 814 914 814 L729 814 C724.029 814 720 818.029 720 823 Z" fill="#B1512D" fill-opacity="0.004"/>
<path d="M722 824 L722 968 C722 972.418 725.582 976 730 976 L913 976 C917.418 976 921 972.418 921 968 L921 824 C921 819.582 917.418 816 913 816 L730 816 C725.582 816 722 819.582 722 824 Z" fill="#B1512D" fill-opacity="0.004"/>
<path d="M724 825 L724 967 C724 970.866 727.134 974 731 974 L912 974 C915.866 974 919 970.866 919 967 L919 825 C919 821.134 915.866 818 912 818 L731 818 C727.134 818 724 821.134 724 825 Z" fill="#B1512D" fill-opacity="0.008"/>
<path d="M725 825.5 L725 966.5 C725 970.09 727.91 973 731.5 973 L911.5 973 C915.09 973 918 970.09 918 966.5 L918 825.5 C918 821.91 915.09 819 911.5 819 L731.5 819 C727.91 819 725 821.91 725 825.5 Z" fill="#B1512D" fill-opacity="0.012"/>
<path d="M727 826.5 L727 965.5 C727 968.538 729.462 971 732.5 971 L910.5 971 C913.538 971 916 968.538 916 965.5 L916 826.5 C916 823.462 913.538 821 910.5 821 L732.5 821 C729.462 821 727 823.462 727 826.5 Z" fill="#B1512D" fill-opacity="0.012"/>
<path d="M722 826 L722 970 C722 974.418 725.582 978 730 978 L913 978 C917.418 978 921 974.418 921 970 L921 826 C921 821.582 917.418 818 913 818 L730 818 C725.582 818 722 821.582 722 826 Z" fill="#000000" fill-opacity="0.024"/>
<path d="M723 826.5 L723 969.5 C723 973.642 726.358 977 730.5 977 L912.5 977 C916.642 977 920 973.642 920 969.5 L920 826.5 C920 822.358 916.642 819 912.5 819 L730.5 819 C726.358 819 723 822.358 723 826.5 Z" fill="#000000" fill-opacity="0.024"/>
<path d="M724 827 L724 969 C724 972.866 727.134 976 731 976 L912 976 C915.866 976 919 972.866 919 969 L919 827 C919 823.134 915.866 820 912 820 L731 820 C727.134 820 724 823.134 724 827 Z" fill="#000000" fill-opacity="0.024"/>
<path d="M725 827.5 L725 968.5 C725 972.09 727.91 975 731.5 975 L911.5 975 C915.09 975 918 972.09 918 968.5 L918 827.5 C918 823.91 915.09 821 911.5 821 L731.5 821 C727.91 821 725 823.91 725 827.5 Z" fill="#000000" fill-opacity="0.024"/>
<path d="M726 828 L726 968 C726 971.314 728.686 974 732 974 L911 974 C914.314 974 917 971.314 917 968 L917 828 C917 824.686 914.314 822 911 822 L732 822 C728.686 822 726 824.686 726 828 Z" fill="#000000" fill-opacity="0.024"/>
<path d="M727 828.5 L727 967.5 C727 970.538 729.462 973 732.5 973 L910.5 973 C913.538 973 916 970.538 916 967.5 L916 828.5 C916 825.462 913.538 823 910.5 823 L732.5 823 C729.462 823 727 825.462 727 828.5 Z" fill="#000000" fill-opacity="0.024"/>
<path d="M728 827 L728 965 C728 967.761 730.239 970 733 970 L910 970 C912.761 970 915 967.761 915 965 L915 827 C915 824.239 912.761 822 910 822 L733 822 C730.239 822 728 824.239 728 827 Z" fill="#FBF7F0" fill-opacity="1"/>
<path d="M728 827 L728 847 C728 849.761 730.239 852 733 852 L910 852 C912.761 852 915 849.761 915 847 L915 827 C915 824.239 912.761 822 910 822 L733 822 C730.239 822 728 824.239 728 827 Z" fill="#B1512D" fill-opacity="1"/>
<path d="M728 842 L915 842 L915 852 L728 852 L728 842 Z" fill="#B1512D" fill-opacity="1"/>
<text x="742" y="843" font-family="sans-serif" font-size="13" font-weight="bold" fill="#FFFFFF" fill-opacity="1">order_items</text>
<path d="M891 832 L903 832 L903 842 L891 842 L891 832 Z" fill="none" stroke="#FFFFFF" stroke-opacity="1" stroke-width="1.3" stroke-linecap="square" stroke-linejoin="miter"/>
<path d="M891 836 L903 836" fill="none" stroke="#FFFFFF" stroke-opacity="1" stroke-width="1.3" stroke-linecap="square" stroke-linejoin="miter"/>
<path d="M897 836 L897 842" fill="none" stroke="#FFFFFF" stroke-opacity="1" stroke-width="1.3" stroke-linecap="square" stroke-linejoin="miter"/>
<path d="M746 863 C746 864.657 744.657 866 743 866 C741.343 866 740 864.657 740 863 C740 861.343 741.343 860 743 860 C744.657 860 746 861.343 746 863 Z" fill="#B1512D" fill-opacity="1"/>
<path d="M746 863 L752 863" fill="none" stroke="#B1512D" stroke-opacity="1" stroke-width="1.3" stroke-linecap="square" stroke-linejoin="miter"/>
<path d="M752 863 L752 866" fill="none" stroke="#B1512D" stroke-opacity="1" stroke-width="1.3" stroke-linecap="square" stroke-linejoin="miter"/>
<path d="M749 863 L749 866" fill="none" stroke="#B1512D" stroke-opacity="1" stroke-width="1.3" stroke-linecap="square" stroke-linejoin="miter"/>
<text x="758" y="867" font-family="monospace" font-size="12" font-weight="normal" fill="#B1512D" fill-opacity="1">id</text>
<text x="873" y="867" font-family="monospace" font-size="12" font-weight="normal" fill="#8C8478" fill-opacity="1">uuid</text>
<path d="M746 885 C746 886.657 744.657 888 743 888 C741.343 888 740 886.657 740 885 C740 883.343 741.343 882 743 882 C744.657 882 746 883.343 746 885 Z" fill="none" stroke="#DAAC98" stroke-opacity="1" stroke-width="1.3" stroke-linecap="square" stroke-linejoin="miter"/>
<path d="M746 885 L752 885" fill="none" stroke="#DAAC98" stroke-opacity="1" stroke-width="1.3" stroke-linecap="square" stroke-linejoin="miter"/>
<path d="M752 885 L752 888" fill="none" stroke="#DAAC98" stroke-opacity="1" stroke-width="1.3" stroke-linecap="square" stroke-linejoin="miter"/>
<path d="M749 885 L749 888" fill="none" stroke="#DAAC98" stroke-opacity="1" stroke-width="1.3" stroke-linecap="square" stroke-linejoin="miter"/>
<text x="758" y="889" font-family="monospace" font-size="12" font-weight="normal" fill="#2B2620" fill-opacity="1">order_id</text>
<text x="873" y="889" font-family="monospace" font-size="12" font-weight="normal" fill="#8C8478" fill-opacity="1">uuid</text>
<path d="M746 907 C746 908.657 744.657 910 743 910 C741.343 910 740 908.657 740 907 C740 905.343 741.343 904 743 904 C744.657 904 746 905.343 746 907 Z" fill="none" stroke="#DAAC98" stroke-opacity="1" stroke-width="1.3" stroke-linecap="square" stroke-linejoin="miter"/>
<path d="M746 907 L752 907" fill="none" stroke="#DAAC98" stroke-opacity="1" stroke-width="1.3" stroke-linecap="square" stroke-linejoin="miter"/>
<path d="M752 907 L752 910" fill="none" stroke="#DAAC98" stroke-opacity="1" stroke-width="1.3" stroke-linecap="square" stroke-linejoin="miter"/>
<path d="M749 907 L749 910" fill="none" stroke="#DAAC98" stroke-opacity="1" stroke-width="1.3" stroke-linecap="square" stroke-linejoin="miter"/>
<text x="758" y="911" font-family="monospace" font-size="12" font-weight="normal" fill="#2B2620" fill-opacity="1">product_id</text>
<text x="873" y="911" font-family="monospace" font-size="12" font-weight="normal" fill="#8C8478" fill-opacity="1">uuid</text>
<text x="758" y="933" font-family="monospace" font-size="12" font-weight="normal" fill="#2B2620" fill-opacity="1">quantity</text>
<text x="880" y="933" font-family="monospace" font-size="12" font-weight="normal" fill="#8C8478" fill-opacity="1">int</text>
<text x="758" y="955" font-family="monospace" font-size="12" font-weight="normal" fill="#2B2620" fill-opacity="1">unit_price</text>
<text x="852" y="955" font-family="monospace" font-size="12" font-weight="normal" fill="#8C8478" fill-opacity="1">decimal</text>
<path d="M728 827 L728 965 C728 967.761 730.239 970 733 970 L910 970 C912.761 970 915 967.761 915 965 L915 827 C915 824.239 912.761 822 910 822 L733 822 C730.239 822 728 824.239 728 827 Z" fill="none" stroke="#E6DFD2" stroke-opacity="1" stroke-width="1" stroke-linecap="square" stroke-linejoin="miter"/>
<path d="M-6 835 L-6 957 C-6 961.418 -2.418 965 2 965 L157 965 C161.418 965 165 961.418 165 957 L165 835 C165 830.582 161.418 827 157 827 L2 827 C-2.418 827 -6 830.582 -6 835 Z" fill="#B1512D" fill-opacity="0"/>
<path d="M-4 836 L-4 956 C-4 959.866 -0.866 963 3 963 L156 963 C159.866 963 163 959.866 163 956 L163 836 C163 832.134 159.866 829 156 829 L3 829 C-0.866 829 -4 832.134 -4 836 Z" fill="#B1512D" fill-opacity="0"/>
<path d="M-3 836.5 L-3 955.5 C-3 959.09 -0.09 962 3.5 962 L155.5 962 C159.09 962 162 959.09 162 955.5 L162 836.5 C162 832.91 159.09 830 155.5 830 L3.5 830 C-0.09 830 -3 832.91 -3 836.5 Z" fill="#B1512D" fill-opacity="0"/>
<path d="M-2 837 L-2 955 C-2 958.314 0.686 961 4 961 L155 961 C158.314 961 161 958.314 161 955 L161 837 C161 833.686 158.314 831 155 831 L4 831 C0.686 831 -2 833.686 -2 837 Z" fill="#B1512D" fill-opacity="0.004"/>
<path d="M-1 837.5 L-1 954.5 C-1 957.538 1.462 960 4.5 960 L154.5 960 C157.538 960 160 957.538 160 954.5 L160 837.5 C160 834.462 157.538 832 154.5 832 L4.5 832 C1.462 832 -1 834.462 -1 837.5 Z" fill="#B1512D" fill-opacity="0.004"/>
<path d="M-6 837 L-6 959 C-6 963.418 -2.418 967 2 967 L157 967 C161.418 967 165 963.418 165 959 L165 837 C165 832.582 161.418 829 157 829 L2 829 C-2.418 829 -6 832.582 -6 837 Z" fill="#000000" fill-opacity="0.024"/>
<path d="M-5 837.5 L-5 958.5 C-5 962.642 -1.642 966 2.5 966 L156.5 966 C160.642 966 164 962.642 164 958.5 L164 837.5 C164 833.358 160.642 830 156.5 830 L2.5 830 C-1.642 830 -5 833.358 -5 837.5 Z" fill="#000000" fill-opacity="0.024"/>
<path d="M-4 838 L-4 958 C-4 961.866 -0.866 965 3 965 L156 965 C159.866 965 163 961.866 163 958 L163 838 C163 834.134 159.866 831 156 831 L3 831 C-0.866 831 -4 834.134 -4 838 Z" fill="#000000" fill-opacity="0.024"/>
<path d="M-3 838.5 L-3 957.5 C-3 961.09 -0.09 964 3.5 964 L155.5 964 C159.09 964 162 961.09 162 957.5 L162 838.5 C162 834.91 159.09 832 155.5 832 L3.5 832 C-0.09 832 -3 834.91 -3 838.5 Z" fill="#000000" fill-opacity="0.024"/>
<path d="M-2 839 L-2 957 C-2 960.314 0.686 963 4 963 L155 963 C158.314 963 161 960.314 161 957 L161 839 C161 835.686 158.314 833 155 833 L4 833 C0.686 833 -2 835.686 -2 839 Z" fill="#000000" fill-opacity="0.024"/>
<path d="M-1 839.5 L-1 956.5 C-1 959.538 1.462 962 4.5 962 L154.5 962 C157.538 962 160 959.538 160 956.5 L160 839.5 C160 836.462 157.538 834 154.5 834 L4.5 834 C1.462 834 -1 836.462 -1 839.5 Z" fill="#000000" fill-opacity="0.024"/>
<path d="M0 838 L0 954 C0 956.761 2.239 959 5 959 L154 959 C156.761 959 159 956.761 159 954 L159 838 C159 835.239 156.761 833 154 833 L5 833 C2.239 833 0 835.239 0 838 Z" fill="#FBF7F0" fill-opacity="1"/>
<path d="M0 838 L0 858 C0 860.761 2.239 863 5 863 L154 863 C156.761 863 159 860.761 159 858 L159 838 C159 835.239 156.761 833 154 833 L5 833 C2.239 833 0 835.239 0 838 Z" fill="#B1512D" fill-opacity="1"/>
<path d="M0 853 L159 853 L159 863 L0 863 L0 853 Z" fill="#B1512D" fill-opacity="1"/>
<text x="14" y="854" font-family="sans-serif" font-size="13" font-weight="bold" fill="#FFFFFF" fill-opacity="1">payments</text>
<path d="M135 843 L147 843 L147 853 L135 853 L135 843 Z" fill="none" stroke="#FFFFFF" stroke-opacity="1" stroke-width="1.3" stroke-linecap="square" stroke-linejoin="miter"/>
<path d="M135 847 L147 847" fill="none" stroke="#FFFFFF" stroke-opacity="1" stroke-width="1.3" stroke-linecap="square" stroke-linejoin="miter"/>
<path d="M141 847 L141 853" fill="none" stroke="#FFFFFF" stroke-opacity="1" stroke-width="1.3" stroke-linecap="square" stroke-linejoin="miter"/>
<path d="M18 874 C18 875.657 16.657 877 15 877 C13.343 877 12 875.657 12 874 C12 872.343 13.343 871 15 871 C16.657 871 18 872.343 18 874 Z" fill="#B1512D" fill-opacity="1"/>
<path d="M18 874 L24 874" fill="none" stroke="#B1512D" stroke-opacity="1" stroke-width="1.3" stroke-linecap="square" stroke-linejoin="miter"/>
<path d="M24 874 L24 877" fill="none" stroke="#B1512D" stroke-opacity="1" stroke-width="1.3" stroke-linecap="square" stroke-linejoin="miter"/>
<path d="M21 874 L21 877" fill="none" stroke="#B1512D" stroke-opacity="1" stroke-width="1.3" stroke-linecap="square" stroke-linejoin="miter"/>
<text x="30" y="878" font-family="monospace" font-size="12" font-weight="normal" fill="#B1512D" fill-opacity="1">id</text>
<text x="117" y="878" font-family="monospace" font-size="12" font-weight="normal" fill="#8C8478" fill-opacity="1">uuid</text>
<path d="M18 896 C18 897.657 16.657 899 15 899 C13.343 899 12 897.657 12 896 C12 894.343 13.343 893 15 893 C16.657 893 18 894.343 18 896 Z" fill="none" stroke="#DAAC98" stroke-opacity="1" stroke-width="1.3" stroke-linecap="square" stroke-linejoin="miter"/>
<path d="M18 896 L24 896" fill="none" stroke="#DAAC98" stroke-opacity="1" stroke-width="1.3" stroke-linecap="square" stroke-linejoin="miter"/>
<path d="M24 896 L24 899" fill="none" stroke="#DAAC98" stroke-opacity="1" stroke-width="1.3" stroke-linecap="square" stroke-linejoin="miter"/>
<path d="M21 896 L21 899" fill="none" stroke="#DAAC98" stroke-opacity="1" stroke-width="1.3" stroke-linecap="square" stroke-linejoin="miter"/>
<text x="30" y="900" font-family="monospace" font-size="12" font-weight="normal" fill="#2B2620" fill-opacity="1">order_id</text>
<text x="117" y="900" font-family="monospace" font-size="12" font-weight="normal" fill="#8C8478" fill-opacity="1">uuid</text>
<text x="30" y="922" font-family="monospace" font-size="12" font-weight="normal" fill="#2B2620" fill-opacity="1">method</text>
<text x="117" y="922" font-family="monospace" font-size="12" font-weight="normal" fill="#8C8478" fill-opacity="1">text</text>
<text x="30" y="944" font-family="monospace" font-size="12" font-weight="normal" fill="#2B2620" fill-opacity="1">amount</text>
<text x="96" y="944" font-family="monospace" font-size="12" font-weight="normal" fill="#8C8478" fill-opacity="1">decimal</text>
<path d="M0 838 L0 954 C0 956.761 2.239 959 5 959 L154 959 C156.761 959 159 956.761 159 954 L159 838 C159 835.239 156.761 833 154 833 L5 833 C2.239 833 0 835.239 0 838 Z" fill="none" stroke="#E6DFD2" stroke-opacity="1" stroke-width="1" stroke-linecap="square" stroke-linejoin="miter"/>
<path d="M197 835 L197 957 C197 961.418 200.582 965 205 965 L402 965 C406.418 965 410 961.418 410 957 L410 835 C410 830.582 406.418 827 402 827 L205 827 C200.582 827 197 830.582 197 835 Z" fill="#B1512D" fill-opacity="0"/>
<path d="M199 836 L199 956 C199 959.866 202.134 963 206 963 L401 963 C404.866 963 408 959.866 408 956 L408 836 C408 832.134 404.866 829 401 829 L206 829 C202.134 829 199 832.134 199 836 Z" fill="#B1512D" fill-opacity="0"/>
<path d="M200 836.5 L200 955.5 C200 959.09 202.91 962 206.5 962 L400.5 962 C404.09 962 407 959.09 407 955.5 L407 836.5 C407 832.91 404.09 830 400.5 830 L206.5 830 C202.91 830 200 832.91 200 836.5 Z" fill="#B1512D" fill-opacity="0"/>
<path d="M201 837 L201 955 C201 958.314 203.686 961 207 961 L400 961 C403.314 961 406 958.314 406 955 L406 837 C406 833.686 403.314 831 400 831 L207 831 C203.686 831 201 833.686 201 837 Z" fill="#B1512D" fill-opacity="0.004"/>
<path d="M202 837.5 L202 954.5 C202 957.538 204.462 960 207.5 960 L399.5 960 C402.538 960 405 957.538 405 954.5 L405 837.5 C405 834.462 402.538 832 399.5 832 L207.5 832 C204.462 832 202 834.462 202 837.5 Z" fill="#B1512D" fill-opacity="0.004"/>
<path d="M197 837 L197 959 C197 963.418 200.582 967 205 967 L402 967 C406.418 967 410 963.418 410 959 L410 837 C410 832.582 406.418 829 402 829 L205 829 C200.582 829 197 832.582 197 837 Z" fill="#000000" fill-opacity="0.024"/>
<path d="M198 837.5 L198 958.5 C198 962.642 201.358 966 205.5 966 L401.5 966 C405.642 966 409 962.642 409 958.5 L409 837.5 C409 833.358 405.642 830 401.5 830 L205.5 830 C201.358 830 198 833.358 198 837.5 Z" fill="#000000" fill-opacity="0.024"/>
<path d="M199 838 L199 958 C199 961.866 202.134 965 206 965 L401 965 C404.866 965 408 961.866 408 958 L408 838 C408 834.134 404.866 831 401 831 L206 831 C202.134 831 199 834.134 199 838 Z" fill="#000000" fill-opacity="0.024"/>
<path d="M200 838.5 L200 957.5 C200 961.09 202.91 964 206.5 964 L400.5 964 C404.09 964 407 961.09 407 957.5 L407 838.5 C407 834.91 404.09 832 400.5 832 L206.5 832 C202.91 832 200 834.91 200 838.5 Z" fill="#000000" fill-opacity="0.024"/>
<path d="M201 839 L201 957 C201 960.314 203.686 963 207 963 L400 963 C403.314 963 406 960.314 406 957 L406 839 C406 835.686 403.314 833 400 833 L207 833 C203.686 833 201 835.686 201 839 Z" fill="#000000" fill-opacity="0.024"/>
<path d="M202 839.5 L202 956.5 C202 959.538 204.462 962 207.5 962 L399.5 962 C402.538 962 405 959.538 405 956.5 L405 839.5 C405 836.462 402.538 834 399.5 834 L207.5 834 C204.462 834 202 836.462 202 839.5 Z" fill="#000000" fill-opacity="0.024"/>
<path d="M203 838 L203 954 C203 956.761 205.239 959 208 959 L399 959 C401.761 959 404 956.761 404 954 L404 838 C404 835.239 401.761 833 399 833 L208 833 C205.239 833 203 835.239 203 838 Z" fill="#FBF7F0" fill-opacity="1"/>
<path d="M203 838 L203 858 C203 860.761 205.239 863 208 863 L399 863 C401.761 863 404 860.761 404 858 L404 838 C404 835.239 401.761 833 399 833 L208 833 C205.239 833 203 835.239 203 838 Z" fill="#B1512D" fill-opacity="1"/>
<path d="M203 853 L404 853 L404 863 L203 863 L203 853 Z" fill="#B1512D" fill-opacity="1"/>
<text x="217" y="854" font-family="sans-serif" font-size="13" font-weight="bold" fill="#FFFFFF" fill-opacity="1">shipments</text>
<path d="M380 843 L392 843 L392 853 L380 853 L380 843 Z" fill="none" stroke="#FFFFFF" stroke-opacity="1" stroke-width="1.3" stroke-linecap="square" stroke-linejoin="miter"/>
<path d="M380 847 L392 847" fill="none" stroke="#FFFFFF" stroke-opacity="1" stroke-width="1.3" stroke-linecap="square" stroke-linejoin="miter"/>
<path d="M386 847 L386 853" fill="none" stroke="#FFFFFF" stroke-opacity="1" stroke-width="1.3" stroke-linecap="square" stroke-linejoin="miter"/>
<path d="M221 874 C221 875.657 219.657 877 218 877 C216.343 877 215 875.657 215 874 C215 872.343 216.343 871 218 871 C219.657 871 221 872.343 221 874 Z" fill="#B1512D" fill-opacity="1"/>
<path d="M221 874 L227 874" fill="none" stroke="#B1512D" stroke-opacity="1" stroke-width="1.3" stroke-linecap="square" stroke-linejoin="miter"/>
<path d="M227 874 L227 877" fill="none" stroke="#B1512D" stroke-opacity="1" stroke-width="1.3" stroke-linecap="square" stroke-linejoin="miter"/>
<path d="M224 874 L224 877" fill="none" stroke="#B1512D" stroke-opacity="1" stroke-width="1.3" stroke-linecap="square" stroke-linejoin="miter"/>
<text x="233" y="878" font-family="monospace" font-size="12" font-weight="normal" fill="#B1512D" fill-opacity="1">id</text>
<text x="362" y="878" font-family="monospace" font-size="12" font-weight="normal" fill="#8C8478" fill-opacity="1">uuid</text>
<path d="M221 896 C221 897.657 219.657 899 218 899 C216.343 899 215 897.657 215 896 C215 894.343 216.343 893 218 893 C219.657 893 221 894.343 221 896 Z" fill="none" stroke="#DAAC98" stroke-opacity="1" stroke-width="1.3" stroke-linecap="square" stroke-linejoin="miter"/>
<path d="M221 896 L227 896" fill="none" stroke="#DAAC98" stroke-opacity="1" stroke-width="1.3" stroke-linecap="square" stroke-linejoin="miter"/>
<path d="M227 896 L227 899" fill="none" stroke="#DAAC98" stroke-opacity="1" stroke-width="1.3" stroke-linecap="square" stroke-linejoin="miter"/>
<path d="M224 896 L224 899" fill="none" stroke="#DAAC98" stroke-opacity="1" stroke-width="1.3" stroke-linecap="square" stroke-linejoin="miter"/>
<text x="233" y="900" font-family="monospace" font-size="12" font-weight="normal" fill="#2B2620" fill-opacity="1">order_id</text>
<text x="362" y="900" font-family="monospace" font-size="12" font-weight="normal" fill="#8C8478" fill-opacity="1">uuid</text>
<text x="233" y="922" font-family="monospace" font-size="12" font-weight="normal" fill="#2B2620" fill-opacity="1">carrier</text>
<text x="362" y="922" font-family="monospace" font-size="12" font-weight="normal" fill="#8C8478" fill-opacity="1">text</text>
<text x="233" y="944" font-family="monospace" font-size="12" font-weight="normal" fill="#2B2620" fill-opacity="1">shipped_at</text>
<text x="327" y="944" font-family="monospace" font-size="12" font-weight="normal" fill="#8C8478" fill-opacity="1">timestamp</text>
<path d="M203 838 L203 954 C203 956.761 205.239 959 208 959 L399 959 C401.761 959 404 956.761 404 954 L404 838 C404 835.239 401.761 833 399 833 L208 833 C205.239 833 203 835.239 203 838 Z" fill="none" stroke="#E6DFD2" stroke-opacity="1" stroke-width="1" stroke-linecap="square" stroke-linejoin="miter"/>
<path d="M508 549 L508 673 C508 677.971 512.029 682 517 682 L688 682 C692.971 682 697 677.971 697 673 L697 549 C697 544.029 692.971 540 688 540 L517 540 C512.029 540 508 544.029 508 549 Z" fill="#B1512D" fill-opacity="0.001"/>
<path d="M510 550 L510 672 C510 676.418 513.582 680 518 680 L687 680 C691.418 680 695 676.418 695 672 L695 550 C695 545.582 691.418 542 687 542 L518 542 C513.582 542 510 545.582 510 550 Z" fill="#B1512D" fill-opacity="0.001"/>
<path d="M512 551 L512 671 C512 674.866 515.134 678 519 678 L686 678 C689.866 678 693 674.866 693 671 L693 551 C693 547.134 689.866 544 686 544 L519 544 C515.134 544 512 547.134 512 551 Z" fill="#B1512D" fill-opacity="0.002"/>
<path d="M513 551.5 L513 670.5 C513 674.09 515.91 677 519.5 677 L685.5 677 C689.09 677 692 674.09 692 670.5 L692 551.5 C692 547.91 689.09 545 685.5 545 L519.5 545 C515.91 545 513 547.91 513 551.5 Z" fill="#B1512D" fill-opacity="0.003"/>
<path d="M515 552.5 L515 669.5 C515 672.538 517.462 675 520.5 675 L684.5 675 C687.538 675 690 672.538 690 669.5 L690 552.5 C690 549.462 687.538 547 684.5 547 L520.5 547 C517.462 547 515 549.462 515 552.5 Z" fill="#B1512D" fill-opacity="0.003"/>
<path d="M510 552 L510 674 C510 678.418 513.582 682 518 682 L687 682 C691.418 682 695 678.418 695 674 L695 552 C695 547.582 691.418 544 687 544 L518 544 C513.582 544 510 547.582 510 552 Z" fill="#000000" fill-opacity="0.005"/>
<path d="M511 552.5 L511 673.5 C511 677.642 514.358 681 518.5 681 L686.5 681 C690.642 681 694 677.642 694 673.5 L694 552.5 C694 548.358 690.642 545 686.5 545 L518.5 545 C514.358 545 511 548.358 511 552.5 Z" fill="#000000" fill-opacity="0.005"/>
<path d="M512 553 L512 673 C512 676.866 515.134 680 519 680 L686 680 C689.866 680 693 676.866 693 673 L693 553 C693 549.134 689.866 546 686 546 L519 546 C515.134 546 512 549.134 512 553 Z" fill="#000000" fill-opacity="0.005"/>
<path d="M513 553.5 L513 672.5 C513 676.09 515.91 679 519.5 679 L685.5 679 C689.09 679 692 676.09 692 672.5 L692 553.5 C692 549.91 689.09 547 685.5 547 L519.5 547 C515.91 547 513 549.91 513 553.5 Z" fill="#000000" fill-opacity="0.005"/>
<path d="M514 554 L514 672 C514 675.314 516.686 678 520 678 L685 678 C688.314 678 691 675.314 691 672 L691 554 C691 550.686 688.314 548 685 548 L520 548 C516.686 548 514 550.686 514 554 Z" fill="#000000" fill-opacity="0.005"/>
<path d="M515 554.5 L515 671.5 C515 674.538 517.462 677 520.5 677 L684.5 677 C687.538 677 690 674.538 690 671.5 L690 554.5 C690 551.462 687.538 549 684.5 549 L520.5 549 C517.462 549 515 551.462 515 554.5 Z" fill="#000000" fill-opacity="0.005"/>
<path d="M516 553 L516 669 C516 671.761 518.239 674 521 674 L684 674 C686.761 674 689 671.761 689 669 L689 553 C689 550.239 686.761 548 684 548 L521 548 C518.239 548 516 550.239 516 553 Z" fill="#FBF7F0" fill-opacity="0.22"/>
<path d="M516 553 L516 573 C516 575.761 518.239 578 521 578 L684 578 C686.761 578 689 575.761 689 573 L689 553 C689 550.239 686.761 548 684 548 L521 548 C518.239 548 516 550.239 516 553 Z" fill="#B1512D" fill-opacity="0.22"/>
<path d="M516 568 L689 568 L689 578 L516 578 L516 568 Z" fill="#B1512D" fill-opacity="0.22"/>
<text x="530" y="569" font-family="sans-serif" font-size="13" font-weight="bold" fill="#FFFFFF" fill-opacity="0.22">reviews</text>
<path d="M665 558 L677 558 L677 568 L665 568 L665 558 Z" fill="none" stroke="#FFFFFF" stroke-opacity="0.22" stroke-width="1.3" stroke-linecap="square" stroke-linejoin="miter"/>
<path d="M665 562 L677 562" fill="none" stroke="#FFFFFF" stroke-opacity="0.22" stroke-width="1.3" stroke-linecap="square" stroke-linejoin="miter"/>
<path d="M671 562 L671 568" fill="none" stroke="#FFFFFF" stroke-opacity="0.22" stroke-width="1.3" stroke-linecap="square" stroke-linejoin="miter"/>
<path d="M534 589 C534 590.657 532.657 592 531 592 C529.343 592 528 590.657 528 589 C528 587.343 529.343 586 531 586 C532.657 586 534 587.343 534 589 Z" fill="#B1512D" fill-opacity="0.22"/>
<path d="M534 589 L540 589" fill="none" stroke="#B1512D" stroke-opacity="0.22" stroke-width="1.3" stroke-linecap="square" stroke-linejoin="miter"/>
<path d="M540 589 L540 592" fill="none" stroke="#B1512D" stroke-opacity="0.22" stroke-width="1.3" stroke-linecap="square" stroke-linejoin="miter"/>
<path d="M537 589 L537 592" fill="none" stroke="#B1512D" stroke-opacity="0.22" stroke-width="1.3" stroke-linecap="square" stroke-linejoin="miter"/>
<text x="546" y="593" font-family="monospace" font-size="12" font-weight="normal" fill="#B1512D" fill-opacity="0.22">id</text>
<text x="647" y="593" font-family="monospace" font-size="12" font-weight="normal" fill="#8C8478" fill-opacity="0.22">uuid</text>
<path d="M534 611 C534 612.657 532.657 614 531 614 C529.343 614 528 612.657 528 611 C528 609.343 529.343 608 531 608 C532.657 608 534 609.343 534 611 Z" fill="none" stroke="#DAAC98" stroke-opacity="0.22" stroke-width="1.3" stroke-linecap="square" stroke-linejoin="miter"/>
<path d="M534 611 L540 611" fill="none" stroke="#DAAC98" stroke-opacity="0.22" stroke-width="1.3" stroke-linecap="square" stroke-linejoin="miter"/>
<path d="M540 611 L540 614" fill="none" stroke="#DAAC98" stroke-opacity="0.22" stroke-width="1.3" stroke-linecap="square" stroke-linejoin="miter"/>
<path d="M537 611 L537 614" fill="none" stroke="#DAAC98" stroke-opacity="0.22" stroke-width="1.3" stroke-linecap="square" stroke-linejoin="miter"/>
<text x="546" y="615" font-family="monospace" font-size="12" font-weight="normal" fill="#2B2620" fill-opacity="0.22">product_id</text>
<text x="647" y="615" font-family="monospace" font-size="12" font-weight="normal" fill="#8C8478" fill-opacity="0.22">uuid</text>
<path d="M534 633 C534 634.657 532.657 636 531 636 C529.343 636 528 634.657 528 633 C528 631.343 529.343 630 531 630 C532.657 630 534 631.343 534 633 Z" fill="none" stroke="#DAAC98" stroke-opacity="0.22" stroke-width="1.3" stroke-linecap="square" stroke-linejoin="miter"/>
<path d="M534 633 L540 633" fill="none" stroke="#DAAC98" stroke-opacity="0.22" stroke-width="1.3" stroke-linecap="square" stroke-linejoin="miter"/>
<path d="M540 633 L540 636" fill="none" stroke="#DAAC98" stroke-opacity="0.22" stroke-width="1.3" stroke-linecap="square" stroke-linejoin="miter"/>
<path d="M537 633 L537 636" fill="none" stroke="#DAAC98" stroke-opacity="0.22" stroke-width="1.3" stroke-linecap="square" stroke-linejoin="miter"/>
<text x="546" y="637" font-family="monospace" font-size="12" font-weight="normal" fill="#2B2620" fill-opacity="0.22">customer_id</text>
<text x="647" y="637" font-family="monospace" font-size="12" font-weight="normal" fill="#8C8478" fill-opacity="0.22">uuid</text>
<text x="546" y="659" font-family="monospace" font-size="12" font-weight="normal" fill="#2B2620" fill-opacity="0.22">rating</text>
<text x="654" y="659" font-family="monospace" font-size="12" font-weight="normal" fill="#8C8478" fill-opacity="0.22">int</text>
<path d="M516 553 L516 669 C516 671.761 518.239 674 521 674 L684 674 C686.761 674 689 671.761 689 669 L689 553 C689 550.239 686.761 548 684 548 L521 548 C518.239 548 516 550.239 516 553 Z" fill="none" stroke="#E6DFD2" stroke-opacity="0.22" stroke-width="1" stroke-linecap="square" stroke-linejoin="miter"/>
<path d="M442 857 L442 935 C442 939.418 445.582 943 450 943 L610 943 C614.418 943 618 939.418 618 935 L618 857 C618 852.582 614.418 849 610 849 L450 849 C445.582 849 442 852.582 442 857 Z" fill="#007C5D" fill-opacity="0"/>
<path d="M444 858 L444 934 C444 937.866 447.134 941 451 941 L609 941 C612.866 941 616 937.866 616 934 L616 858 C616 854.134 612.866 851 609 851 L451 851 C447.134 851 444 854.134 444 858 Z" fill="#007C5D" fill-opacity="0"/>
<path d="M445 858.5 L445 933.5 C445 937.09 447.91 940 451.5 940 L608.5 940 C612.09 940 615 937.09 615 933.5 L615 858.5 C615 854.91 612.09 852 608.5 852 L451.5 852 C447.91 852 445 854.91 445 858.5 Z" fill="#007C5D" fill-opacity="0"/>
<path d="M446 859 L446 933 C446 936.314 448.686 939 452 939 L608 939 C611.314 939 614 936.314 614 933 L614 859 C614 855.686 611.314 853 608 853 L452 853 C448.686 853 446 855.686 446 859 Z" fill="#007C5D" fill-opacity="0.004"/>
<path d="M447 859.5 L447 932.5 C447 935.538 449.462 938 452.5 938 L607.5 938 C610.538 938 613 935.538 613 932.5 L613 859.5 C613 856.462 610.538 854 607.5 854 L452.5 854 C449.462 854 447 856.462 447 859.5 Z" fill="#007C5D" fill-opacity="0.004"/>
<path d="M442 859 L442 937 C442 941.418 445.582 945 450 945 L610 945 C614.418 945 618 941.418 618 937 L618 859 C618 854.582 614.418 851 610 851 L450 851 C445.582 851 442 854.582 442 859 Z" fill="#000000" fill-opacity="0.024"/>
<path d="M443 859.5 L443 936.5 C443 940.642 446.358 944 450.5 944 L609.5 944 C613.642 944 617 940.642 617 936.5 L617 859.5 C617 855.358 613.642 852 609.5 852 L450.5 852 C446.358 852 443 855.358 443 859.5 Z" fill="#000000" fill-opacity="0.024"/>
<path d="M444 860 L444 936 C444 939.866 447.134 943 451 943 L609 943 C612.866 943 616 939.866 616 936 L616 860 C616 856.134 612.866 853 609 853 L451 853 C447.134 853 444 856.134 444 860 Z" fill="#000000" fill-opacity="0.024"/>
<path d="M445 860.5 L445 935.5 C445 939.09 447.91 942 451.5 942 L608.5 942 C612.09 942 615 939.09 615 935.5 L615 860.5 C615 856.91 612.09 854 608.5 854 L451.5 854 C447.91 854 445 856.91 445 860.5 Z" fill="#000000" fill-opacity="0.024"/>
<path d="M446 861 L446 935 C446 938.314 448.686 941 452 941 L608 941 C611.314 941 614 938.314 614 935 L614 861 C614 857.686 611.314 855 608 855 L452 855 C448.686 855 446 857.686 446 861 Z" fill="#000000" fill-opacity="0.024"/>
<path d="M447 861.5 L447 934.5 C447 937.538 449.462 940 452.5 940 L607.5 940 C610.538 940 613 937.538 613 934.5 L613 861.5 C613 858.462 610.538 856 607.5 856 L452.5 856 C449.462 856 447 858.462 447 861.5 Z" fill="#000000" fill-opacity="0.024"/>
<path d="M448 860 L448 932 C448 934.761 450.239 937 453 937 L607 937 C609.761 937 612 934.761 612 932 L612 860 C612 857.239 609.761 855 607 855 L453 855 C450.239 855 448 857.239 448 860 Z" fill="#FBF7F0" fill-opacity="1"/>
<path d="M448 860 L448 880 C448 882.761 450.239 885 453 885 L607 885 C609.761 885 612 882.761 612 880 L612 860 C612 857.239 609.761 855 607 855 L453 855 C450.239 855 448 857.239 448 860 Z" fill="#007C5D" fill-opacity="1"/>
<path d="M448 875 L612 875 L612 885 L448 885 L448 875 Z" fill="#007C5D" fill-opacity="1"/>
<text x="462" y="876" font-family="sans-serif" font-size="13" font-weight="bold" fill="#FFFFFF" fill-opacity="1">revenue_by_day</text>
<path d="M600 870 C600 872.209 597.314 874 594 874 C590.686 874 588 872.209 588 870 C588 867.791 590.686 866 594 866 C597.314 866 600 867.791 600 870 Z" fill="none" stroke="#FFFFFF" stroke-opacity="1" stroke-width="1.3" stroke-linecap="square" stroke-linejoin="miter"/>
<path d="M596 870 C596 871.105 595.105 872 594 872 C592.895 872 592 871.105 592 870 C592 868.895 592.895 868 594 868 C595.105 868 596 868.895 596 870 Z" fill="#FFFFFF" fill-opacity="1"/>
<path d="M466 896 C466 897.657 464.657 899 463 899 C461.343 899 460 897.657 460 896 C460 894.343 461.343 893 463 893 C464.657 893 466 894.343 466 896 Z" fill="none" stroke="#DAAC98" stroke-opacity="1" stroke-width="1.3" stroke-linecap="square" stroke-linejoin="miter"/>
<path d="M466 896 L472 896" fill="none" stroke="#DAAC98" stroke-opacity="1" stroke-width="1.3" stroke-linecap="square" stroke-linejoin="miter"/>
<path d="M472 896 L472 899" fill="none" stroke="#DAAC98" stroke-opacity="1" stroke-width="1.3" stroke-linecap="square" stroke-linejoin="miter"/>
<path d="M469 896 L469 899" fill="none" stroke="#DAAC98" stroke-opacity="1" stroke-width="1.3" stroke-linecap="square" stroke-linejoin="miter"/>
<text x="478" y="900" font-family="monospace" font-size="12" font-weight="normal" fill="#2B2620" fill-opacity="1">day</text>
<text x="570" y="900" font-family="monospace" font-size="12" font-weight="normal" fill="#8C8478" fill-opacity="1">date</text>
<text x="478" y="922" font-family="monospace" font-size="12" font-weight="normal" fill="#2B2620" fill-opacity="1">gross</text>
<text x="549" y="922" font-family="monospace" font-size="12" font-weight="normal" fill="#8C8478" fill-opacity="1">decimal</text>
<path d="M448 860 L448 932 C448 934.761 450.239 937 453 937 L607 937 C609.761 937 612 934.761 612 932 L612 860 C612 857.239 609.761 855 607 855 L453 855 C450.239 855 448 857.239 448 860 Z" fill="none" stroke="#E6DFD2" stroke-opacity="1" stroke-width="1" stroke-linecap="square" stroke-linejoin="miter"/>
<path d="M278 250 L278 263" fill="none" stroke="#8C8478" stroke-opacity="0.176" stroke-width="1.4" stroke-linecap="round" stroke-linejoin="round"/>
<path d="M278 250 L284 263" fill="none" stroke="#8C8478" stroke-opacity="0.176" stroke-width="1.4" stroke-linecap="round" stroke-linejoin="round"/>
<path d="M278 250 L272 263" fill="none" stroke="#8C8478" stroke-opacity="0.176" stroke-width="1.4" stroke-linecap="round" stroke-linejoin="round"/>
<path d="M435 139 L435 126" fill="none" stroke="#8C8478" stroke-opacity="0.176" stroke-width="1.4" stroke-linecap="round" stroke-linejoin="round"/>
<path d="M429 132 L441 132" fill="none" stroke="#8C8478" stroke-opacity="0.176" stroke-width="1.4" stroke-linecap="round" stroke-linejoin="round"/>
<path d="M911 45 L898 45" fill="none" stroke="#8C8478" stroke-opacity="0.176" stroke-width="1.4" stroke-linecap="round" stroke-linejoin="round"/>
<path d="M911 45 L898 51" fill="none" stroke="#8C8478" stroke-opacity="0.176" stroke-width="1.4" stroke-linecap="round" stroke-linejoin="round"/>
<path d="M911 45 L898 39" fill="none" stroke="#8C8478" stroke-opacity="0.176" stroke-width="1.4" stroke-linecap="round" stroke-linejoin="round"/>
<path d="M911 80 L898 80" fill="none" stroke="#8C8478" stroke-opacity="0.176" stroke-width="1.4" stroke-linecap="round" stroke-linejoin="round"/>
<path d="M904 74 L904 86" fill="none" stroke="#8C8478" stroke-opacity="0.176" stroke-width="1.4" stroke-linecap="round" stroke-linejoin="round"/>
<path d="M822 239 L822 252" fill="none" stroke="#8C8478" stroke-opacity="0.176" stroke-width="1.4" stroke-linecap="round" stroke-linejoin="round"/>
<path d="M822 239 L828 252" fill="none" stroke="#8C8478" stroke-opacity="0.176" stroke-width="1.4" stroke-linecap="round" stroke-linejoin="round"/>
<path d="M822 239 L816 252" fill="none" stroke="#8C8478" stroke-opacity="0.176" stroke-width="1.4" stroke-linecap="round" stroke-linejoin="round"/>
<path d="M822 128 L822 115" fill="none" stroke="#8C8478" stroke-opacity="0.176" stroke-width="1.4" stroke-linecap="round" stroke-linejoin="round"/>
<path d="M816 121 L828 121" fill="none" stroke="#8C8478" stroke-opacity="0.176" stroke-width="1.4" stroke-linecap="round" stroke-linejoin="round"/>
<path d="M407 513 L407 526" fill="none" stroke="#B1512D" stroke-opacity="1" stroke-width="2.2" stroke-linecap="round" stroke-linejoin="round"/>
<path d="M407 513 L413 526" fill="none" stroke="#B1512D" stroke-opacity="1" stroke-width="2.2" stroke-linecap="round" stroke-linejoin="round"/>
<path d="M407 513 L401 526" fill="none" stroke="#B1512D" stroke-opacity="1" stroke-width="2.2" stroke-linecap="round" stroke-linejoin="round"/>
<path d="M485 139 L485 126" fill="none" stroke="#B1512D" stroke-opacity="1" stroke-width="2.2" stroke-linecap="round" stroke-linejoin="round"/>
<path d="M479 132 L491 132" fill="none" stroke="#B1512D" stroke-opacity="1" stroke-width="2.2" stroke-linecap="round" stroke-linejoin="round"/>
<path d="M342 513 L342 526" fill="none" stroke="#B1512D" stroke-opacity="1" stroke-width="2.2" stroke-linecap="round" stroke-linejoin="round"/>
<path d="M342 513 L348 526" fill="none" stroke="#B1512D" stroke-opacity="1" stroke-width="2.2" stroke-linecap="round" stroke-linejoin="round"/>
<path d="M342 513 L336 526" fill="none" stroke="#B1512D" stroke-opacity="1" stroke-width="2.2" stroke-linecap="round" stroke-linejoin="round"/>
<path d="M278 402 L278 389" fill="none" stroke="#B1512D" stroke-opacity="1" stroke-width="2.2" stroke-linecap="round" stroke-linejoin="round"/>
<path d="M272 395 L284 395" fill="none" stroke="#B1512D" stroke-opacity="1" stroke-width="2.2" stroke-linecap="round" stroke-linejoin="round"/>
<path d="M715 896 L728 896" fill="none" stroke="#B1512D" stroke-opacity="1" stroke-width="2.2" stroke-linecap="round" stroke-linejoin="round"/>
<path d="M715 896 L728 902" fill="none" stroke="#B1512D" stroke-opacity="1" stroke-width="2.2" stroke-linecap="round" stroke-linejoin="round"/>
<path d="M715 896 L728 890" fill="none" stroke="#B1512D" stroke-opacity="1" stroke-width="2.2" stroke-linecap="round" stroke-linejoin="round"/>
<path d="M485 611 L472 611" fill="none" stroke="#B1512D" stroke-opacity="1" stroke-width="2.2" stroke-linecap="round" stroke-linejoin="round"/>
<path d="M478 605 L478 617" fill="none" stroke="#B1512D" stroke-opacity="1" stroke-width="2.2" stroke-linecap="round" stroke-linejoin="round"/>
<path d="M822 809 L822 822" fill="none" stroke="#8C8478" stroke-opacity="0.176" stroke-width="1.4" stroke-linecap="round" stroke-linejoin="round"/>
<path d="M822 809 L828 822" fill="none" stroke="#8C8478" stroke-opacity="0.176" stroke-width="1.4" stroke-linecap="round" stroke-linejoin="round"/>
<path d="M822 809 L816 822" fill="none" stroke="#8C8478" stroke-opacity="0.176" stroke-width="1.4" stroke-linecap="round" stroke-linejoin="round"/>
<path d="M849 413 L849 400" fill="none" stroke="#8C8478" stroke-opacity="0.176" stroke-width="1.4" stroke-linecap="round" stroke-linejoin="round"/>
<path d="M843 406 L855 406" fill="none" stroke="#8C8478" stroke-opacity="0.176" stroke-width="1.4" stroke-linecap="round" stroke-linejoin="round"/>
<path d="M79 820 L79 833" fill="none" stroke="#B1512D" stroke-opacity="1" stroke-width="2.2" stroke-linecap="round" stroke-linejoin="round"/>
<path d="M79 820 L85 833" fill="none" stroke="#B1512D" stroke-opacity="1" stroke-width="2.2" stroke-linecap="round" stroke-linejoin="round"/>
<path d="M79 820 L73 833" fill="none" stroke="#B1512D" stroke-opacity="1" stroke-width="2.2" stroke-linecap="round" stroke-linejoin="round"/>
<path d="M326 709 L326 696" fill="none" stroke="#B1512D" stroke-opacity="1" stroke-width="2.2" stroke-linecap="round" stroke-linejoin="round"/>
<path d="M320 702 L332 702" fill="none" stroke="#B1512D" stroke-opacity="1" stroke-width="2.2" stroke-linecap="round" stroke-linejoin="round"/>
<path d="M303 820 L303 833" fill="none" stroke="#B1512D" stroke-opacity="1" stroke-width="2.2" stroke-linecap="round" stroke-linejoin="round"/>
<path d="M303 820 L309 833" fill="none" stroke="#B1512D" stroke-opacity="1" stroke-width="2.2" stroke-linecap="round" stroke-linejoin="round"/>
<path d="M303 820 L297 833" fill="none" stroke="#B1512D" stroke-opacity="1" stroke-width="2.2" stroke-linecap="round" stroke-linejoin="round"/>
<path d="M375 709 L375 696" fill="none" stroke="#B1512D" stroke-opacity="1" stroke-width="2.2" stroke-linecap="round" stroke-linejoin="round"/>
<path d="M369 702 L381 702" fill="none" stroke="#B1512D" stroke-opacity="1" stroke-width="2.2" stroke-linecap="round" stroke-linejoin="round"/>
<path d="M631 535 L631 548" fill="none" stroke="#8C8478" stroke-opacity="0.176" stroke-width="1.4" stroke-linecap="round" stroke-linejoin="round"/>
<path d="M631 535 L637 548" fill="none" stroke="#8C8478" stroke-opacity="0.176" stroke-width="1.4" stroke-linecap="round" stroke-linejoin="round"/>
<path d="M631 535 L625 548" fill="none" stroke="#8C8478" stroke-opacity="0.176" stroke-width="1.4" stroke-linecap="round" stroke-linejoin="round"/>
<path d="M794 413 L794 400" fill="none" stroke="#8C8478" stroke-opacity="0.176" stroke-width="1.4" stroke-linecap="round" stroke-linejoin="round"/>
<path d="M788 406 L800 406" fill="none" stroke="#8C8478" stroke-opacity="0.176" stroke-width="1.4" stroke-linecap="round" stroke-linejoin="round"/>
<path d="M573 535 L573 548" fill="none" stroke="#8C8478" stroke-opacity="0.176" stroke-width="1.4" stroke-linecap="round" stroke-linejoin="round"/>
<path d="M573 535 L579 548" fill="none" stroke="#8C8478" stroke-opacity="0.176" stroke-width="1.4" stroke-linecap="round" stroke-linejoin="round"/>
<path d="M573 535 L567 548" fill="none" stroke="#8C8478" stroke-opacity="0.176" stroke-width="1.4" stroke-linecap="round" stroke-linejoin="round"/>
<path d="M535 139 L535 126" fill="none" stroke="#8C8478" stroke-opacity="0.176" stroke-width="1.4" stroke-linecap="round" stroke-linejoin="round"/>
<path d="M529 132 L541 132" fill="none" stroke="#8C8478" stroke-opacity="0.176" stroke-width="1.4" stroke-linecap="round" stroke-linejoin="round"/>
<path d="M530 842 L530 855" fill="none" stroke="#E0A116" stroke-opacity="1" stroke-width="2.2" stroke-linecap="round" stroke-linejoin="round"/>
<path d="M530 842 L536 855" fill="none" stroke="#E0A116" stroke-opacity="1" stroke-width="2.2" stroke-linecap="round" stroke-linejoin="round"/>
<path d="M530 842 L524 855" fill="none" stroke="#E0A116" stroke-opacity="1" stroke-width="2.2" stroke-linecap="round" stroke-linejoin="round"/>
<path d="M423 709 L423 696" fill="none" stroke="#E0A116" stroke-opacity="1" stroke-width="2.2" stroke-linecap="round" stroke-linejoin="round"/>
<path d="M417 702 L429 702" fill="none" stroke="#E0A116" stroke-opacity="1" stroke-width="2.2" stroke-linecap="round" stroke-linejoin="round"/>
<path d="M917 45.5 L917 59.5 C917 61.985 919.015 64 921.5 64 L1031.5 64 C1033.985 64 1036 61.985 1036 59.5 L1036 45.5 C1036 43.015 1033.985 41 1031.5 41 L921.5 41 C919.015 41 917 43.015 917 45.5 Z" fill="#FBF7F0" fill-opacity="0.22"/>
<path d="M917 45.5 L917 59.5 C917 61.985 919.015 64 921.5 64 L1031.5 64 C1033.985 64 1036 61.985 1036 59.5 L1036 45.5 C1036 43.015 1033.985 41 1031.5 41 L921.5 41 C919.015 41 917 43.015 917 45.5 Z" fill="none" stroke="#DAAC98" stroke-opacity="0.22" stroke-width="1" stroke-linecap="square" stroke-linejoin="miter"/>
<text x="924" y="57" font-family="monospace" font-size="12" font-weight="normal" fill="#DAAC98" fill-opacity="0.22">parent_id -&gt; id</text>
<path d="M755 176.5 L755 190.5 C755 192.985 757.015 195 759.5 195 L883.5 195 C885.985 195 888 192.985 888 190.5 L888 176.5 C888 174.015 885.985 172 883.5 172 L759.5 172 C757.015 172 755 174.015 755 176.5 Z" fill="#FBF7F0" fill-opacity="0.22"/>
<path d="M755 176.5 L755 190.5 C755 192.985 757.015 195 759.5 195 L883.5 195 C885.985 195 888 192.985 888 190.5 L888 176.5 C888 174.015 885.985 172 883.5 172 L759.5 172 C757.015 172 755 174.015 755 176.5 Z" fill="none" stroke="#DAAC98" stroke-opacity="0.22" stroke-width="1" stroke-linecap="square" stroke-linejoin="miter"/>
<text x="762" y="188" font-family="monospace" font-size="12" font-weight="normal" fill="#DAAC98" fill-opacity="0.22">category_id -&gt; id</text>
<path d="M247 450.5 L247 464.5 C247 466.985 249.015 469 251.5 469 L368.5 469 C370.985 469 373 466.985 373 464.5 L373 450.5 C373 448.015 370.985 446 368.5 446 L251.5 446 C249.015 446 247 448.015 247 450.5 Z" fill="#FBF7F0" fill-opacity="1"/>
<path d="M247 450.5 L247 464.5 C247 466.985 249.015 469 251.5 469 L368.5 469 C370.985 469 373 466.985 373 464.5 L373 450.5 C373 448.015 370.985 446 368.5 446 L251.5 446 C249.015 446 247 448.015 247 450.5 Z" fill="none" stroke="#DAAC98" stroke-opacity="1" stroke-width="1" stroke-linecap="square" stroke-linejoin="miter"/>
<text x="254" y="462" font-family="monospace" font-size="12" font-weight="normal" fill="#DAAC98" fill-opacity="1">address_id -&gt; id</text>
<path d="M283 757.5 L283 771.5 C283 773.985 285.015 776 287.5 776 L390.5 776 C392.985 776 395 773.985 395 771.5 L395 757.5 C395 755.015 392.985 753 390.5 753 L287.5 753 C285.015 753 283 755.015 283 757.5 Z" fill="#FBF7F0" fill-opacity="1"/>
<path d="M283 757.5 L283 771.5 C283 773.985 285.015 776 287.5 776 L390.5 776 C392.985 776 395 773.985 395 771.5 L395 757.5 C395 755.015 392.985 753 390.5 753 L287.5 753 C285.015 753 283 755.015 283 757.5 Z" fill="none" stroke="#DAAC98" stroke-opacity="1" stroke-width="1" stroke-linecap="square" stroke-linejoin="miter"/>
<text x="290" y="769" font-family="monospace" font-size="12" font-weight="normal" fill="#DAAC98" fill-opacity="1">order_id -&gt; id</text>
<path d="M413 768.5 L413 782.5 C413 784.985 415.015 787 417.5 787 L534.5 787 C536.985 787 539 784.985 539 782.5 L539 768.5 C539 766.015 536.985 764 534.5 764 L417.5 764 C415.015 764 413 766.015 413 768.5 Z" fill="#FBF7F0" fill-opacity="1"/>
<path d="M413 768.5 L413 782.5 C413 784.985 415.015 787 417.5 787 L534.5 787 C536.985 787 539 784.985 539 782.5 L539 768.5 C539 766.015 536.985 764 534.5 764 L417.5 764 C415.015 764 413 766.015 413 768.5 Z" fill="none" stroke="#DAAC98" stroke-opacity="1" stroke-width="1" stroke-linecap="square" stroke-linejoin="miter"/>
<text x="420" y="780" font-family="monospace" font-size="12" font-weight="normal" fill="#DAAC98" fill-opacity="1">day -&gt; placed_at</text>
<path d="M290 187.5 L290 201.5 C290 203.985 292.015 206 294.5 206 L418.5 206 C420.985 206 423 203.985 423 201.5 L423 187.5 C423 185.015 420.985 183 418.5 183 L294.5 183 C292.015 183 290 185.015 290 187.5 Z" fill="#FBF7F0" fill-opacity="0.22"/>
<path d="M290 187.5 L290 201.5 C290 203.985 292.015 206 294.5 206 L418.5 206 C420.985 206 423 203.985 423 201.5 L423 187.5 C423 185.015 420.985 183 418.5 183 L294.5 183 C292.015 183 290 185.015 290 187.5 Z" fill="none" stroke="#DAAC98" stroke-opacity="0.22" stroke-width="1" stroke-linecap="square" stroke-linejoin="miter"/>
<text x="297" y="199" font-family="monospace" font-size="12" font-weight="normal" fill="#DAAC98" fill-opacity="0.22">customer_id -&gt; id</text>
<path d="M650 466.5 L650 480.5 C650 482.985 652.015 485 654.5 485 L771.5 485 C773.985 485 776 482.985 776 480.5 L776 466.5 C776 464.015 773.985 462 771.5 462 L654.5 462 C652.015 462 650 464.015 650 466.5 Z" fill="#FBF7F0" fill-opacity="0.22"/>
<path d="M650 466.5 L650 480.5 C650 482.985 652.015 485 654.5 485 L771.5 485 C773.985 485 776 482.985 776 480.5 L776 466.5 C776 464.015 773.985 462 771.5 462 L654.5 462 C652.015 462 650 464.015 650 466.5 Z" fill="none" stroke="#DAAC98" stroke-opacity="0.22" stroke-width="1" stroke-linecap="square" stroke-linejoin="miter"/>
<text x="657" y="478" font-family="monospace" font-size="12" font-weight="normal" fill="#DAAC98" fill-opacity="0.22">product_id -&gt; id</text>
<path d="M147 757.5 L147 771.5 C147 773.985 149.015 776 151.5 776 L254.5 776 C256.985 776 259 773.985 259 771.5 L259 757.5 C259 755.015 256.985 753 254.5 753 L151.5 753 C149.015 753 147 755.015 147 757.5 Z" fill="#FBF7F0" fill-opacity="1"/>
<path d="M147 757.5 L147 771.5 C147 773.985 149.015 776 151.5 776 L254.5 776 C256.985 776 259 773.985 259 771.5 L259 757.5 C259 755.015 256.985 753 254.5 753 L151.5 753 C149.015 753 147 755.015 147 757.5 Z" fill="none" stroke="#DAAC98" stroke-opacity="1" stroke-width="1" stroke-linecap="square" stroke-linejoin="miter"/>
<text x="154" y="769" font-family="monospace" font-size="12" font-weight="normal" fill="#DAAC98" fill-opacity="1">order_id -&gt; id</text>
<path d="M529 719.5 L529 733.5 C529 735.985 531.015 738 533.5 738 L636.5 738 C638.985 738 641 735.985 641 733.5 L641 719.5 C641 717.015 638.985 715 636.5 715 L533.5 715 C531.015 715 529 717.015 529 719.5 Z" fill="#FBF7F0" fill-opacity="1"/>
<path d="M529 719.5 L529 733.5 C529 735.985 531.015 738 533.5 738 L636.5 738 C638.985 738 641 735.985 641 733.5 L641 719.5 C641 717.015 638.985 715 636.5 715 L533.5 715 C531.015 715 529 717.015 529 719.5 Z" fill="none" stroke="#DAAC98" stroke-opacity="1" stroke-width="1" stroke-linecap="square" stroke-linejoin="miter"/>
<text x="536" y="731" font-family="monospace" font-size="12" font-weight="normal" fill="#DAAC98" fill-opacity="1">order_id -&gt; id</text>
<path d="M374 254.5 L374 268.5 C374 270.985 376.015 273 378.5 273 L502.5 273 C504.985 273 507 270.985 507 268.5 L507 254.5 C507 252.015 504.985 250 502.5 250 L378.5 250 C376.015 250 374 252.015 374 254.5 Z" fill="#FBF7F0" fill-opacity="1"/>
<path d="M374 254.5 L374 268.5 C374 270.985 376.015 273 378.5 273 L502.5 273 C504.985 273 507 270.985 507 268.5 L507 254.5 C507 252.015 504.985 250 502.5 250 L378.5 250 C376.015 250 374 252.015 374 254.5 Z" fill="none" stroke="#DAAC98" stroke-opacity="1" stroke-width="1" stroke-linecap="square" stroke-linejoin="miter"/>
<text x="381" y="266" font-family="monospace" font-size="12" font-weight="normal" fill="#DAAC98" fill-opacity="1">customer_id -&gt; id</text>
<path d="M759 602.5 L759 616.5 C759 618.985 761.015 621 763.5 621 L880.5 621 C882.985 621 885 618.985 885 616.5 L885 602.5 C885 600.015 882.985 598 880.5 598 L763.5 598 C761.015 598 759 600.015 759 602.5 Z" fill="#FBF7F0" fill-opacity="0.22"/>
<path d="M759 602.5 L759 616.5 C759 618.985 761.015 621 763.5 621 L880.5 621 C882.985 621 885 618.985 885 616.5 L885 602.5 C885 600.015 882.985 598 880.5 598 L763.5 598 C761.015 598 759 600.015 759 602.5 Z" fill="none" stroke="#DAAC98" stroke-opacity="0.22" stroke-width="1" stroke-linecap="square" stroke-linejoin="miter"/>
<text x="766" y="614" font-family="monospace" font-size="12" font-weight="normal" fill="#DAAC98" fill-opacity="0.22">product_id -&gt; id</text>
<path d="M536 324.5 L536 338.5 C536 340.985 538.015 343 540.5 343 L664.5 343 C666.985 343 669 340.985 669 338.5 L669 324.5 C669 322.015 666.985 320 664.5 320 L540.5 320 C538.015 320 536 322.015 536 324.5 Z" fill="#FBF7F0" fill-opacity="0.22"/>
<path d="M536 324.5 L536 338.5 C536 340.985 538.015 343 540.5 343 L664.5 343 C666.985 343 669 340.985 669 338.5 L669 324.5 C669 322.015 666.985 320 664.5 320 L540.5 320 C538.015 320 536 322.015 536 324.5 Z" fill="none" stroke="#DAAC98" stroke-opacity="0.22" stroke-width="1" stroke-linecap="square" stroke-linejoin="miter"/>
<text x="543" y="336" font-family="monospace" font-size="12" font-weight="normal" fill="#DAAC98" fill-opacity="0.22">customer_id -&gt; id</text>
<path d="M407.583 513 L407.011 419.054 L409.236 372.249 L415.75 326 L422.312 302.966 L431.886 279.751 L455.281 232.946 L476.348 185.917 L483.012 162.424 L485.5 139" fill="none" stroke="#B1512D" stroke-opacity="0.188" stroke-width="9" stroke-linecap="round" stroke-linejoin="round"/>
<path d="M407.583 513 L407.011 419.054 L409.236 372.249 L415.75 326 L422.312 302.966 L431.886 279.751 L455.281 232.946 L476.348 185.917 L483.012 162.424 L485.5 139" fill="none" stroke="#B1512D" stroke-opacity="0.373" stroke-width="5" stroke-linecap="round" stroke-linejoin="round"/>
<path d="M407.583 513 L407.011 419.054 L409.236 372.249 L415.75 326 L422.312 302.966 L431.886 279.751 L455.281 232.946 L476.348 185.917 L483.012 162.424 L485.5 139" fill="none" stroke="#B1512D" stroke-opacity="0.667" stroke-width="4.6" stroke-linecap="round" stroke-linejoin="round" stroke-dasharray="11,9"/>
<path d="M407.583 513 L407.011 419.054 L409.236 372.249 L415.75 326 L422.312 302.966 L431.886 279.751 L455.281 232.946 L476.348 185.917 L483.012 162.424 L485.5 139" fill="none" stroke="#B1512D" stroke-opacity="1" stroke-width="2.8" stroke-linecap="round" stroke-linejoin="round" stroke-dasharray="11,9"/>
<path d="M407.583 513 L407.011 419.054 L409.236 372.249 L415.75 326 L422.312 302.966 L431.886 279.751 L455.281 232.946 L476.348 185.917 L483.012 162.424 L485.5 139" fill="none" stroke="#FFFFFF" stroke-opacity="0.922" stroke-width="1.2" stroke-linecap="round" stroke-linejoin="round" stroke-dasharray="11,9"/>
<path d="M342.917 513 L340.138 499.125 L332.813 485.25 L310.583 457.5 L288.354 429.75 L281.029 415.875 L278.25 402" fill="none" stroke="#B1512D" stroke-opacity="0.188" stroke-width="9" stroke-linecap="round" stroke-linejoin="round"/>
<path d="M342.917 513 L340.138 499.125 L332.813 485.25 L310.583 457.5 L288.354 429.75 L281.029 415.875 L278.25 402" fill="none" stroke="#B1512D" stroke-opacity="0.373" stroke-width="5" stroke-linecap="round" stroke-linejoin="round"/>
<path d="M342.917 513 L340.138 499.125 L332.813 485.25 L310.583 457.5 L288.354 429.75 L281.029 415.875 L278.25 402" fill="none" stroke="#B1512D" stroke-opacity="0.667" stroke-width="4.6" stroke-linecap="round" stroke-linejoin="round" stroke-dasharray="11,9"/>
<path d="M342.917 513 L340.138 499.125 L332.813 485.25 L310.583 457.5 L288.354 429.75 L281.029 415.875 L278.25 402" fill="none" stroke="#B1512D" stroke-opacity="1" stroke-width="2.8" stroke-linecap="round" stroke-linejoin="round" stroke-dasharray="11,9"/>
<path d="M342.917 513 L340.138 499.125 L332.813 485.25 L310.583 457.5 L288.354 429.75 L281.029 415.875 L278.25 402" fill="none" stroke="#FFFFFF" stroke-opacity="0.922" stroke-width="1.2" stroke-linecap="round" stroke-linejoin="round" stroke-dasharray="11,9"/>
<path d="M715.75 896 L701.344 892.799 L686.938 883.754 L672.531 869.699 L658.125 851.469 L629.313 805.824 L600.5 753.5 L571.688 701.176 L542.875 655.531 L528.469 637.301 L514.063 623.246 L499.656 614.201 L485.25 611" fill="none" stroke="#B1512D" stroke-opacity="0.188" stroke-width="9" stroke-linecap="round" stroke-linejoin="round"/>
<path d="M715.75 896 L701.344 892.799 L686.938 883.754 L672.531 869.699 L658.125 851.469 L629.313 805.824 L600.5 753.5 L571.688 701.176 L542.875 655.531 L528.469 637.301 L514.063 623.246 L499.656 614.201 L485.25 611" fill="none" stroke="#B1512D" stroke-opacity="0.373" stroke-width="5" stroke-linecap="round" stroke-linejoin="round"/>
<path d="M715.75 896 L701.344 892.799 L686.938 883.754 L672.531 869.699 L658.125 851.469 L629.313 805.824 L600.5 753.5 L571.688 701.176 L542.875 655.531 L528.469 637.301 L514.063 623.246 L499.656 614.201 L485.25 611" fill="none" stroke="#B1512D" stroke-opacity="0.667" stroke-width="4.6" stroke-linecap="round" stroke-linejoin="round" stroke-dasharray="11,9"/>
<path d="M715.75 896 L701.344 892.799 L686.938 883.754 L672.531 869.699 L658.125 851.469 L629.313 805.824 L600.5 753.5 L571.688 701.176 L542.875 655.531 L528.469 637.301 L514.063 623.246 L499.656 614.201 L485.25 611" fill="none" stroke="#B1512D" stroke-opacity="1" stroke-width="2.8" stroke-linecap="round" stroke-linejoin="round" stroke-dasharray="11,9"/>
<path d="M715.75 896 L701.344 892.799 L686.938 883.754 L672.531 869.699 L658.125 851.469 L629.313 805.824 L600.5 753.5 L571.688 701.176 L542.875 655.531 L528.469 637.301 L514.063 623.246 L499.656 614.201 L485.25 611" fill="none" stroke="#FFFFFF" stroke-opacity="0.922" stroke-width="1.2" stroke-linecap="round" stroke-linejoin="round" stroke-dasharray="11,9"/>
<path d="M79.5 820 L82.277 813.063 L90.124 806.125 L118.133 792.25 L157.731 778.375 L203.125 764.5 L248.519 750.625 L288.117 736.75 L316.126 722.875 L323.973 715.938 L326.75 709" fill="none" stroke="#B1512D" stroke-opacity="0.188" stroke-width="9" stroke-linecap="round" stroke-linejoin="round"/>
<path d="M79.5 820 L82.277 813.063 L90.124 806.125 L118.133 792.25 L157.731 778.375 L203.125 764.5 L248.519 750.625 L288.117 736.75 L316.126 722.875 L323.973 715.938 L326.75 709" fill="none" stroke="#B1512D" stroke-opacity="0.373" stroke-width="5" stroke-linecap="round" stroke-linejoin="round"/>
<path d="M79.5 820 L82.277 813.063 L90.124 806.125 L118.133 792.25 L157.731 778.375 L203.125 764.5 L248.519 750.625 L288.117 736.75 L316.126 722.875 L323.973 715.938 L326.75 709" fill="none" stroke="#B1512D" stroke-opacity="0.667" stroke-width="4.6" stroke-linecap="round" stroke-linejoin="round" stroke-dasharray="11,9"/>
<path d="M79.5 820 L82.277 813.063 L90.124 806.125 L118.133 792.25 L157.731 778.375 L203.125 764.5 L248.519 750.625 L288.117 736.75 L316.126 722.875 L323.973 715.938 L326.75 709" fill="none" stroke="#B1512D" stroke-opacity="1" stroke-width="2.8" stroke-linecap="round" stroke-linejoin="round" stroke-dasharray="11,9"/>
<path d="M79.5 820 L82.277 813.063 L90.124 806.125 L118.133 792.25 L157.731 778.375 L203.125 764.5 L248.519 750.625 L288.117 736.75 L316.126 722.875 L323.973 715.938 L326.75 709" fill="none" stroke="#FFFFFF" stroke-opacity="0.922" stroke-width="1.2" stroke-linecap="round" stroke-linejoin="round" stroke-dasharray="11,9"/>
<path d="M303.5 820 L306.583 806.125 L314.711 792.25 L339.375 764.5 L364.039 736.75 L372.167 722.875 L375.25 709" fill="none" stroke="#B1512D" stroke-opacity="0.188" stroke-width="9" stroke-linecap="round" stroke-linejoin="round"/>
<path d="M303.5 820 L306.583 806.125 L314.711 792.25 L339.375 764.5 L364.039 736.75 L372.167 722.875 L375.25 709" fill="none" stroke="#B1512D" stroke-opacity="0.373" stroke-width="5" stroke-linecap="round" stroke-linejoin="round"/>
<path d="M303.5 820 L306.583 806.125 L314.711 792.25 L339.375 764.5 L364.039 736.75 L372.167 722.875 L375.25 709" fill="none" stroke="#B1512D" stroke-opacity="0.667" stroke-width="4.6" stroke-linecap="round" stroke-linejoin="round" stroke-dasharray="11,9"/>
<path d="M303.5 820 L306.583 806.125 L314.711 792.25 L339.375 764.5 L364.039 736.75 L372.167 722.875 L375.25 709" fill="none" stroke="#B1512D" stroke-opacity="1" stroke-width="2.8" stroke-linecap="round" stroke-linejoin="round" stroke-dasharray="11,9"/>
<path d="M303.5 820 L306.583 806.125 L314.711 792.25 L339.375 764.5 L364.039 736.75 L372.167 722.875 L375.25 709" fill="none" stroke="#FFFFFF" stroke-opacity="0.922" stroke-width="1.2" stroke-linecap="round" stroke-linejoin="round" stroke-dasharray="11,9"/>
<path d="M530 842 L525.435 825.375 L513.398 808.75 L476.875 775.5 L440.352 742.25 L428.315 725.625 L423.75 709" fill="none" stroke="#E0A116" stroke-opacity="0.188" stroke-width="9" stroke-linecap="round" stroke-linejoin="round"/>
<path d="M530 842 L525.435 825.375 L513.398 808.75 L476.875 775.5 L440.352 742.25 L428.315 725.625 L423.75 709" fill="none" stroke="#E0A116" stroke-opacity="0.373" stroke-width="5" stroke-linecap="round" stroke-linejoin="round"/>
<path d="M530 842 L525.435 825.375 L513.398 808.75 L476.875 775.5 L440.352 742.25 L428.315 725.625 L423.75 709" fill="none" stroke="#E0A116" stroke-opacity="0.667" stroke-width="4.6" stroke-linecap="round" stroke-linejoin="round" stroke-dasharray="11,9"/>
<path d="M530 842 L525.435 825.375 L513.398 808.75 L476.875 775.5 L440.352 742.25 L428.315 725.625 L423.75 709" fill="none" stroke="#E0A116" stroke-opacity="1" stroke-width="2.8" stroke-linecap="round" stroke-linejoin="round" stroke-dasharray="11,9"/>
<path d="M530 842 L525.435 825.375 L513.398 808.75 L476.875 775.5 L440.352 742.25 L428.315 725.625 L423.75 709" fill="none" stroke="#FFFFFF" stroke-opacity="0.922" stroke-width="1.2" stroke-linecap="round" stroke-linejoin="round" stroke-dasharray="11,9"/>
</g>
</svg>
